<svg width="41" height="41" viewBox="0 0 41 41" fill="none" xmlns="http://www.w3.org/2000/svg">
<path d="M13.5788 37.2326H26.9121C33.6121 37.2326 34.8121 34.5493 35.1621 31.2826L36.4121 17.9493C36.8621 13.8826 35.6955 10.5659 28.5788 10.5659H11.9121C4.79548 10.5659 3.62881 13.8826 4.07881 17.9493L5.32881 31.2826C5.67881 34.5493 6.87881 37.2326 13.5788 37.2326Z" stroke="white" stroke-width="3" stroke-miterlimit="10" stroke-linecap="round" stroke-linejoin="round"/>
<path d="M13.5801 10.5658V9.2325C13.5801 6.2825 13.5801 3.89917 18.9134 3.89917H21.5801C26.9134 3.89917 26.9134 6.2825 26.9134 9.2325V10.5658" stroke="white" stroke-width="3" stroke-miterlimit="10" stroke-linecap="round" stroke-linejoin="round"/>
<path d="M23.5788 22.2326V23.8993C23.5788 23.9159 23.5788 23.9159 23.5788 23.9326C23.5788 25.7493 23.5621 27.2326 20.2454 27.2326C16.9454 27.2326 16.9121 25.7659 16.9121 23.9493V22.2326C16.9121 20.5659 16.9121 20.5659 18.5788 20.5659H21.9121C23.5788 20.5659 23.5788 20.5659 23.5788 22.2326Z" stroke="white" stroke-width="3" stroke-miterlimit="10" stroke-linecap="round" stroke-linejoin="round"/>
<path d="M36.3301 18.8992C32.4801 21.6992 28.0801 23.3658 23.5801 23.9325" stroke="white" stroke-width="3" stroke-miterlimit="10" stroke-linecap="round" stroke-linejoin="round"/>
<path d="M4.61328 19.3494C8.36328 21.916 12.5966 23.466 16.9133 23.9494" stroke="white" stroke-width="3" stroke-miterlimit="10" stroke-linecap="round" stroke-linejoin="round"/>
</svg>
