<svg width="324" height="489" viewBox="0 0 324 489" fill="none" xmlns="http://www.w3.org/2000/svg">
<path d="M313.807 166.165C359.464 166.165 396.477 129.152 396.477 83.4952C396.477 37.8381 359.464 0.825684 313.807 0.825684C268.15 0.825684 231.138 37.8381 231.138 83.4952C231.138 129.152 268.15 166.165 313.807 166.165Z" fill="#384A5B"/>
<path d="M388.962 118.568C350.132 78.4858 296.271 52.1819 238.653 49.6768C233.643 59.6973 231.138 70.9704 231.138 83.4961C231.138 103.537 238.653 122.326 251.179 137.357C272.473 142.367 291.261 152.387 307.545 166.166C310.05 166.166 312.555 167.418 315.06 167.418C346.374 166.166 375.183 146.125 388.962 118.568Z" fill="#384A5B"/>
<path d="M420.277 159.903C401.488 186.207 373.932 204.996 341.365 211.259C348.88 228.795 353.891 247.583 353.891 267.624C353.891 341.526 295.02 404.154 226.129 404.154C155.985 404.154 97.1142 342.778 97.1142 267.624C97.1142 206.248 138.449 152.388 194.815 137.357C187.299 121.074 182.289 102.285 182.289 82.2442C182.289 72.2237 183.541 62.2032 186.047 52.1826C82.0834 70.9711 0.666626 162.409 0.666626 267.624C0.666626 387.871 104.63 488.076 226.129 488.076C347.628 488.076 451.591 386.618 451.591 267.624C451.591 230.047 439.066 192.47 420.277 159.903Z" fill="#384A5B"/>
</svg>
