<svg width="41" height="41" viewBox="0 0 41 41" fill="none" xmlns="http://www.w3.org/2000/svg">
<path d="M13.5801 21.1511H25.2467" stroke="white" stroke-width="3" stroke-miterlimit="10" stroke-linecap="round" stroke-linejoin="round"/>
<path d="M13.5801 27.8179H20.8801" stroke="white" stroke-width="3" stroke-miterlimit="10" stroke-linecap="round" stroke-linejoin="round"/>
<path d="M16.9134 10.8178H23.5801C26.9134 10.8178 26.9134 9.15112 26.9134 7.48446C26.9134 4.15112 25.2467 4.15112 23.5801 4.15112H16.9134C15.2467 4.15112 13.5801 4.15112 13.5801 7.48446C13.5801 10.8178 15.2467 10.8178 16.9134 10.8178Z" stroke="white" stroke-width="3" stroke-miterlimit="10" stroke-linecap="round" stroke-linejoin="round"/>
<path d="M26.9128 7.51782C32.4628 7.81782 35.2461 9.86782 35.2461 17.4845V27.4845C35.2461 34.1512 33.5794 37.4845 25.2461 37.4845H15.2461C6.91276 37.4845 5.24609 34.1512 5.24609 27.4845V17.4845C5.24609 9.88449 8.02943 7.81782 13.5794 7.51782" stroke="white" stroke-width="3" stroke-miterlimit="10" stroke-linecap="round" stroke-linejoin="round"/>
</svg>
