<svg width="51" height="51" viewBox="0 0 51 51" fill="none" xmlns="http://www.w3.org/2000/svg">
<circle cx="25.3679" cy="25.3868" r="25" fill="#0AE02D"/>
<path d="M26.0057 7.71706C25.4375 7.25024 24.611 7.25024 23.9911 7.71706C20.8399 10.103 11.6448 17.8834 11.6965 26.9605C11.6965 34.3259 17.6372 40.3427 25.0242 40.3427C32.4113 40.3427 38.352 34.3777 38.352 27.0123C38.352 18.039 29.1052 10.103 26.0057 7.71706Z" fill="white"/>
<path d="M16.3933 32.3427V19.0427H19.6043V24.2107H25.0953V19.0427H28.2873V32.3427H25.0953V27.2507H19.6043V32.3427H16.3933ZM29.5847 35.2877V34.0527L31.5227 32.3807C32.042 31.9373 32.384 31.6143 32.5487 31.4117C32.726 31.209 32.8147 30.981 32.8147 30.7277C32.8147 30.487 32.7387 30.297 32.5867 30.1577C32.4474 30.0183 32.27 29.9487 32.0547 29.9487C31.8394 29.9487 31.6494 30.0183 31.4847 30.1577C31.32 30.297 31.225 30.4933 31.1997 30.7467L29.6797 30.5567C29.7684 29.9107 30.0344 29.404 30.4777 29.0367C30.921 28.6693 31.4594 28.4857 32.0927 28.4857C32.7387 28.4857 33.2707 28.6757 33.6887 29.0557C34.1194 29.423 34.3347 29.9297 34.3347 30.5757C34.3347 31.057 34.208 31.4877 33.9547 31.8677C33.714 32.235 33.3277 32.6403 32.7957 33.0837L31.8647 33.9007H34.3917V35.2687L29.5847 35.2877Z" fill="#00BC04"/>
</svg>
