<svg width="51" height="51" viewBox="0 0 51 51" fill="none" xmlns="http://www.w3.org/2000/svg">
<circle cx="25.8628" cy="25.3868" r="25" fill="#0AE02D"/>
<g clip-path="url(#clip0_37_324)">
<path d="M30.8482 43.1623C30.3599 43.1623 30.0343 42.8274 29.8715 42.4925C29.7087 42.1576 29.7087 41.6553 29.8715 41.1529L31.4994 38.139C31.825 37.6367 32.6389 37.3018 33.1273 37.6367C33.7785 37.9716 33.9413 38.8088 33.6157 39.3111L33.1273 39.9809C37.6854 38.9762 40.9413 34.7902 40.9413 29.7669C40.9413 29.0971 41.4296 28.4274 42.2436 28.4274C43.0575 28.4274 43.5459 28.9297 43.5459 29.7669C43.3831 37.3018 37.6854 43.1623 30.8482 43.1623Z" fill="white"/>
<path d="M9.68538 21.3948C8.87143 21.3948 8.38306 20.8925 8.38306 20.2227C8.38306 13.0227 14.0807 7.16223 21.0807 7.16223C21.4063 7.16223 21.8947 7.49712 22.0575 7.832C22.2203 8.16688 22.2203 8.66921 22.0575 9.17153L20.4296 12.1855C20.104 12.6878 19.29 13.0227 18.8017 12.6878C18.1505 12.018 17.8249 11.3483 18.3133 10.6785L18.8017 10.0087C14.2435 11.0134 10.8249 15.1994 10.8249 20.2227C10.8249 20.8925 10.3365 21.3948 9.68538 21.3948Z" fill="white"/>
<path d="M32.9644 18.8831L26.7784 15.5343C26.1272 15.1994 25.3133 15.1994 24.6621 15.5343L18.8016 18.8831C18.3133 19.0506 17.9877 19.5529 17.9877 20.0552C17.9877 20.5576 18.3133 21.0599 18.6388 21.3948L24.8249 24.7436C25.1505 24.911 25.476 25.0785 25.8016 25.0785C26.1272 25.0785 26.4528 24.911 26.7784 24.7436L32.9644 21.3948C33.4528 21.0599 33.6156 20.725 33.6156 20.0552C33.7784 19.5529 33.4528 19.0506 32.9644 18.8831Z" fill="white"/>
<path d="M23.8482 25.9157L18.1505 23.0692C17.6621 22.9017 17.1738 22.9017 16.8482 23.0692C16.3598 23.4041 16.197 23.739 16.197 24.2413V29.7669C16.197 30.7715 16.6854 31.6087 17.4993 31.9436L23.197 34.9576C23.3598 35.125 23.6854 35.125 23.8482 35.125C24.1738 35.125 24.3366 35.125 24.4993 34.9576C24.9877 34.6227 25.1505 34.2878 25.1505 33.7855V28.2599C25.1505 27.2552 24.6621 26.418 23.8482 25.9157Z" fill="white"/>
<path d="M34.9179 23.0692C34.4296 22.7343 33.9412 22.7343 33.6156 23.0692L27.9179 25.9157C27.104 26.4181 26.6156 27.2553 26.6156 28.0925V33.6181C26.6156 34.1204 26.9412 34.6227 27.2668 34.7901C27.4296 34.9576 27.7551 34.9576 27.9179 34.9576C28.0807 34.9576 28.4063 34.9576 28.5691 34.7901L34.2668 31.7762C35.0807 31.2739 35.5691 30.4367 35.5691 29.5994V24.0739C35.7319 23.739 35.4063 23.4041 34.9179 23.0692Z" fill="white"/>
</g>
<defs>
<clipPath id="clip0_37_324">
<rect width="35" height="36" fill="white" transform="translate(8.38306 7.16223)"/>
</clipPath>
</defs>
</svg>
