<svg width="50" height="51" viewBox="0 0 50 51" fill="none" xmlns="http://www.w3.org/2000/svg">
<circle cx="25" cy="25.3868" r="25" fill="#0AE02D"/>
<path d="M20.9587 40.2544C19.1096 39.6337 17.4681 38.6739 16.1056 37.2789C14.3993 35.5321 13.5883 33.4205 13.5039 31.0082C13.4196 28.5127 14.1787 26.2348 15.2817 24.04C16.2873 22.0436 17.5006 20.156 18.636 18.23C20.3034 15.3953 21.6918 12.4455 22.4834 9.24615C22.5158 9.11178 22.5482 8.97741 22.5807 8.84303C22.6845 8.39512 22.7104 8.38872 23.0673 8.70866C23.4501 9.05419 23.8264 9.40612 24.2027 9.76445C26.7006 12.132 29.1401 14.5507 31.2811 17.2382C33.1302 19.5609 34.7068 22.0308 35.6086 24.8718C36.3807 27.3097 36.7375 29.8116 36.3353 32.3519C35.7384 36.14 32.981 39.3841 29.1401 40.3567C28.926 40.4143 28.7054 40.4399 28.4783 40.4847C28.4653 40.3375 28.5626 40.3055 28.6275 40.2607C31.0151 38.2835 32.2608 35.7177 32.5852 32.7039C32.9485 29.3509 31.891 26.3691 29.99 23.6369C29.0233 22.242 27.8684 21.0006 26.5838 19.8744C26.5189 19.8168 26.454 19.6889 26.3502 19.7465C26.2529 19.7976 26.3113 19.9192 26.3243 20.0152C26.7006 23.2082 26.0518 26.2284 24.7087 29.127C24.4882 29.6005 24.2286 30.0548 23.9756 30.5155C23.9237 30.6115 23.8848 30.7331 23.7355 30.797C23.7031 30.6115 23.6771 30.4387 23.6447 30.2659C23.3463 28.6663 22.6456 27.2777 21.4518 26.1452C21.2052 25.9148 21.1663 25.9212 21.0819 26.2284C20.7186 27.5849 20.1412 28.8582 19.5183 30.1188C18.9733 31.213 18.4997 32.3199 18.2532 33.5293C17.8315 35.6281 18.4803 37.3941 19.8233 38.9874C20.1931 39.4225 20.5953 39.8192 21.0106 40.2096C20.9846 40.2224 20.9716 40.2352 20.9587 40.2544Z" fill="white"/>
</svg>
