<svg width="51" height="51" viewBox="0 0 51 51" fill="none" xmlns="http://www.w3.org/2000/svg">
<circle cx="25.8633" cy="25.7969" r="25" fill="#0AE02D"/>
<path d="M16.4312 37.2313C16.4312 38.0514 15.8161 38.8716 14.7908 38.8716C13.9707 38.8716 13.1505 38.2565 13.1505 37.2313V32.9254C13.1505 32.1052 13.7656 31.285 14.7908 31.285C15.611 31.285 16.4312 31.9002 16.4312 32.9254V37.2313Z" fill="white"/>
<path d="M26.8885 37.2313C26.8885 38.0515 26.2733 38.8717 25.2481 38.8717C24.2229 38.8717 23.6078 38.2566 23.6078 37.2313V28.6196C23.6078 27.7994 24.2229 26.9792 25.2481 26.9792C26.2733 26.9792 26.8885 27.5944 26.8885 28.6196V37.2313Z" fill="white"/>
<path d="M37.3452 37.2314C37.3452 38.0516 36.7301 38.8718 35.7049 38.8718C34.8847 38.8718 34.0646 38.2567 34.0646 37.2314V24.3138C34.0646 23.4936 34.6797 22.6735 35.7049 22.6735C36.5251 22.6735 37.3452 23.2886 37.3452 24.3138V37.2314Z" fill="white"/>
<path d="M37.3452 17.9575C37.3452 18.7777 36.7301 19.5979 35.7049 19.5979C34.8847 19.5979 34.0646 18.9827 34.0646 17.9575V15.9071C29.1436 21.2382 22.5822 25.134 15.2007 26.9794C14.9957 26.9794 14.9957 26.9794 14.7906 26.9794C14.1755 26.9794 13.5604 26.5693 13.3553 25.7491C13.1503 24.929 13.5604 24.1088 14.5856 23.9037C21.352 22.2634 27.5032 18.5726 32.4242 13.4466H29.9637C29.1436 13.4466 28.3234 12.8315 28.3234 11.8063C28.3234 10.9861 29.1436 10.371 29.9637 10.371H35.91H36.115H36.32C36.32 10.371 36.5251 10.371 36.5251 10.576C36.5251 10.576 36.7301 10.576 36.7301 10.7811L36.9352 10.9861L37.1402 11.1911V11.3962C37.1402 11.3962 37.1402 11.6012 37.1402 11.8063L37.3452 17.9575Z" fill="white"/>
</svg>
