<svg width="20" height="21" viewBox="0 0 20 21" fill="none" xmlns="http://www.w3.org/2000/svg">
<path d="M13.4121 7.55497C15.2862 7.55497 16.8054 6.03572 16.8054 4.16164C16.8054 2.28756 15.2862 0.768311 13.4121 0.768311C11.538 0.768311 10.0188 2.28756 10.0188 4.16164C10.0188 6.03572 11.538 7.55497 13.4121 7.55497Z" fill="#0AE02D"/>
<path d="M17.7823 7.29783C17.0111 8.37753 15.88 9.14874 14.5432 9.40581C14.8517 10.1256 15.0574 10.8968 15.0574 11.7194C15.0574 14.7529 12.6409 17.3236 9.81313 17.3236C6.93394 17.3236 4.51747 14.8043 4.51747 11.7194C4.51747 9.20015 6.21414 6.98935 8.52778 6.37238C8.21929 5.704 8.01364 4.93278 8.01364 4.11016C8.01364 3.69885 8.06504 3.28753 8.16787 2.87622C3.9005 3.64743 0.558594 7.40066 0.558594 11.7194C0.558594 16.6552 4.82596 20.7683 9.81313 20.7683C14.8003 20.7683 19.0677 16.6038 19.0677 11.7194C19.0677 10.177 18.5535 8.6346 17.7823 7.29783Z" fill="#0AE02D"/>
</svg>
