<svg width="20" height="21" viewBox="0 0 20 21" fill="none" xmlns="http://www.w3.org/2000/svg">
<path d="M13.8252 7.12211C15.6993 7.12211 17.2185 5.60286 17.2185 3.72878C17.2185 1.85469 15.6993 0.335449 13.8252 0.335449C11.9511 0.335449 10.4319 1.85469 10.4319 3.72878C10.4319 5.60286 11.9511 7.12211 13.8252 7.12211Z" fill="#64B3FF"/>
<path d="M18.1954 6.86497C17.4242 7.94467 16.2931 8.71588 14.9563 8.97295C15.2648 9.69274 15.4704 10.464 15.4704 11.2866C15.4704 14.32 13.054 16.8907 10.2262 16.8907C7.34703 16.8907 4.93055 14.3714 4.93055 11.2866C4.93055 8.76729 6.62723 6.55649 8.94086 5.93952C8.63238 5.27113 8.42672 4.49992 8.42672 3.6773C8.42672 3.26598 8.47813 2.85467 8.58096 2.44336C4.31359 3.21457 0.97168 6.9678 0.97168 11.2866C0.97168 16.2223 5.23905 20.3355 10.2262 20.3355C15.2134 20.3355 19.4807 16.1709 19.4807 11.2866C19.4807 9.74416 18.9666 8.20174 18.1954 6.86497Z" fill="#64B3FF"/>
</svg>
