<svg width="195" height="27" viewBox="0 0 195 27" fill="none" xmlns="http://www.w3.org/2000/svg">
<g clip-path="url(#clip0_27_221)">
<path d="M0 0.370106H3.74733L14.6655 14.8968V0.370106H18.4128V21.0036H14.6655L3.74733 6.47687V21.0036H0V0.370106Z" fill="white"/>
<path d="M32.8932 16.5623L35.2064 18.968C33.8648 20.4021 31.1352 21.3737 28.9146 21.3737C24.4733 21.3737 20.8185 17.9964 20.8185 13.1851C20.7722 8.55872 24.2883 5.08897 28.6833 5.08897C33.4947 5.08897 36.2705 8.74377 36.2705 14.4804H24.5658C25.0285 16.6085 26.6477 18.1352 28.8683 18.1352C30.3025 18.1352 32.0142 17.4875 32.8932 16.5623ZM24.6121 11.7046H32.8007C32.3843 9.76156 31.0427 8.37366 28.8683 8.37366C26.7865 8.37366 25.121 9.66904 24.6121 11.7046Z" fill="white"/>
<path d="M36.2242 5.45908H39.879L43.1174 16.0534L46.5872 5.45908H49.6406L53.1103 16.0534L56.3488 5.45908H60.0036L54.7758 21.0036H51.4448L48.1139 10.363L44.8292 21.0036H41.4982L36.2242 5.45908Z" fill="white"/>
<path d="M79.5267 0.370106V21.0036H75.7794V12.2135H65.4626V21.0036H61.7153V0.370106H65.4626V8.79003H75.7794V0.370106H79.5267Z" fill="#0AE02D"/>
<path d="M82.21 25.6299L82.9964 22.9929C83.6441 23.363 84.4306 23.548 84.9858 23.548C85.8648 23.548 86.5125 23.2705 86.9751 22.5303L87.6228 21.1424L81.0534 5.45908H84.9395L89.4733 17.0712L93.7295 5.45908H97.5231L90.9537 22.0676C89.7972 25.0285 87.9929 26.3701 85.6335 26.4164C84.4306 26.4164 83.1352 26.1388 82.21 25.6299Z" fill="#0AE02D"/>
<path d="M114.733 0V21.0036H111.078V18.5979C109.829 20.3559 107.979 21.3737 105.712 21.3737C101.594 21.3737 98.5872 17.9964 98.5872 13.2313C98.5872 8.46619 101.594 5.13523 105.712 5.13523C107.979 5.13523 109.875 6.15302 111.078 7.91103V0H114.733ZM111.078 13.2313C111.078 10.3167 109.274 8.23487 106.683 8.23487C104.046 8.23487 102.196 10.3167 102.196 13.2313C102.196 16.1459 104.046 18.274 106.683 18.274C109.274 18.2278 111.078 16.1459 111.078 13.2313Z" fill="#0AE02D"/>
<path d="M126.993 5.08897V8.23487C123.662 8.23487 121.441 10.2242 121.441 13.1851V21.0498H117.786V5.45907H121.441V8.46619C122.413 6.38434 124.448 5.08897 126.993 5.08897Z" fill="#0AE02D"/>
<path d="M161.181 5.45908V19.3381C161.181 23.3167 157.804 26.1851 153.085 26.1851C150.402 26.1851 147.95 25.306 146.423 24.1032L147.765 21.4199C148.829 22.3915 150.726 23.0391 152.53 23.0391C155.584 23.0391 157.527 21.5587 157.527 19.1993V17.1637C156.278 18.8292 154.427 19.8007 152.206 19.8007C148.181 19.8007 145.221 16.7473 145.221 12.3986C145.221 8.04982 148.181 5.04271 152.206 5.04271C154.381 5.04271 156.416 6.0605 157.527 7.72598V5.41281H161.181V5.45908ZM157.527 12.4911C157.527 10.0391 155.769 8.23488 153.27 8.23488C150.819 8.23488 149.014 9.99288 149.014 12.4911C149.014 14.9893 150.772 16.7473 153.27 16.7473C155.722 16.7473 157.527 14.9893 157.527 12.4911Z" fill="#0AE02D"/>
<path d="M175.384 16.5623L177.698 18.968C176.356 20.4021 173.626 21.3737 171.406 21.3737C166.964 21.3737 163.31 17.9964 163.31 13.1851C163.31 8.51245 166.779 5.08897 171.221 5.08897C176.032 5.08897 178.808 8.74377 178.808 14.4804H167.103C167.566 16.6085 169.185 18.1352 171.406 18.1352C172.794 18.1352 174.505 17.4875 175.384 16.5623ZM167.057 11.7046H175.246C174.829 9.76156 173.488 8.37366 171.313 8.37366C169.278 8.37366 167.612 9.66904 167.057 11.7046Z" fill="#0AE02D"/>
<path d="M195 11.1032V21.0036H191.438V11.8434C191.438 9.76156 190.096 8.23487 188.153 8.23487C186.21 8.23487 184.637 9.53025 184.406 11.1957V21.0498H180.751V5.45907H184.406V7.54092C185.377 6.10676 187.182 5.08897 189.217 5.08897C192.641 5.08897 195 7.58719 195 11.1032Z" fill="#0AE02D"/>
<path d="M138.883 9.43772C140.569 9.43772 141.936 8.07068 141.936 6.38434C141.936 4.698 140.569 3.33096 138.883 3.33096C137.196 3.33096 135.829 4.698 135.829 6.38434C135.829 8.07068 137.196 9.43772 138.883 9.43772Z" fill="#0AE02D"/>
<path d="M141.658 7.67971C140.224 6.19929 138.235 5.22776 136.107 5.13523C135.922 5.50534 135.829 5.92171 135.829 6.38434C135.829 7.12455 136.107 7.8185 136.569 8.37366C137.356 8.55872 138.05 8.92882 138.651 9.43772C138.744 9.43772 138.836 9.48398 138.929 9.48398C140.085 9.43772 141.149 8.69751 141.658 7.67971Z" fill="#0AE02D"/>
<path d="M142.815 9.2064C142.121 10.1779 141.103 10.8719 139.9 11.1032C140.178 11.7509 140.363 12.4448 140.363 13.1851C140.363 15.9146 138.189 18.2278 135.644 18.2278C133.053 18.2278 130.879 15.9609 130.879 13.1851C130.879 10.9181 132.406 8.92882 134.488 8.37366C134.21 7.77224 134.025 7.07829 134.025 6.33808C134.025 5.96797 134.071 5.59786 134.164 5.22776C130.324 5.92171 127.317 9.29893 127.317 13.1851C127.317 17.6263 131.157 21.3274 135.644 21.3274C140.132 21.3274 143.972 17.5801 143.972 13.1851C143.972 11.7972 143.509 10.4093 142.815 9.2064Z" fill="#0AE02D"/>
</g>
<defs>
<clipPath id="clip0_27_221">
<rect width="195" height="26.4164" fill="white"/>
</clipPath>
</defs>
</svg>
