<svg width="195" height="27" viewBox="0 0 195 27" fill="none" xmlns="http://www.w3.org/2000/svg">
<g clip-path="url(#clip0_37_377)">
<path d="M0 0.532227H3.74733L14.6655 15.0589V0.532227H18.4128V21.1657H14.6655L3.74733 6.63899V21.1657H0V0.532227Z" fill="#0AE02D"/>
<path d="M32.8932 16.7243L35.2064 19.13C33.8648 20.5641 31.1352 21.5357 28.9146 21.5357C24.4733 21.5357 20.8185 18.1584 20.8185 13.3471C20.7722 8.72073 24.2883 5.25098 28.6833 5.25098C33.4947 5.25098 36.2705 8.90578 36.2705 14.6424H24.5658C25.0285 16.7705 26.6477 18.2972 28.8683 18.2972C30.3025 18.2972 32.0142 17.6496 32.8932 16.7243ZM24.6121 11.8666H32.8007C32.3843 9.92357 31.0427 8.53567 28.8683 8.53567C26.7865 8.53567 25.121 9.83105 24.6121 11.8666Z" fill="#0AE02D"/>
<path d="M36.2242 5.62109H39.879L43.1174 16.2154L46.5872 5.62109H49.6406L53.1103 16.2154L56.3488 5.62109H60.0036L54.7758 21.1656H51.4448L48.1139 10.525L44.8292 21.1656H41.4982L36.2242 5.62109Z" fill="#0AE02D"/>
<path d="M79.5267 0.532227V21.1657H75.7794V12.3756H65.4626V21.1657H61.7153V0.532227H65.4626V8.95216H75.7794V0.532227H79.5267Z" fill="white"/>
<path d="M82.21 25.7919L82.9964 23.1549C83.6441 23.525 84.4306 23.7101 84.9858 23.7101C85.8648 23.7101 86.5125 23.4325 86.9751 22.6923L87.6228 21.3044L81.0534 5.62109H84.9395L89.4733 17.2332L93.7295 5.62109H97.5231L90.9537 22.2296C89.7972 25.1905 87.9929 26.5321 85.6335 26.5784C84.4306 26.5784 83.1352 26.3008 82.21 25.7919Z" fill="white"/>
<path d="M114.733 0.162109V21.1657H111.078V18.76C109.829 20.518 107.979 21.5358 105.712 21.5358C101.594 21.5358 98.5872 18.1586 98.5872 13.3934C98.5872 8.6283 101.594 5.29734 105.712 5.29734C107.979 5.29734 109.875 6.31513 111.078 8.07314V0.162109H114.733ZM111.078 13.3934C111.078 10.4788 109.274 8.39698 106.683 8.39698C104.046 8.39698 102.196 10.4788 102.196 13.3934C102.196 16.308 104.046 18.4361 106.683 18.4361C109.274 18.3899 111.078 16.308 111.078 13.3934Z" fill="white"/>
<path d="M126.993 5.25098V8.39688C123.662 8.39688 121.441 10.3862 121.441 13.3471V21.2118H117.786V5.62108H121.441V8.6282C122.413 6.54635 124.448 5.25098 126.993 5.25098Z" fill="white"/>
<path d="M161.181 5.62096V19.5C161.181 23.4786 157.804 26.3469 153.085 26.3469C150.402 26.3469 147.95 25.4679 146.423 24.2651L147.765 21.5818C148.829 22.5533 150.726 23.201 152.53 23.201C155.584 23.201 157.527 21.7206 157.527 19.3612V17.3256C156.278 18.9911 154.427 19.9626 152.206 19.9626C148.181 19.9626 145.221 16.9092 145.221 12.5605C145.221 8.21171 148.181 5.20459 152.206 5.20459C154.381 5.20459 156.416 6.22238 157.527 7.88786V5.5747H161.181V5.62096ZM157.527 12.653C157.527 10.201 155.769 8.39676 153.27 8.39676C150.819 8.39676 149.014 10.1548 149.014 12.653C149.014 15.1512 150.772 16.9092 153.27 16.9092C155.722 16.9092 157.527 15.1512 157.527 12.653Z" fill="white"/>
<path d="M175.384 16.7243L177.698 19.13C176.356 20.5641 173.626 21.5357 171.406 21.5357C166.964 21.5357 163.31 18.1584 163.31 13.3471C163.31 8.67446 166.779 5.25098 171.221 5.25098C176.032 5.25098 178.808 8.90578 178.808 14.6424H167.103C167.566 16.7705 169.185 18.2972 171.406 18.2972C172.794 18.2972 174.505 17.6496 175.384 16.7243ZM167.057 11.8666H175.246C174.829 9.92357 173.488 8.53567 171.313 8.53567C169.278 8.53567 167.612 9.83105 167.057 11.8666Z" fill="white"/>
<path d="M195 11.2652V21.1656H191.438V12.0054C191.438 9.92357 190.096 8.39688 188.153 8.39688C186.21 8.39688 184.637 9.69226 184.406 11.3577V21.2118H180.751V5.62108H184.406V7.70293C185.377 6.26877 187.182 5.25098 189.217 5.25098C192.641 5.25098 195 7.7492 195 11.2652Z" fill="white"/>
<path d="M138.883 9.59993C140.569 9.59993 141.936 8.23288 141.936 6.54655C141.936 4.86021 140.569 3.49316 138.883 3.49316C137.196 3.49316 135.829 4.86021 135.829 6.54655C135.829 8.23288 137.196 9.59993 138.883 9.59993Z" fill="white"/>
<path d="M141.658 7.84185C140.224 6.36142 138.235 5.38989 136.107 5.29736C135.922 5.66747 135.829 6.08384 135.829 6.54647C135.829 7.28669 136.107 7.98064 136.569 8.5358C137.356 8.72085 138.05 9.09096 138.651 9.59985C138.744 9.59985 138.836 9.64612 138.929 9.64612C140.085 9.59985 141.149 8.85964 141.658 7.84185Z" fill="white"/>
<path d="M142.815 9.3683C142.121 10.3398 141.103 11.0338 139.9 11.2651C140.178 11.9128 140.363 12.6067 140.363 13.3469C140.363 16.0765 138.189 18.3896 135.644 18.3896C133.053 18.3896 130.879 16.1227 130.879 13.3469C130.879 11.08 132.406 9.09072 134.488 8.53556C134.21 7.93413 134.025 7.24018 134.025 6.49997C134.025 6.12986 134.071 5.75976 134.164 5.38965C130.324 6.0836 127.317 9.46082 127.317 13.3469C127.317 17.7882 131.157 21.4893 135.644 21.4893C140.132 21.4893 143.972 17.742 143.972 13.3469C143.972 11.959 143.509 10.5711 142.815 9.3683Z" fill="white"/>
</g>
<defs>
<clipPath id="clip0_37_377">
<rect width="195" height="26.4164" fill="white" transform="translate(0 0.162109)"/>
</clipPath>
</defs>
</svg>
