<svg width="41" height="41" viewBox="0 0 41 41" fill="none" xmlns="http://www.w3.org/2000/svg">
<path d="M28.6074 31.4312H21.9408L14.5241 36.4792C13.4241 37.2296 11.9408 36.4281 11.9408 35.0638V31.4312C6.94076 31.4312 3.60742 28.0204 3.60742 22.9041V12.6714C3.60742 7.55514 6.94076 4.14429 11.9408 4.14429H28.6074C33.6074 4.14429 36.9408 7.55514 36.9408 12.6714V22.9041C36.9408 28.0204 33.6074 31.4312 28.6074 31.4312Z" stroke="white" stroke-width="3" stroke-miterlimit="10" stroke-linecap="round" stroke-linejoin="round"/>
<path d="M20.2725 19.3736V19.0156C20.2725 17.8559 20.9725 17.2419 21.6725 16.7473C22.3559 16.2698 23.0391 15.6559 23.0391 14.5303C23.0391 12.9613 21.8058 11.6992 20.2725 11.6992C18.7391 11.6992 17.5059 12.9613 17.5059 14.5303" stroke="white" stroke-width="3" stroke-linecap="round" stroke-linejoin="round"/>
<path d="M20.2653 23.4496H20.2803" stroke="white" stroke-width="3" stroke-linecap="round" stroke-linejoin="round"/>
</svg>
