<svg width="81" height="81" viewBox="0 0 81 81" fill="none" xmlns="http://www.w3.org/2000/svg">
<path d="M80.0801 8.11906C80.1099 10.7504 79.1197 12.9576 77.2791 14.8028C73.1794 18.9102 69.0719 23.0108 64.9569 27.1044C64.4801 27.5766 64.3884 27.9731 64.5993 28.6012C65.5872 31.5259 66.5293 34.4643 67.4667 37.4028C67.6547 37.9964 67.7647 38.3471 68.4248 37.7443C68.5613 37.6044 68.7261 37.4953 68.9082 37.4241C69.0903 37.3529 69.2854 37.3214 69.4806 37.3316C69.6758 37.3418 69.8666 37.3935 70.0403 37.4832C70.2139 37.573 70.3664 37.6987 70.4877 37.852C70.9759 38.4113 70.9461 39.2548 70.4006 39.8828C70.3666 39.9294 70.3256 39.9704 70.2791 40.0043C68.7892 40.9509 68.7984 42.1772 69.4723 43.651C69.9307 44.6572 70.1805 45.7597 70.5129 46.8233C70.6527 47.2702 70.8086 47.355 71.2005 47.0066C72.028 46.2869 72.805 46.28 73.3941 46.9081C73.9831 47.5361 74.0106 48.4736 73.1236 49.1451C71.8423 50.1147 71.8331 51.137 72.3328 52.5466C73.6049 56.1268 74.696 59.769 75.9085 63.3699C76.2913 64.4999 76.1629 65.3731 75.2461 66.2166C73.8387 67.5116 72.5276 68.9144 71.1684 70.2622C69.8665 71.5526 68.9932 71.4403 68.0649 69.8473C62.6189 60.5154 57.1768 51.1813 51.7384 41.8448C51.186 40.8982 51.1814 40.9028 50.3952 41.6867C48.4745 43.6075 46.4987 45.4778 44.6444 47.4628C41.8755 50.4425 38.6001 52.6933 35.0337 54.5568C34.2956 54.9441 34.165 55.3292 34.346 56.0879C35.3889 60.507 36.3722 64.9399 37.4128 69.3591C37.6421 70.3516 37.4839 71.1286 36.7252 71.8299C35.8198 72.6597 34.9832 73.5651 34.1054 74.4269C32.9433 75.5729 32.0425 75.4744 31.1898 74.1243C28.1413 69.3232 25.0975 64.5174 22.0581 59.7071C21.7735 59.2426 21.3851 58.8504 20.9236 58.561C16.1117 55.5263 11.3067 52.4832 6.50861 49.4317C5.15628 48.5744 5.06002 47.6713 6.19918 46.5138C7.09998 45.597 8.03285 44.7145 8.91989 43.7771C9.54105 43.1192 10.2447 42.9611 11.0974 43.1605C15.6036 44.2034 20.1145 45.2234 24.6207 46.2823C25.3083 46.4428 25.6613 46.3511 26.0212 45.6703C27.8915 42.1107 30.1217 38.8147 33.0923 36.0436C35.1414 34.1343 37.0484 32.076 39.0517 30.1277C39.6499 29.5478 39.572 29.314 38.8844 28.9152C29.6365 23.5517 20.3979 18.1729 11.1684 12.7789L10.6504 12.474C9.22474 11.6053 9.10785 10.7183 10.2837 9.52411C11.6475 8.14885 13.0709 6.81027 14.3911 5.3823C15.2254 4.47922 16.0873 4.30731 17.2287 4.69467C21.0748 5.98741 24.9485 7.19076 28.79 8.49496C29.7068 8.8021 30.367 8.79522 30.9537 7.98382C31.1852 7.69122 31.4515 7.42798 31.7468 7.19993C32.0223 6.94303 32.3881 6.80539 32.7646 6.81698C33.1411 6.82857 33.4978 6.98846 33.757 7.26182C33.8885 7.38487 33.9942 7.53287 34.068 7.69721C34.1417 7.86154 34.182 8.03892 34.1865 8.21898C34.191 8.39905 34.1595 8.57821 34.0941 8.74601C34.0286 8.91381 33.9304 9.0669 33.8051 9.19634C33.2069 9.80833 33.3673 9.99398 34.1008 10.2071C35.554 10.6266 36.9934 11.0988 38.4214 11.6053C38.9669 11.7979 39.3382 11.7039 39.6935 11.273C40.012 10.9055 40.3559 10.5609 40.7226 10.2415C41.369 9.65705 42.2491 9.63413 42.813 10.1705C42.9549 10.2932 43.0703 10.4436 43.1519 10.6125C43.2335 10.7814 43.2797 10.9652 43.2876 11.1526C43.2956 11.3401 43.2651 11.5272 43.1981 11.7024C43.131 11.8776 43.0288 12.0372 42.8978 12.1715C42.3706 12.7628 42.5104 12.9279 43.1935 13.1433C46.1732 14.0762 49.1277 15.032 52.0776 16.0313C52.6942 16.2422 53.0609 16.1207 53.4964 15.6807C57.6054 11.5411 61.7311 7.41538 65.8737 3.30338C68.4408 0.763741 71.526 -0.0476606 75.0168 0.850838C78.2877 1.69433 79.5666 3.46153 80.0846 7.26869C80.1012 7.55195 80.0996 7.83599 80.0801 8.11906ZM77.1897 7.84171C77.1164 7.45434 77.0224 6.86069 76.8918 6.2785C76.5778 4.88491 75.6999 4.06436 74.3177 3.71367C71.7964 3.06959 69.6648 3.68157 67.8266 5.52441C56.4731 16.8932 45.115 28.2551 33.7524 39.6101C33.3485 40.0122 32.9659 40.4353 32.6063 40.8776C30.8213 43.1521 29.2845 45.611 28.0221 48.2123C27.291 49.6792 26.922 49.8534 25.3129 49.4844C20.8594 48.4644 16.4036 47.4628 11.9615 46.3992C11.1226 46.1975 10.5198 46.2479 9.93529 46.9493C9.28433 47.724 9.2362 47.6759 10.0636 48.1985C14.3147 50.894 18.565 53.5849 22.8145 56.2712C23.3664 56.5785 23.8376 57.0121 24.1898 57.5365C25.0562 58.9507 25.9593 60.342 26.8463 61.7425C28.7579 64.7588 30.6726 67.7745 32.5903 70.7893C32.7118 70.9796 32.7576 71.4013 33.2023 71.1377C34.1191 70.5968 34.4698 69.7808 34.2291 68.7242C33.1679 64.0758 32.1227 59.4252 31.0454 54.7814C30.8368 53.8783 31.1394 53.2801 31.9095 52.8629C32.2602 52.6704 32.627 52.5076 32.9799 52.3197C36.2462 50.5846 39.3405 48.6317 41.9672 45.9591C47.3559 40.4765 52.8271 35.0717 58.264 29.6349C63.9025 23.9963 69.5426 18.3578 75.1842 12.7193C76.4769 11.4197 77.137 9.87021 77.1897 7.84171ZM61.8465 30.2836C61.6746 30.4417 61.4821 30.6044 61.3033 30.7832C58.8966 33.1876 56.5128 35.6127 54.074 37.9804C53.4964 38.542 53.4277 38.927 53.8448 39.6307C56.2997 43.7564 58.6949 47.9143 61.113 52.0607C63.9323 56.897 66.763 61.7264 69.5594 66.5788C69.9307 67.2206 70.1599 67.1541 70.5908 66.6727C71.1384 66.0502 71.7256 65.4638 72.3488 64.917C72.9035 64.4334 72.9792 63.9543 72.7523 63.2598C70.3074 55.7968 67.8816 48.3292 65.4749 40.857C64.4022 37.5426 63.3387 34.2259 62.266 30.9162C62.188 30.6961 62.2155 30.3844 61.8465 30.2836ZM41.7495 27.164C42.1185 27.164 42.2629 26.8913 42.4554 26.7056C44.9263 24.247 47.3926 21.783 49.8543 19.3136C50.5419 18.626 50.5305 18.626 49.6091 18.328C45.0463 16.855 40.4819 15.3804 35.9161 13.9043C29.7504 11.9079 23.5824 9.91835 17.4281 7.88985C16.658 7.63543 16.1468 7.75003 15.6311 8.34826C15.1089 8.95525 14.542 9.52223 13.935 10.0444C13.4101 10.5028 13.4628 10.732 14.0633 11.0713C23.1064 16.3171 32.1418 21.5759 41.1696 26.8477C41.3667 26.9623 41.5684 27.0655 41.7495 27.164Z" fill="#0AE02D"/>
<path d="M6.64826 75.4515C6.3772 75.4685 6.10716 75.4049 5.87221 75.2686C5.63725 75.1324 5.44791 74.9296 5.32803 74.6859C5.2005 74.4599 5.13949 74.2025 5.15207 73.9433C5.16464 73.6841 5.25028 73.4338 5.39909 73.2213C5.53433 73.0352 5.68791 72.8632 5.8575 72.7078C9.29105 69.2697 12.7292 65.8316 16.1719 62.3934C16.3666 62.1844 16.586 61.9997 16.8251 61.8433C17.4532 61.4697 18.0537 61.6027 18.5419 62.0978C19.0301 62.5928 19.1539 63.1934 18.7711 63.8168C18.6138 64.0552 18.4284 64.2738 18.2187 64.4678C14.8066 67.8876 11.3921 71.3043 7.97539 74.718C7.57428 75.1145 7.19149 75.5065 6.64826 75.4515Z" fill="#0AE02D"/>
<path d="M7.47812 57.9421C7.44882 58.3792 7.25465 58.7888 6.93488 59.0882C5.4817 60.5413 4.03997 62.0037 2.57991 63.4431C1.90375 64.1032 1.04652 64.1147 0.4437 63.5325C0.303437 63.3982 0.191809 63.2368 0.115556 63.0582C0.0393022 62.8795 0 62.6873 0 62.493C0 62.2988 0.0393022 62.1066 0.115556 61.9279C0.191809 61.7493 0.303437 61.5879 0.4437 61.4536C1.92668 59.911 3.44862 58.4051 4.97974 56.9084C5.18559 56.6836 5.46177 56.5355 5.76293 56.4884C6.06408 56.4413 6.37229 56.4981 6.63691 56.6494C6.87651 56.7743 7.07982 56.9589 7.22719 57.1853C7.37455 57.4118 7.46099 57.6725 7.47812 57.9421Z" fill="#0AE02D"/>
<path d="M18.1431 80.5995C17.8758 80.6171 17.6093 80.5545 17.3778 80.4198C17.1463 80.285 16.9602 80.0842 16.8435 79.8431C16.5616 79.3113 16.5616 78.736 16.965 78.3188C18.5488 76.6754 20.1533 75.0526 21.8036 73.4756C22.3766 72.9278 23.078 73.0608 23.6625 73.5788C23.9333 73.7995 24.1057 74.1183 24.1422 74.4658C24.1787 74.8132 24.0763 75.1609 23.8573 75.4331C23.4053 75.9841 22.9192 76.5062 22.4018 76.9963C21.4178 77.9911 20.4245 78.979 19.4221 79.96C19.0623 80.3244 18.6611 80.6636 18.1431 80.5995Z" fill="#0AE02D"/>
</svg>
