<svg width="44" height="44" viewBox="0 0 44 44" fill="none" xmlns="http://www.w3.org/2000/svg">
<path d="M15.0926 39.5182H29.4259C36.6284 39.5182 37.9184 36.6336 38.2947 33.122L39.6384 18.7886C40.1222 14.417 38.868 10.8516 31.2176 10.8516H13.3009C5.6505 10.8516 4.39633 14.417 4.88008 18.7886L6.22383 33.122C6.60008 36.6336 7.89009 39.5182 15.0926 39.5182Z" stroke="#84CD00" stroke-width="3" stroke-miterlimit="10" stroke-linecap="round" stroke-linejoin="round"/>
<path d="M15.0938 10.8503V9.41693C15.0938 6.24568 15.0937 3.68359 20.8271 3.68359H23.6938C29.4271 3.68359 29.4271 6.24568 29.4271 9.41693V10.8503" stroke="#84CD00" stroke-width="3" stroke-miterlimit="10" stroke-linecap="round" stroke-linejoin="round"/>
<path d="M25.8424 23.3932V25.1849C25.8424 25.2028 25.8424 25.2028 25.8424 25.2207C25.8424 27.1736 25.8245 28.7682 22.2591 28.7682C18.7116 28.7682 18.6758 27.1916 18.6758 25.2386V23.3932C18.6758 21.6016 18.6758 21.6016 20.4674 21.6016H24.0508C25.8424 21.6016 25.8424 21.6016 25.8424 23.3932Z" stroke="#84CD00" stroke-width="3" stroke-miterlimit="10" stroke-linecap="round" stroke-linejoin="round"/>
<path d="M39.55 19.8086C35.4112 22.8186 30.6812 24.6103 25.8438 25.2194" stroke="#84CD00" stroke-width="3" stroke-miterlimit="10" stroke-linecap="round" stroke-linejoin="round"/>
<path d="M5.45312 20.293C9.48437 23.0521 14.0352 24.7184 18.6756 25.238" stroke="#84CD00" stroke-width="3" stroke-miterlimit="10" stroke-linecap="round" stroke-linejoin="round"/>
</svg>
