<svg width="74" height="74" viewBox="0 0 74 74" fill="none" xmlns="http://www.w3.org/2000/svg">
<path d="M0.636574 73.98C0.135092 73.5943 -0.00377989 73.0889 7.76589e-05 72.464C0.0193654 67.3856 0.009724 62.309 0.0116528 57.2267C0.0116528 56.0984 0.291323 55.7859 1.39265 55.5969C2.33968 55.4368 3.28092 55.2458 4.22988 55.0858C4.62914 55.0202 4.77379 54.8254 4.79887 54.4126C5.02646 50.7698 5.26756 47.127 5.52216 43.4842C5.79219 39.6016 6.07957 35.7209 6.35346 31.8402C6.5039 29.7069 6.62156 27.5718 6.79322 25.4405C6.86459 24.5494 7.24648 24.2254 8.14336 24.1675C8.57433 24.1183 9.01051 24.1417 9.43371 24.2369C9.9487 24.3777 10.2804 24.6921 10.3422 25.2322C10.4058 25.8108 10.1493 26.266 9.61502 26.4222C9.14054 26.5611 9.03639 26.808 9.00938 27.2439C8.90716 28.8004 8.77986 30.3569 8.65642 31.9135C8.63134 32.2298 8.77793 32.3571 9.0711 32.359C11.0449 32.359 13.018 32.359 14.9905 32.359C15.3859 32.359 15.4766 32.1353 15.4534 31.7958C15.3512 30.3107 15.2605 28.8236 15.1506 27.3384C15.1159 26.8524 15.0079 26.4782 14.3463 26.4898C13.7542 26.4898 13.3819 26.0866 13.3144 25.4829C13.2893 25.345 13.292 25.2034 13.3223 25.0665C13.3526 24.9296 13.41 24.8001 13.491 24.6857C13.572 24.5712 13.6751 24.4741 13.7941 24.4001C13.9132 24.326 14.0458 24.2764 14.1843 24.2543C14.9367 24.0788 15.7194 24.0788 16.4718 24.2543C16.699 24.2982 16.9048 24.4171 17.0563 24.592C17.2077 24.7669 17.296 24.9876 17.307 25.2187C17.3976 26.1271 17.4863 27.0356 17.5442 27.946C17.7564 31.2056 17.9435 34.4672 18.1614 37.7287C18.3832 41.0346 18.6359 44.3406 18.8596 47.6484C18.8886 48.0747 19.0062 48.2637 19.473 48.1692C21.0044 47.858 22.5378 47.5642 24.0731 47.2877C24.5283 47.2067 24.6903 47.0138 24.7212 46.5336C24.9816 42.5063 25.2805 38.4809 25.5525 34.4556C25.7203 31.9617 25.8534 29.4678 26.0154 26.9739C26.144 24.9165 26.2899 22.8559 26.4532 20.7922C26.5072 20.1113 26.9431 19.658 27.6278 19.6522C30.3706 19.6291 33.1139 19.6291 35.8579 19.6522C36.5677 19.6522 36.9901 20.1518 37.0441 20.9503C37.2081 23.3478 37.3411 25.7452 37.5051 28.1427C37.7192 31.3059 37.9545 34.4672 38.1763 37.6304C38.2419 38.5658 38.7067 43.5536 38.7337 44.491C38.7588 45.2895 38.3152 45.8064 37.6459 45.8527C36.9477 45.9009 36.4346 45.4014 36.371 44.5817C36.2707 43.2894 35.7808 37.9409 35.7171 36.6467C35.6901 36.1278 35.4471 36.0102 34.9842 36.0121C32.8182 36.0275 30.6522 36.0353 28.4881 36.0121C27.9094 36.0121 27.7281 36.2899 27.6953 36.7836C27.5989 38.2938 27.5025 39.8041 27.3983 41.3143C27.2942 42.8245 27.2054 44.383 27.1013 45.9164C27.0588 46.495 27.2344 46.6879 27.8477 46.5664C32.28 45.6984 36.7162 44.8485 41.1563 44.0165C41.6944 43.9162 41.9143 43.6963 41.9104 43.1139C41.8853 39.4492 41.895 35.7999 41.8988 32.143C41.8988 30.8353 42.2749 30.4572 43.5634 30.4572C49.097 30.4572 54.6326 30.4341 60.1663 30.4785C61.0323 30.4785 61.3814 30.2104 61.609 29.4003C62.1433 27.5043 62.7662 25.6353 63.3815 23.7605C63.6786 22.8386 63.937 22.6573 64.8956 22.6573C67.4705 22.6573 70.0454 22.6669 72.6204 22.6476C73.199 22.6476 73.658 22.7923 73.984 23.2822V64.4519C73.1643 65.2581 72.331 65.262 71.8951 64.4654C71.7119 64.1259 71.7717 63.7595 71.7717 63.4046C71.7717 53.5164 71.7717 43.6288 71.7717 33.7419C71.7717 33.0534 71.5788 32.8374 70.8787 32.8393C62.2918 32.8586 53.7042 32.8586 45.116 32.8393C44.5239 32.8393 44.2577 32.9647 44.2577 33.6339C44.2744 46.0475 44.2744 58.4605 44.2577 70.8728C44.2577 71.4514 44.4332 71.6829 45.0389 71.6771C47.3245 71.652 49.6101 71.6482 51.8937 71.6771C52.5341 71.6771 52.7212 71.4591 52.7135 70.8361C52.6845 68.456 52.7 66.074 52.7019 63.6997C52.7019 62.2049 53.0549 61.8519 54.5825 61.848C56.8674 61.8403 59.153 61.8403 61.4392 61.848C62.9128 61.848 63.3044 62.2531 63.3063 63.7517C63.3063 66.1338 63.3179 68.5158 63.3063 70.8882C63.3063 71.4263 63.4548 71.6771 64.0392 71.6732C66.3731 71.6526 68.7069 71.6526 71.0407 71.6732C71.6193 71.6732 71.7948 71.4418 71.7698 70.9017C71.737 70.2305 71.7698 63.7652 71.7698 63.0902C71.7593 62.8968 71.8011 62.7042 71.8907 62.5325C71.9803 62.3608 72.1144 62.2163 72.279 62.1142C72.8074 61.7728 73.3244 61.9117 73.9821 62.5578C73.9821 64.3149 73.9724 71.8642 73.9821 73.6193C73.9821 73.9299 73.9223 74.0456 73.6117 73.9839C73.5155 73.9742 73.4186 73.9742 73.3224 73.9839L0.636574 73.98ZM22.071 71.6655H40.8342C41.8911 71.6655 41.8931 71.6655 41.8931 70.5796C41.8931 67.0924 41.8931 63.6052 41.8931 60.1179C41.8931 55.7647 41.8931 51.4095 41.8931 47.0563C41.8931 46.4584 41.7735 46.2539 41.108 46.4005C39.3027 46.7978 37.48 47.1103 35.6631 47.4575C28.3762 48.8539 21.0893 50.2478 13.8024 51.639C13.3973 51.7162 13.2238 51.9014 13.2238 52.3122C13.2373 53.0335 13.2238 53.7549 13.2238 54.4763C13.2238 55.5062 12.8766 55.9036 11.8601 56.0887C8.93223 56.623 6.00628 57.1766 3.07069 57.6722C2.43033 57.7803 2.2471 58.0271 2.25096 58.6559C2.27603 62.6485 2.26253 66.641 2.26253 70.6336C2.26253 71.6616 2.26253 71.6655 3.29828 71.6655H22.071ZM12.0414 41.5091H9.80404C7.93506 41.5091 7.97363 41.5091 7.88684 43.3762C7.80004 45.2934 7.62645 47.2067 7.50108 49.1239C7.39307 50.7029 7.28892 52.2839 7.18862 53.8668C7.16547 54.2217 7.13847 54.5631 7.69203 54.4454C8.58698 54.268 9.48772 54.1233 10.3923 53.9613C10.7781 53.8918 10.8784 53.6353 10.8726 53.2766C10.8591 52.6034 10.8726 51.9264 10.8726 51.2552C10.8726 50.0979 11.2082 49.7373 12.3616 49.5193C13.5651 49.2994 14.7648 49.0448 15.9684 48.8288C16.3329 48.7632 16.547 48.6359 16.5142 48.229C16.3857 46.2166 16.2654 44.2036 16.1536 42.19C16.1208 41.6383 15.8372 41.4667 15.3049 41.4821C14.2074 41.5361 13.1254 41.5149 12.0433 41.5149L12.0414 41.5091ZM60.9474 67.9642C60.9474 66.9304 60.9281 65.8965 60.9474 64.8646C60.9609 64.3535 60.7545 64.1954 60.2685 64.2031C58.7544 64.2243 57.2384 64.2204 55.7243 64.2031C55.2672 64.2031 55.0724 64.3593 55.0743 64.828C55.0872 66.8956 55.0872 68.9633 55.0743 71.0309C55.0743 71.4938 55.2672 71.6732 55.7262 71.6713C57.2403 71.6597 58.7544 71.6578 60.2685 71.6713C60.7623 71.6713 60.9571 71.4881 60.9455 70.9904C60.9243 69.9836 60.9474 68.9749 60.9474 67.9642ZM67.7483 30.4785C68.8766 30.4785 70.0049 30.465 71.1313 30.4785C71.5846 30.4785 71.7833 30.3415 71.7775 29.8593C71.7556 28.4693 71.7556 27.0774 71.7775 25.6835C71.7775 25.1743 71.5672 25.0104 71.0889 25.0142C69.4089 25.0277 67.729 25.0316 66.049 25.0142C65.5803 25.0142 65.3624 25.2071 65.2331 25.6372C64.8165 27.0144 64.3961 28.3915 63.9293 29.7532C63.7152 30.3801 63.9293 30.4977 64.5079 30.4823C65.5765 30.4572 66.6624 30.4785 67.7425 30.4785H67.7483ZM31.7766 27.2979C32.6639 27.2979 33.553 27.2728 34.4403 27.3076C35.0189 27.3307 35.1385 27.078 35.0961 26.5708C34.9861 25.2573 34.8897 23.9438 34.8222 22.6283C34.799 22.1982 34.6409 22.0304 34.2146 22.0324C32.5597 22.0439 30.9029 22.0324 29.2461 22.0324C28.9066 22.0324 28.7137 22.1423 28.6906 22.5223C28.6096 23.8377 28.5266 25.1531 28.3993 26.4647C28.3338 27.1552 28.6096 27.3423 29.2557 27.3056C30.087 27.2632 30.9299 27.2979 31.7708 27.2979H31.7766ZM12.0491 39.1406C13.1292 39.1406 14.2113 39.1252 15.2914 39.1406C15.7697 39.1502 15.9414 38.9477 15.9009 38.4964C15.8064 37.4471 15.708 36.3959 15.6482 35.3428C15.6231 34.8683 15.411 34.7372 14.9693 34.7391C13.0225 34.7545 11.077 34.7545 9.13282 34.7391C8.69306 34.7391 8.48669 34.8626 8.46161 35.3428C8.40954 36.3959 8.31117 37.4471 8.20894 38.4964C8.16265 38.967 8.33238 39.1483 8.80879 39.1387C9.88312 39.1271 10.9632 39.1406 12.0433 39.1406H12.0491ZM31.684 33.6571C32.7661 33.6571 33.8501 33.6571 34.9321 33.6571C35.287 33.6571 35.5647 33.6011 35.5262 33.1517C35.4432 32.17 35.3487 31.1902 35.2812 30.2084C35.2523 29.7687 35.0208 29.6394 34.6216 29.6394C32.6928 29.6472 30.7679 29.6472 28.8468 29.6394C28.4013 29.6394 28.1698 29.8439 28.1409 30.274C28.0792 31.1844 28.0425 32.0986 27.9712 33.0071C27.9287 33.5336 28.164 33.6725 28.652 33.6609C29.6569 33.6436 30.6657 33.659 31.6783 33.6571H31.684Z" fill="#0AE02D"/>
<path d="M45.7313 4.48823C45.7313 7.03614 44.1092 8.73153 41.5555 8.88969C41.4354 8.89933 41.3148 8.89933 41.1948 8.88969C39.9932 8.75661 39.0307 8.91284 38.3788 10.1974C37.8792 11.1811 36.8049 11.6536 35.6785 11.8079C35.0999 11.8889 34.8048 12.1107 34.8935 12.7376C34.9379 13.0443 34.8838 13.3644 34.9031 13.675C35.042 15.8217 33.4411 16.923 31.7901 16.9751C29.9115 17.0349 28.598 15.7638 28.488 13.8139C28.462 13.4054 28.462 12.9956 28.488 12.5872C28.5227 12.0992 28.2952 11.8754 27.84 11.8156C25.1011 11.5109 23.6507 8.65245 24.4202 5.97724C24.9429 4.15841 26.4339 3.06286 28.326 3.03393C28.3986 3.03008 28.4714 3.03008 28.544 3.03393C29.8189 3.14966 30.8585 3.05515 31.6146 1.66643C32.2646 0.468662 33.6012 -0.00774508 35.0227 -2.99776e-05C37.1154 0.00961389 39.2062 -2.99776e-05 41.299 -2.99776e-05C44.0455 0.017329 45.7371 1.73008 45.7313 4.48823ZM38.3229 2.382C37.2427 2.382 36.1607 2.36272 35.0787 2.382C33.9021 2.40708 33.2753 2.92013 32.957 4.05618C32.6388 5.19223 32.3784 5.37932 31.1787 5.40632C30.2143 5.42368 29.2499 5.40632 28.2971 5.43911C27.4041 5.47576 26.8196 5.98496 26.5361 6.80469C26.0848 8.11047 27.0723 9.4336 28.5613 9.55512C29.9751 9.67084 30.8411 10.5909 30.8566 12.0066C30.8566 12.5582 30.8681 13.1118 30.8566 13.6634C30.8431 14.2671 31.1324 14.6779 31.7149 14.703C32.2974 14.7281 32.5925 14.2652 32.6233 13.702C32.6542 13.1388 32.6368 12.5987 32.6388 12.0452C32.6388 10.6044 33.4566 9.70556 34.8838 9.5609C36.1549 9.42975 36.6911 8.96877 37.0344 7.70928C37.2794 6.81047 37.6266 6.53659 38.5774 6.52694C39.5631 6.5173 40.5487 6.53851 41.5343 6.5173C42.7012 6.49222 43.4804 5.65707 43.4823 4.46701C43.4823 3.23838 42.7687 2.43601 41.5728 2.39744C40.4869 2.355 39.4049 2.382 38.3229 2.382Z" fill="#0AE02D"/>
<path d="M5.88279 4.20469C6.83964 4.20072 7.77377 4.49611 8.55438 5.04949C9.33499 5.60286 9.92299 6.38653 10.236 7.29073C10.4289 7.82886 10.6951 7.97737 11.2274 7.9658C12.5969 7.93494 13.9663 7.94651 15.3376 7.9658C17.6734 7.98702 19.3514 9.56475 19.5809 11.9371C19.8105 14.3095 18.4237 16.3039 16.1709 16.7186C15.4669 16.8478 15.1505 17.1043 15.2605 17.8296C15.2837 18.1171 15.2837 18.4061 15.2605 18.6936C15.2412 20.6224 13.9566 21.9108 12.0375 21.907C10.1801 21.907 8.86467 20.6051 8.82803 18.7399C8.81645 18.1883 8.94761 17.5827 8.74895 17.1005C8.52135 16.5488 7.77106 16.7494 7.27729 16.5334C6.12003 16.03 5.22893 15.2662 4.7506 14.0954C4.66644 13.8638 4.53648 13.6516 4.36846 13.4713C4.20045 13.291 3.99783 13.1464 3.77271 13.0462C2.82752 12.5781 2.06906 11.8033 1.62134 10.8483C1.17362 9.89331 1.06312 8.81468 1.3079 7.78875C1.55268 6.76281 2.13826 5.85027 2.96892 5.20029C3.79958 4.55031 4.82617 4.20136 5.88086 4.21048L5.88279 4.20469ZM3.55669 8.85689C3.55669 10.0142 4.23368 10.8609 5.4546 11.1502C6.18946 11.3238 6.6543 11.6768 6.74495 12.4772C6.87996 13.648 7.6534 14.3558 8.84538 14.46C10.3479 14.5931 11.185 15.4996 11.2081 17.0233C11.2081 17.5287 11.2081 18.034 11.2081 18.5393C11.2216 19.2626 11.5302 19.6715 12.0664 19.6272C12.6971 19.5732 12.9035 19.1604 12.8862 18.5721C12.8707 18.0919 12.8862 17.6077 12.8862 17.1294C12.9112 15.4996 13.7695 14.5873 15.3936 14.46C16.5663 14.3674 17.3551 13.5149 17.3223 12.3673C17.2934 11.1753 16.4718 10.3478 15.2605 10.3363C13.648 10.3189 12.0356 10.3363 10.4251 10.3363C8.558 10.3363 8.51749 10.3054 8.14331 8.53286C8.12788 8.46149 8.11824 8.39013 8.10088 8.32069C7.8077 7.12678 6.77967 6.4575 5.47196 6.60408C4.40921 6.71788 3.56054 7.71892 3.55669 8.85689Z" fill="#0AE02D"/>
<path d="M58.0254 36.5387C60.862 36.5387 63.6999 36.5387 66.539 36.5387C67.7426 36.5387 68.1013 36.8878 68.1052 38.0662C68.1091 39.2447 68.1168 40.4232 68.1052 41.6017C68.0936 42.4542 67.6847 42.8766 66.8322 42.9518C66.5217 42.9769 66.2073 42.9634 65.8948 42.9634H49.7298C48.2311 42.9634 47.8415 42.5776 47.8338 41.0963C47.8338 40.1107 47.8222 39.1251 47.8338 38.1395C47.8492 36.9302 48.2446 36.5406 49.4385 36.5406C52.3021 36.5367 55.1644 36.5361 58.0254 36.5387ZM57.9367 40.5891C60.2512 40.5891 62.5561 40.5698 64.8649 40.6007C65.5033 40.6103 65.7675 40.4483 65.7579 39.7597C65.7463 39.1097 65.5496 38.8725 64.8822 38.8744C60.2647 38.8963 55.646 38.8963 51.0259 38.8744C50.3277 38.8744 50.1907 39.1521 50.185 39.7771C50.1792 40.402 50.3682 40.6122 51.0085 40.6026C53.3173 40.5659 55.626 40.5871 57.9367 40.5871V40.5891Z" fill="#0AE02D"/>
<path d="M52.4358 44.9153C53.5178 44.9153 54.5999 44.9037 55.6819 44.9153C56.5441 44.9269 56.9703 45.3435 56.9819 46.2018C56.9986 47.4748 56.9986 48.7484 56.9819 50.0227C56.9684 50.8289 56.5499 51.3053 55.7378 51.3169C53.5275 51.3516 51.3164 51.3516 49.1048 51.3169C48.3603 51.3073 47.8858 50.8328 47.8588 50.0767C47.8144 48.7806 47.8106 47.4806 47.8588 46.1844C47.8897 45.2933 48.3468 44.9192 49.2649 44.9114C50.3218 44.9076 51.3788 44.9153 52.4358 44.9153ZM52.3413 48.9657C52.8929 48.9657 53.4465 48.9426 53.9962 48.9657C54.6172 48.9985 54.6307 48.6089 54.6172 48.1691C54.6037 47.7294 54.7021 47.2607 54.0154 47.2703C52.9353 47.2819 51.8552 47.2703 50.7751 47.2703C50.5302 47.2703 50.3064 47.2973 50.2177 47.6059C49.9515 48.5298 50.2485 48.9561 51.1821 48.9561L52.3413 48.9657Z" fill="#0AE02D"/>
<path d="M63.5937 44.9153C64.6507 44.9153 65.7154 44.9153 66.7666 44.9153C67.6712 44.9269 68.0916 45.3377 68.1013 46.2404C68.1154 47.4877 68.1154 48.7369 68.1013 49.988C68.0897 50.8656 67.6461 51.3246 66.7511 51.3381C64.6115 51.3574 62.4731 51.3574 60.336 51.3381C59.4951 51.3381 59.0168 50.9003 58.9859 50.0555C58.9319 48.7594 58.93 47.4594 58.9859 46.1652C59.0206 45.3146 59.4912 44.9327 60.3534 44.923C61.4316 44.9057 62.5117 44.9153 63.5937 44.9153ZM63.5031 48.9658C64.0547 48.9658 64.6083 48.9503 65.1599 48.9658C65.7385 48.987 65.752 48.6051 65.7385 48.1942C65.725 47.7834 65.862 47.2684 65.1599 47.2684C64.0798 47.2684 62.9978 47.2819 61.9176 47.2684C61.2233 47.2569 61.3274 47.7333 61.3178 48.1615C61.3082 48.5896 61.2754 49.0043 61.9157 48.9677C62.4442 48.9388 62.9746 48.9619 63.5031 48.96V48.9658Z" fill="#0AE02D"/>
<path d="M63.6091 53.2901C64.6429 53.2901 65.6767 53.2901 66.7105 53.2901C67.6961 53.2997 68.0973 53.7067 68.1031 54.7077C68.1121 55.91 68.1121 57.1116 68.1031 58.3126C68.0915 59.2461 67.6633 59.7032 66.7414 59.711C64.6275 59.7303 62.5129 59.7303 60.3976 59.711C59.4873 59.711 59.0089 59.2635 58.9761 58.3396C58.9318 57.0917 58.9318 55.8322 58.9761 54.5901C59.007 53.7009 59.4738 53.2997 60.3649 53.2881C61.4469 53.2804 62.527 53.2901 63.6091 53.2901ZM63.4663 57.3405C64.045 57.3405 64.6236 57.3405 65.2022 57.3405C65.8059 57.3521 65.7481 56.9258 65.7404 56.5439C65.7326 56.162 65.8561 55.6644 65.2061 55.6625C64.0771 55.6625 62.9488 55.6625 61.8211 55.6625C61.7257 55.6483 61.6283 55.6664 61.5445 55.7139C61.4606 55.7614 61.395 55.8357 61.3582 55.9248C61.0264 56.7252 61.4064 57.3347 62.2493 57.3366L63.4663 57.3405Z" fill="#0AE02D"/>
<path d="M52.482 53.2901C53.5159 53.2901 54.5478 53.2805 55.5816 53.2901C56.5325 53.3017 56.9703 53.7164 56.9819 54.6403C56.9986 55.8901 56.9986 57.1393 56.9819 58.3879C56.9684 59.2307 56.5286 59.7014 55.6915 59.711C53.53 59.7329 51.3679 59.7329 49.2051 59.711C48.3795 59.711 47.8819 59.2385 47.8549 58.4187C47.8125 57.147 47.8125 55.874 47.8549 54.5997C47.8838 53.7125 48.3545 53.3036 49.2398 53.292C50.3199 53.2805 51.4 53.2901 52.482 53.2901ZM52.3355 57.3405C52.9141 57.3405 53.4927 57.329 54.0714 57.3405C54.65 57.3521 54.6346 56.9413 54.6191 56.5536C54.6037 56.1659 54.7541 55.6664 54.0984 55.6625C52.97 55.6625 51.8436 55.6625 50.7153 55.6625C50.6079 55.6453 50.4979 55.669 50.4072 55.729C50.3165 55.7891 50.2516 55.881 50.2254 55.9865C49.9534 56.9027 50.2582 57.3367 51.1898 57.3367L52.3355 57.3405Z" fill="#0AE02D"/>
<path d="M22.7268 61.3851H37.0827C37.3472 61.3741 37.6121 61.3825 37.8754 61.4102C38.1669 61.4374 38.4373 61.5742 38.632 61.7929C38.8267 62.0116 38.9313 62.2959 38.9247 62.5887C38.8957 63.229 38.5254 63.6013 37.914 63.7286C37.6767 63.765 37.4363 63.7773 37.1965 63.7652H8.19542C8.00237 63.772 7.80908 63.7662 7.61679 63.7479C6.91665 63.6572 6.50389 63.2078 6.50967 62.5578C6.51546 61.9078 6.94172 61.4738 7.64765 61.4005C7.88771 61.3835 8.12849 61.379 8.36901 61.387L22.7268 61.3851Z" fill="#0AE02D"/>
<path d="M35.9081 59.0127C35.3294 59.0127 34.7508 59.0224 34.1722 59.0127C33.3389 58.9954 32.8741 58.627 32.8375 57.8169C32.7834 56.5941 32.7931 55.3654 32.8375 54.1407C32.8331 53.9882 32.8589 53.8364 32.9134 53.6939C32.9679 53.5515 33.0501 53.4212 33.1551 53.3106C33.2602 53.2 33.386 53.1113 33.5255 53.0495C33.6649 52.9877 33.8152 52.9541 33.9677 52.9506C35.2376 52.8387 36.5149 52.8387 37.7848 52.9506C38.5891 53.0258 38.9247 53.4463 38.942 54.2506C38.9587 55.4079 38.9587 56.5619 38.942 57.7127C38.9266 58.5691 38.4926 58.9915 37.6459 59.0108C37.0615 59.0224 36.4848 59.0127 35.9081 59.0127ZM35.1983 55.9518C35.1076 56.5073 35.3815 56.6616 35.8946 56.6654C36.4578 56.6654 36.5716 56.3973 36.5773 55.9074C36.5831 55.4175 36.3652 55.2536 35.8849 55.2497C35.3622 55.242 35.1018 55.4001 35.1983 55.9518Z" fill="#0AE02D"/>
<path d="M20.4529 59.0127C19.8742 59.0127 19.2956 59.0224 18.717 59.0127C17.8857 58.9954 17.417 58.627 17.3823 57.8188C17.3302 56.5941 17.3379 55.3654 17.3823 54.1426C17.3776 53.99 17.4033 53.8379 17.4577 53.6953C17.5121 53.5526 17.5942 53.4221 17.6992 53.3113C17.8043 53.2005 17.9302 53.1116 18.0698 53.0497C18.2094 52.9878 18.3599 52.9541 18.5125 52.9506C19.7811 52.8387 21.0571 52.8387 22.3257 52.9506C23.1165 53.022 23.4714 53.4637 23.483 54.2525C23.5003 55.4098 23.5042 56.5671 23.483 57.7147C23.4675 58.5691 23.0278 58.9915 22.183 59.0108C21.6005 59.0224 21.0219 59.0127 20.4529 59.0127ZM21.099 55.892C21.2167 55.323 20.8598 55.2632 20.3834 55.2478C19.8665 55.2323 19.7296 55.4406 19.7257 55.9325C19.7257 56.4475 19.882 56.6693 20.4239 56.6654C20.9659 56.6616 21.1781 56.4494 21.099 55.892Z" fill="#0AE02D"/>
<path d="M28.1698 59.0108C27.5699 59.0108 26.9682 59.0262 26.3683 59.0108C25.5968 58.9877 25.157 58.573 25.1416 57.8034C25.1204 56.6018 25.1416 55.4001 25.1416 54.1985C25.1416 53.5292 25.4599 53.0682 26.1291 52.9872C27.4893 52.8297 28.863 52.8265 30.2239 52.9776C30.8315 53.0412 31.1613 53.4771 31.2076 54.0577C31.305 55.3275 31.305 56.603 31.2076 57.8728C31.1497 58.6443 30.6926 58.9954 29.896 59.0127C29.3155 59.0224 28.7465 59.0108 28.1698 59.0108ZM28.2373 55.2728C27.7782 55.1899 27.4831 55.3172 27.4909 55.8978C27.4909 56.3838 27.6046 56.6693 28.1698 56.6693C28.6153 56.6577 28.9181 56.5883 28.895 56.0405C28.8757 55.5949 28.9104 55.1803 28.2373 55.2728Z" fill="#0AE02D"/>
</svg>
