<svg width="44" height="44" viewBox="0 0 44 44" fill="none" xmlns="http://www.w3.org/2000/svg">
<path d="M15.0938 22.4609H27.6354" stroke="#84CD00" stroke-width="3" stroke-miterlimit="10" stroke-linecap="round" stroke-linejoin="round"/>
<path d="M15.0938 29.625H22.9413" stroke="#84CD00" stroke-width="3" stroke-miterlimit="10" stroke-linecap="round" stroke-linejoin="round"/>
<path d="M18.6771 11.3503H25.8437C29.4271 11.3503 29.4271 9.55859 29.4271 7.76693C29.4271 4.18359 27.6354 4.18359 25.8437 4.18359H18.6771C16.8854 4.18359 15.0938 4.18359 15.0938 7.76693C15.0938 11.3503 16.8854 11.3503 18.6771 11.3503Z" stroke="#84CD00" stroke-width="3" stroke-miterlimit="10" stroke-linecap="round" stroke-linejoin="round"/>
<path d="M29.4264 7.80469C35.3927 8.12719 38.3848 10.3309 38.3848 18.5189V29.2689C38.3848 36.4355 36.5931 40.0189 27.6348 40.0189H16.8848C7.92643 40.0189 6.13477 36.4355 6.13477 29.2689V18.5189C6.13477 10.3489 9.12685 8.12719 15.0931 7.80469" stroke="#84CD00" stroke-width="3" stroke-miterlimit="10" stroke-linecap="round" stroke-linejoin="round"/>
</svg>
