<svg width="25" height="25" viewBox="0 0 25 25" fill="none" xmlns="http://www.w3.org/2000/svg">
<path d="M19.2695 3.3197C20.2852 3.3197 21.1445 4.17908 21.1445 5.1947V18.9447C21.1445 19.9994 20.2852 20.8197 19.2695 20.8197H13.8789V14.8822H16.1445L16.5742 12.0697H13.8789V10.2728C13.8789 9.49158 14.2695 8.74939 15.4805 8.74939H16.6914V6.36658C16.6914 6.36658 15.5977 6.17126 14.5039 6.17126C12.3164 6.17126 10.8711 7.53845 10.8711 9.96033V12.0697H8.41016V14.8822H10.8711V20.8197H5.51953C4.46484 20.8197 3.64453 19.9994 3.64453 18.9447V5.1947C3.64453 4.17908 4.46484 3.3197 5.51953 3.3197H19.2695Z" fill="black"/>
</svg>
