<svg width="68" height="67" viewBox="0 0 68 67" fill="none" xmlns="http://www.w3.org/2000/svg">
<path d="M35.4662 66.9999H5.18413C3.85266 66.9999 3.42825 66.6826 3.52402 65.3548C3.84891 60.9266 2.81227 56.6561 2.13433 52.3443C1.6085 48.994 1.20662 45.6306 0.898636 42.254C0.572687 38.7108 0.441642 35.1524 0.506126 31.5947C0.571854 27.9665 0.88172 24.3571 1.30614 20.7552C1.82633 16.2481 2.58504 11.7766 3.40759 7.31459C3.70994 5.68264 3.48458 3.99625 3.49773 2.33425C3.51651 0.101359 3.60478 -6.10352e-05 5.8264 -6.10352e-05H49.1096C50.5669 -6.10352e-05 50.9425 0.306055 50.8599 1.76899C50.6477 5.4742 51.2355 9.09303 51.9153 12.7025C52.5482 16.1035 52.9501 19.5401 53.3144 22.9843C53.7577 27.2214 53.9377 31.4819 53.8533 35.7413C53.7801 39.6024 53.4308 43.4409 52.9745 47.2776C52.8975 47.9217 53.0289 48.256 53.7538 48.3856C56.5219 48.8814 58.5576 51.1518 58.8844 54.0702C58.8851 54.2638 58.9486 54.452 59.0655 54.6065C59.1823 54.7609 59.3461 54.8732 59.5323 54.9265C61.7089 55.8017 63.0854 57.3791 63.568 59.6928C63.6055 59.9079 63.6951 60.1106 63.829 60.2832C63.9629 60.4557 64.137 60.5928 64.3361 60.6825C66.1352 61.6384 67.1531 63.1727 67.4611 65.1727C67.6677 66.5117 67.232 66.9999 65.893 66.9999H35.47H35.4662ZM51.0533 44.7818C51.381 42.4088 51.5778 40.0195 51.643 37.6249C51.8504 32.1964 51.6325 26.76 50.9913 21.3655C50.473 17.1157 49.8345 12.8884 49.0402 8.68175C48.935 8.11836 48.7152 7.9531 48.1669 7.9531C34.1823 7.96436 20.1959 7.96436 6.20761 7.9531C5.64422 7.9531 5.43954 8.1409 5.33438 8.68551C4.6677 12.1785 4.11558 15.6884 3.64421 19.2134C3.19162 22.5937 2.83856 25.9984 2.71837 29.4088C2.52804 34.3228 2.695 39.2441 3.21791 44.1339C3.74124 48.8789 4.44422 53.595 5.32686 58.2824C5.43766 58.8627 5.66114 59.0505 6.2433 59.0505C13.6938 59.0343 21.143 59.0343 28.591 59.0505C29.1168 59.0505 29.3835 58.8796 29.5882 58.3951C30.2305 56.8608 31.3084 55.6777 32.8671 55.1012C33.6578 54.8082 33.8474 54.35 33.9488 53.6288C34.3244 51.0429 36.347 48.8795 38.8879 48.4081C39.4513 48.3011 39.7105 48.0757 39.902 47.548C40.9274 44.7311 43.4457 43.0184 46.441 43.0109C48.1612 43.009 49.6298 43.6494 51.0514 44.7818H51.0533ZM51.7557 64.8384H64.338C65.1925 64.8384 65.2639 64.7163 64.8131 63.9839C64.3546 63.2093 63.6317 62.6264 62.7774 62.3426C61.7107 61.9839 61.5699 61.7792 61.5248 60.6881C61.4829 59.7693 61.1419 58.8893 60.5537 58.1821C59.9655 57.4749 59.1624 56.9793 58.2666 56.7707C56.7304 56.4289 56.7116 56.4064 56.736 54.8927C56.7773 52.2429 55.0778 50.4795 52.4167 50.4082C51.5735 50.3875 51.2449 50.1133 51.0909 49.2814C50.843 47.9349 50.2345 46.81 49.0965 46.01C46.5519 44.224 42.3865 45.2588 41.6485 49.2382C41.4851 50.1208 41.1734 50.4476 40.3621 50.4025C38.1668 50.2823 35.7517 52.1603 36.0034 55.1556C36.0973 56.2824 35.8325 56.5585 34.7207 56.7425C33.7645 56.8998 32.8925 57.384 32.2535 58.1124C31.6144 58.8408 31.2479 59.7684 31.2164 60.7369C31.1826 61.7529 31.0173 61.997 30.0596 62.3182C29.1317 62.6071 28.35 63.2409 27.8755 64.0891C27.5 64.737 27.5713 64.8403 28.3018 64.8403C30.6455 64.8403 32.9873 64.8271 35.331 64.8534C35.8944 64.8534 36.1348 64.6656 36.3583 64.1473C37.1358 62.3595 38.5161 61.3661 40.4898 61.2684C41.209 61.2327 41.6898 61.6158 41.7461 62.2074C41.8025 62.7989 41.3705 63.2553 40.6663 63.3342C39.9996 63.4187 39.3818 63.6083 38.9029 64.1079C38.7452 64.2713 38.4728 64.4365 38.5517 64.6713C38.6437 64.9454 38.9611 64.8177 39.1771 64.8177C43.3687 64.8353 47.5622 64.8422 51.7576 64.8384H51.7557ZM27.1807 5.79908H43.5509C45.0532 5.79908 46.5556 5.78781 48.0467 5.79908C48.5181 5.79908 48.7359 5.64697 48.7134 5.14931C48.6871 4.49391 48.7134 3.83475 48.7134 3.18122C48.7134 2.16148 48.7134 2.15959 47.6561 2.15959H6.6865C6.57007 2.15959 6.45176 2.15959 6.33532 2.15959C5.83203 2.11264 5.60668 2.30983 5.63297 2.84129C5.66489 3.51924 5.63297 4.19905 5.63297 4.87888C5.63297 5.79157 5.63296 5.79532 6.5832 5.79532L27.1807 5.79908ZM27.3854 61.3623C27.115 61.1276 26.8708 61.2083 26.6511 61.2083C24.9872 61.2083 23.3252 61.2083 21.6632 61.2083H6.91185C5.46394 61.2083 5.65737 61.1351 5.64422 62.5097C5.64422 62.9792 5.64422 63.4487 5.64422 63.9163C5.64422 64.8403 5.64422 64.844 6.5832 64.844H24.4238C24.6116 64.844 24.7994 64.844 24.9872 64.8328C25.082 64.836 25.1749 64.806 25.25 64.7481C25.325 64.6902 25.3776 64.6079 25.3985 64.5154C25.727 63.2878 26.4197 62.1885 27.3854 61.3623Z" fill="#0AE02D"/>
<path d="M41.4908 33.5047C41.6485 41.4259 35.1057 48.8044 26.1309 48.7161C18.0407 48.6335 11.096 42.2372 11.096 33.5047C11.096 24.5956 18.3355 18.1918 26.4952 18.2932C34.9949 18.3814 41.6316 25.4125 41.4908 33.5047ZM26.315 46.5508C28.0377 46.5705 29.7471 46.2455 31.3424 45.5948C32.9377 44.9442 34.3868 43.9811 35.6045 42.7623C36.8221 41.5434 37.7837 40.0933 38.4327 38.4973C39.0817 36.9014 39.4051 35.1917 39.3837 33.469C39.3555 25.5928 32.9292 20.3796 26.238 20.4453C22.8144 20.5124 19.5542 21.9221 17.1602 24.3704C14.7663 26.8188 13.4302 30.1098 13.4401 33.5341C13.4499 36.9583 14.8049 40.2416 17.2129 42.6762C19.6209 45.1107 22.8892 46.5016 26.3131 46.549L26.315 46.5508Z" fill="#0AE02D"/>
<path d="M13.603 12.7344C12.3392 12.7344 11.0753 12.7344 9.81142 12.7344C8.9438 12.7344 8.44614 12.325 8.44614 11.6583C8.44614 10.9916 8.96634 10.571 9.81894 10.5653C12.3467 10.5541 14.8744 10.5541 17.4021 10.5653C18.2622 10.5653 18.7336 11.0029 18.7167 11.6921C18.6998 12.3813 18.2453 12.7231 17.4021 12.7306C16.1326 12.7475 14.8688 12.7344 13.603 12.7344Z" fill="#0AE02D"/>
<path d="M22.73 12.725C22.3547 12.7459 21.9785 12.7459 21.6032 12.725C21.0398 12.6611 20.6474 12.3494 20.5985 11.7447C20.5459 11.0987 20.9159 10.6818 21.5074 10.6179C22.3194 10.5411 23.1368 10.5411 23.9488 10.6179C24.0856 10.6206 24.2204 10.6522 24.3441 10.7108C24.4678 10.7694 24.5776 10.8536 24.6664 10.9578C24.7552 11.062 24.8208 11.1838 24.859 11.3153C24.8971 11.4467 24.9069 11.5848 24.8878 11.7203C24.8521 12.3682 24.4465 12.6743 23.8436 12.7306C23.4681 12.7663 23.0925 12.7306 22.7169 12.7306L22.73 12.725Z" fill="#0AE02D"/>
<path d="M45.5792 51.8711C46.3661 51.8711 46.8468 52.1941 46.9201 52.8101C46.9933 53.426 46.5727 53.8167 45.7933 53.9744C44.336 54.2655 43.8346 54.7857 43.5848 56.2749C43.4684 56.9641 43.0101 57.3623 42.3979 57.304C41.8345 57.2496 41.4383 56.7669 41.4289 56.1228C41.3876 53.9838 43.4346 51.8955 45.5792 51.8711Z" fill="#0AE02D"/>
<path d="M51.9002 56.504C54.0129 56.5397 55.9773 58.551 55.9622 60.6675C55.9622 61.3605 55.5679 61.8487 54.9744 61.9051C54.8334 61.9145 54.692 61.8955 54.5584 61.8493C54.4248 61.803 54.3019 61.7305 54.1969 61.636C54.0918 61.5414 54.0068 61.4268 53.9468 61.2988C53.8868 61.1709 53.8531 61.0322 53.8477 60.891C53.7049 59.3886 52.8618 58.7088 51.4383 58.5454C51.3031 58.5325 51.172 58.492 51.0531 58.4263C50.9343 58.3606 50.8303 58.2712 50.7475 58.1636C50.6647 58.0559 50.6049 57.9324 50.5719 57.8007C50.5389 57.669 50.5334 57.5319 50.5556 57.398C50.6308 56.7745 51.0495 56.4928 51.9002 56.504Z" fill="#0AE02D"/>
<path d="M27.4681 34.8587C28.6869 33.7544 29.9414 33.007 31.425 32.7065C31.858 32.6085 32.2972 32.5401 32.7396 32.5018C33.7048 32.4398 34.1706 32.9018 34.1725 33.8727C34.1725 37.0653 31.6954 40.2334 28.5048 41.1216C27.4137 41.4259 27.4156 41.4259 27.4118 42.5395C27.4234 42.8671 27.4153 43.1951 27.3874 43.5217C27.3085 44.1827 26.8615 44.6203 26.3132 44.6165C25.7273 44.6165 25.2803 44.1358 25.2446 43.4447C25.2202 42.9768 25.2202 42.5079 25.2446 42.04C25.269 41.563 25.0944 41.3602 24.6061 41.2325C21.2746 40.363 19.2276 38.2277 18.5704 34.8474C18.2361 33.1272 18.5403 32.207 20.668 32.5938C22.3726 32.8785 23.9453 33.6895 25.1657 34.9131C25.2615 34.1732 25.3179 33.5873 24.8521 32.9694C23.774 31.5492 23.2139 29.8029 23.2648 28.0205C23.3157 26.2381 23.9745 24.5267 25.1319 23.1702C26.0127 22.1223 26.6343 22.1242 27.5076 23.1702C29.8813 26.036 30.0222 29.9309 27.8099 32.9056C27.378 33.4915 27.3874 34.0605 27.4681 34.8587ZM25.4437 28.2858C25.4011 29.2123 25.6135 30.1327 26.0578 30.9469C26.2362 31.2962 26.3902 31.2981 26.5648 30.9469C27.4325 29.1985 27.455 27.4445 26.608 25.6886C26.5442 25.5552 26.4991 25.3299 26.2887 25.3844C26.1798 25.4125 26.0784 25.5609 26.0202 25.6773C25.6052 26.4788 25.4064 27.3746 25.4437 28.2764V28.2858ZM31.5564 34.8906C31.5303 34.9012 31.5033 34.9094 31.4757 34.915C30.0297 35.1197 27.9282 37.1986 27.6447 38.6709C27.562 39.101 27.7667 39.0934 28.0691 39.0277C29.5715 38.7028 31.5339 36.6972 31.7855 35.2324C31.8212 35.0202 31.8513 34.8474 31.5564 34.8812V34.8906ZM20.8051 34.8061C21.0474 36.6728 22.8991 38.6859 24.5892 39.0465C25.0568 39.1479 25.07 38.9376 24.9498 38.6014C24.2455 36.6296 22.8878 35.3807 20.8051 34.7967V34.8061Z" fill="#0AE02D"/>
</svg>
