<svg width="67" height="66" viewBox="0 0 67 66" fill="none" xmlns="http://www.w3.org/2000/svg">
<path d="M33.0031 65.9748C24.546 65.9748 16.0889 65.9269 7.62817 65.9997C4.30636 66.0281 0.693529 63.6929 0.0919831 59.6542C-0.658619 54.6253 3.31621 51.0373 7.21827 51.0107C8.83482 51.0001 10.4514 50.9894 12.0679 51.0107C12.618 51.0213 12.7901 50.8421 12.7777 50.292C12.7564 46.8158 12.7777 43.3414 12.7599 39.8652C12.7599 39.2956 12.822 38.7633 13.1326 38.2789C14.5522 36.0696 15.2069 33.6883 14.9071 31.0443C14.8059 30.1323 15.262 29.7525 16.174 29.7507C20.3145 29.7507 24.4549 29.7507 28.5953 29.7507C29.4826 29.7507 29.8375 30.1287 29.857 31.0035C29.8596 31.0253 29.8596 31.0474 29.857 31.0692C29.5021 33.6847 30.1941 36.0483 31.5995 38.238C31.9225 38.742 31.9935 39.2939 31.9917 39.8865C31.9757 43.3184 31.9917 46.7502 31.9704 50.1785C31.9704 50.8066 32.1283 51.0373 32.7831 51.0107C34.1885 50.9539 34.0128 51.1456 34.0252 49.7508C34.0252 46.4314 34.0252 43.1113 34.0252 39.7907C33.9949 39.258 34.1247 38.7284 34.3979 38.27C35.8174 36.0625 36.4687 33.6794 36.1723 31.0372C36.0712 30.1269 36.5272 29.749 37.4446 29.7472C41.5851 29.7472 45.7255 29.7472 49.866 29.7472C50.7408 29.7472 51.1081 30.1269 51.124 31.0035C51.1258 31.0254 51.1258 31.0473 51.124 31.0692C50.7691 33.6865 51.4647 36.0483 52.8701 38.238C53.154 38.7153 53.2887 39.2665 53.257 39.8209C53.2428 43.2971 53.257 46.7715 53.2392 50.2477C53.2392 50.8226 53.3936 51.0213 53.9863 51.0072C55.5354 50.9717 57.0863 50.9912 58.6354 50.9965C62.399 51.0089 65.7208 54.061 65.9994 57.6809C66.3543 62.2449 63.1603 65.4372 59.4978 65.9322C59.1008 65.969 58.7019 65.9791 58.3036 65.9624C49.8713 65.9731 41.4378 65.9772 33.0031 65.9748ZM32.9783 63.7585H57.1466C57.832 63.7718 58.5175 63.7362 59.1979 63.6521C61.2208 63.361 62.6315 62.2467 63.3644 60.3781C64.0972 58.5096 63.8044 56.7653 62.5605 55.1985C61.3574 53.6848 59.6983 53.2199 57.844 53.2199C41.4881 53.2199 25.1327 53.2199 8.77803 53.2199C8.1366 53.2155 7.49547 53.2493 6.85805 53.3211C4.61866 53.5872 2.67916 55.4504 2.36331 57.5798C1.92679 60.5236 3.69771 62.6104 5.60705 63.3468C6.44271 63.6424 7.32599 63.7802 8.21197 63.7532C16.4704 63.7638 24.7258 63.7656 32.9783 63.7585ZM20.2642 40.4739C18.7612 40.4739 17.2476 40.4952 15.7553 40.4615C15.191 40.449 14.9798 40.5963 14.9851 41.1996C15.0135 44.2269 15.0082 47.2559 14.9851 50.2849C14.9851 50.8173 15.1164 51.0231 15.6949 51.0196C18.7452 50.9947 21.7956 51.0001 24.8459 51.0196C25.3463 51.0196 25.5557 50.8971 25.5557 50.3524C25.532 47.2766 25.532 44.2038 25.5557 41.134C25.5557 40.5857 25.3498 40.4597 24.8459 40.4686C23.3145 40.4881 21.7991 40.4739 20.2642 40.4739ZM41.5863 40.4739C40.0389 40.4739 38.4916 40.4881 36.9442 40.465C36.4492 40.465 36.2344 40.5768 36.2344 41.1287C36.2575 44.2003 36.2522 47.2737 36.2344 50.347C36.2344 50.8155 36.3498 51.0196 36.8626 51.016C39.9585 50.9983 43.0537 50.9983 46.1484 51.016C46.6541 51.016 46.7855 50.8279 46.7837 50.3524C46.7683 47.2766 46.7683 44.2038 46.7837 41.134C46.7837 40.591 46.5885 40.4561 46.0845 40.465C44.594 40.4899 43.0928 40.4739 41.5863 40.4739ZM27.7454 45.2082C27.7454 46.7324 27.7454 48.2567 27.7454 49.781C27.7454 51.1598 27.5786 50.9628 28.9875 51.0231C29.66 51.0515 29.7896 50.7889 29.7842 50.1803C29.7594 47.0217 29.7328 43.8614 29.7949 40.7028C29.8144 39.6984 29.3619 38.9283 28.9627 38.1014C28.8739 37.924 28.7125 37.7767 28.5882 38.0482C28.2493 38.8006 27.701 39.4678 27.7259 40.3727C27.7809 41.9822 27.7489 43.5952 27.7489 45.2082H27.7454ZM51.0318 45.2082C51.0318 43.6839 50.9768 42.1579 51.0513 40.6371C51.101 39.6505 50.6006 38.9106 50.2191 38.1014C50.1321 37.9151 49.9689 37.782 49.8464 38.0517C49.5075 38.8059 48.9752 39.4713 48.9858 40.3763C49.0177 43.4692 48.9858 46.5621 49.0018 49.655C49.0018 51.1899 48.7551 50.9752 50.3823 51.0213C50.9413 51.0373 51.046 50.7995 51.0389 50.3116C51.0229 48.6081 51.0353 46.9117 51.0353 45.2046L51.0318 45.2082ZM22.351 34.0059C23.6978 34.0059 25.0446 34.0059 26.3914 34.0059C27.811 33.9971 27.6141 34.1922 27.6708 32.7336C27.6957 32.0966 27.4579 31.9564 26.8706 31.9617C24.0651 31.9884 21.2597 31.9617 18.456 31.9777C16.9495 31.9777 17.1606 31.7541 17.1127 33.3139C17.095 33.8853 17.315 34.0237 17.8456 34.0237C19.3468 33.9882 20.848 34.0059 22.351 34.0059ZM43.5701 34.0059C44.94 34.0059 46.3081 34.0059 47.678 34.0059C49.0479 34.0059 48.8651 34.1745 48.9201 32.7638C48.9468 32.1019 48.7019 31.9529 48.0844 31.96C45.302 31.9884 42.5196 31.96 39.7444 31.9759C38.197 31.9759 38.4153 31.7311 38.3691 33.3476C38.3532 33.8924 38.5679 34.0237 39.0683 34.0148C40.5659 33.99 42.0689 34.0059 43.5701 34.0059ZM21.721 36.2222C20.5712 36.2222 19.4142 36.3269 18.2786 36.1939C17.0471 36.0501 16.4171 36.531 16.0161 37.6312C15.8209 38.1635 15.8848 38.2682 16.4313 38.2647C19.0806 38.2469 21.7317 38.2647 24.381 38.2647C25.978 38.2647 25.9673 38.2647 26.6576 36.7919C26.8723 36.3323 26.7712 36.2187 26.2921 36.224C24.7678 36.2329 23.2435 36.2222 21.721 36.2222ZM42.9757 36.2222C41.8258 36.2222 40.6689 36.3269 39.5332 36.1939C38.3053 36.0519 37.6682 36.5239 37.269 37.6294C37.0791 38.1617 37.127 38.2682 37.6806 38.2647C40.3299 38.2469 42.981 38.2647 45.632 38.2647C47.2291 38.2647 47.2184 38.2647 47.9087 36.7936C48.1216 36.3411 48.0311 36.2187 47.5538 36.224C46.0224 36.2329 44.4982 36.2222 42.9757 36.2222Z" fill="#0AE02D"/>
<path d="M49.0338 6.50161H17.1607C17.0844 6.76068 17.3133 6.8565 17.434 6.97716C18.1828 7.76326 18.9352 8.54403 19.7017 9.3106C20.23 9.81684 20.6569 10.4191 20.9598 11.0851C21.0022 11.2107 21.0665 11.3278 21.1497 11.4311C21.5046 11.786 23.634 11.55 23.9125 11.1454C24.7536 9.8802 25.9976 9.32657 27.3817 9.60338C28.7001 9.86601 29.6618 10.897 29.9369 12.3378C30.1587 13.5037 29.543 14.8736 28.4002 15.5567C28.2059 15.6527 28.0464 15.8068 27.9437 15.9976C27.841 16.1884 27.8002 16.4064 27.827 16.6214C27.8643 17.5512 27.8767 18.4811 27.8519 19.4109C27.8288 19.615 27.8699 19.8212 27.9694 20.0009C28.069 20.1806 28.222 20.3248 28.4073 20.4135C29.3939 21.0044 30.3326 21.6751 31.2979 22.3015C31.809 22.6333 31.9509 23.0894 32.0219 23.6927C32.2189 25.3483 31.7256 26.617 30.3965 27.6764C29.2892 28.5636 29.653 28.6488 28.6397 27.648C27.8253 26.8424 27.8359 27.0163 28.6397 26.1912C28.9343 25.8913 29.2448 25.6056 29.527 25.3039C29.6297 25.1979 29.7077 25.0703 29.7551 24.9305C29.8026 24.7906 29.8184 24.642 29.8014 24.4953C29.7844 24.3486 29.7351 24.2075 29.6569 24.0822C29.5788 23.9569 29.4738 23.8506 29.3495 23.7708C28.8935 23.4549 28.4286 23.155 27.969 22.8481C27.0126 22.2128 26.2566 22.2163 25.2878 22.864C24.8477 23.1586 24.4076 23.4543 23.9676 23.7513C23.3554 24.1683 23.2862 24.8159 23.8096 25.366C24.2071 25.783 24.6117 26.1929 25.0305 26.5869C25.5043 27.0323 25.0731 27.3144 24.8016 27.4652C24.3544 27.7137 24.2355 28.7695 23.4636 28.175C22.7645 27.6427 22.1966 26.9435 21.5756 26.3136C21.48 26.2203 21.4048 26.1084 21.3544 25.9847C21.304 25.8611 21.2796 25.7284 21.2828 25.5949C21.2828 25.5506 21.2828 25.5062 21.2828 25.4618C21.3413 22.2891 20.8196 23.1373 23.3944 21.3806C23.9965 20.9689 24.6135 20.5803 25.2452 20.2147C25.3347 20.1769 25.4106 20.1126 25.4626 20.0304C25.5146 19.9483 25.5403 19.8523 25.5362 19.7551C25.5362 18.5822 25.5273 17.4075 25.5362 16.2346C25.5409 16.1143 25.5097 15.9954 25.4465 15.893C25.3832 15.7906 25.2909 15.7093 25.1813 15.6597C24.6104 15.3543 24.1475 14.8802 23.8558 14.3022C23.8004 14.1571 23.6963 14.0358 23.5613 13.9591C23.4263 13.8823 23.2688 13.855 23.1158 13.8816C23.0732 13.8816 23.0271 13.8816 22.9827 13.8816C21.5401 13.8639 21.5401 13.8639 20.9758 15.1628C19.5846 18.3693 15.443 19.221 12.9605 16.7598C9.67773 13.5019 6.44464 10.1943 3.20091 6.88844C2.84601 6.53355 2.47693 6.45724 2.01734 6.45902C0.131072 6.46789 0.0334778 6.36142 0.0334778 4.46806C0.0334778 3.38386 0.0334778 2.29965 0.0334778 1.21545C0.0334778 0.384998 0.42386 0.0123603 1.26319 -6.10352e-05C1.90555 -6.10352e-05 2.5479 -6.10352e-05 3.18848 -6.10352e-05H64.3439C65.7635 -6.10352e-05 66.003 0.241268 66.003 1.65552C66.003 2.84974 66.003 4.04574 66.003 5.23996C66.003 6.07573 65.6073 6.52645 64.7804 6.44482C63.6767 6.33481 62.9439 6.77842 62.2004 7.55387C59.3204 10.5563 56.3446 13.4593 53.4628 16.467C50.5083 19.5582 45.7137 18.1776 44.7999 14.3661C44.7803 14.2576 44.7386 14.1543 44.6774 14.0626C44.4184 13.745 42.4629 13.8355 42.2659 14.1957C41.9365 14.8275 41.4303 15.3498 40.8091 15.6987C40.7117 15.7503 40.631 15.8286 40.5766 15.9245C40.5222 16.0204 40.4964 16.1298 40.5021 16.2399C40.456 17.2088 40.3708 18.0978 41.5863 18.5858C42.4895 18.9495 43.2561 19.6505 44.0848 20.2076C44.3019 20.3399 44.4796 20.5281 44.5991 20.7526C44.7187 20.977 44.7758 21.2294 44.7644 21.4835C44.7786 23.8772 44.7928 23.8772 43.1053 25.5648C42.2642 26.4041 42.2642 26.4041 41.4106 25.5488C41.3072 25.4329 41.1963 25.3239 41.0788 25.2223C40.6973 24.9242 40.7629 24.6633 41.0965 24.3652C41.4745 24.0263 41.8241 23.6554 42.179 23.2899C42.761 22.6866 42.7007 22.0478 42.0175 21.5811C41.5774 21.283 41.1303 20.992 40.692 20.6938C39.8047 20.0994 38.9956 20.0958 38.1225 20.6814C37.6612 20.9884 37.2051 21.3007 36.7473 21.6112C36.1014 22.0495 36.0375 22.6901 36.5983 23.2686C36.9815 23.6661 37.3702 24.0636 37.773 24.4415C38.0427 24.6935 38.0303 24.8816 37.773 25.1513C36.5912 26.4644 36.6586 26.3934 35.349 25.2631C34.295 24.3475 33.9188 23.3343 33.9898 21.9608C34.0377 21.0097 34.295 20.3869 35.1219 19.9131C36.0411 19.3807 36.8964 18.7455 37.7836 18.1776C38.0374 18.0179 38.1758 17.8458 38.1616 17.5441C38.1465 17.3011 38.15 17.0573 38.1722 16.8148C38.2414 16.2151 38.087 15.814 37.505 15.4627C36.9652 15.1268 36.541 14.6337 36.2895 14.0498C36.038 13.4659 35.9711 12.8189 36.0979 12.1959C36.4048 10.8047 37.2548 9.91924 38.6318 9.59983C40.0088 9.28043 41.2935 9.86068 42.0565 11.0815C42.289 11.4559 42.5552 11.6139 42.9704 11.5713C43.0363 11.5615 43.1032 11.5615 43.1691 11.5713C44.2533 11.7487 44.9436 11.4684 45.499 10.3611C46.1609 9.04088 47.5113 8.20865 48.4748 7.08363C48.631 6.93458 48.7818 6.77842 49.0338 6.50161ZM33.0919 2.2198H3.28076C3.05895 2.2198 2.83714 2.2198 2.61711 2.2198C2.4787 2.2198 2.32077 2.25529 2.29415 2.39725C2.20011 2.94379 2.13622 3.52227 2.30834 4.03509C2.4432 4.43789 2.93651 4.2356 3.26301 4.23738C23.0886 4.24448 42.9148 4.24448 62.7416 4.23738H63.3396C63.4726 4.23738 63.6536 4.23738 63.6945 4.10962C63.8555 3.55673 63.8641 2.97059 63.7193 2.41322C63.6253 2.04236 63.187 2.21448 62.8942 2.21271C52.9618 2.21389 43.0278 2.21625 33.0919 2.2198ZM5.97263 6.47854C8.90406 9.45255 11.6722 12.3095 14.5007 15.106C14.7541 15.3555 15.0543 15.5525 15.3839 15.6858C15.7136 15.8191 16.0663 15.886 16.4219 15.8827C16.7775 15.8794 17.1289 15.8059 17.456 15.6666C17.7832 15.5272 18.0796 15.3247 18.3283 15.0705C19.3735 14.0059 19.3806 12.3343 18.3088 11.1862C17.4357 10.2475 16.4314 9.41174 15.6471 8.41094C14.4244 6.8423 12.9552 6.22479 10.9624 6.44305C9.37784 6.60808 7.75243 6.46967 5.97263 6.46967V6.47854ZM59.9166 6.54242C59.8607 6.51431 59.8009 6.49458 59.7392 6.48386C57.3945 6.48386 55.0498 6.48386 52.7052 6.48386C52.6057 6.47631 52.5058 6.48979 52.412 6.52342C52.3181 6.55705 52.2324 6.61008 52.1604 6.67905C50.5811 8.29028 48.8989 9.80745 47.4509 11.5376C46.7412 12.3858 46.7234 13.4291 47.2309 14.4104C47.7135 15.3456 48.5085 15.83 49.5892 15.8602C50.6201 15.8921 51.3353 15.3669 52.0078 14.6819C54.5169 12.1231 57.0307 9.56908 59.5493 7.01975C59.677 6.86892 59.8634 6.766 59.9095 6.53355L59.9166 6.54242ZM26.734 11.841C26.5422 11.835 26.353 11.8863 26.1904 11.9881C26.0279 12.09 25.8993 12.2379 25.821 12.4131C25.7427 12.5882 25.7183 12.7827 25.7509 12.9718C25.7835 13.1608 25.8715 13.3359 26.0039 13.4748C26.1362 13.6137 26.3069 13.7101 26.4942 13.7517C26.6815 13.7933 26.8769 13.7783 27.0556 13.7085C27.2343 13.6387 27.3883 13.5174 27.4978 13.3599C27.6074 13.2024 27.6676 13.0159 27.6709 12.8241C27.6759 12.6963 27.6552 12.5689 27.61 12.4493C27.5648 12.3298 27.4961 12.2205 27.4079 12.128C27.3197 12.0355 27.2138 11.9616 27.0965 11.9108C26.9792 11.86 26.8529 11.8332 26.7251 11.8321L26.734 11.841ZM40.2874 12.7903C40.2849 12.6628 40.2571 12.537 40.2057 12.4203C40.1542 12.3035 40.0802 12.1982 39.9878 12.1102C39.8954 12.0223 39.7865 11.9535 39.6673 11.9079C39.5482 11.8623 39.4212 11.8408 39.2937 11.8445C39.1669 11.8472 39.0419 11.8748 38.9258 11.9258C38.8097 11.9768 38.7048 12.0502 38.6171 12.1417C38.5293 12.2332 38.4605 12.3412 38.4144 12.4593C38.3684 12.5774 38.3461 12.7035 38.3488 12.8303C38.3515 12.957 38.3791 13.082 38.4301 13.1981C38.481 13.3142 38.5544 13.4191 38.6459 13.5069C38.7375 13.5946 38.8454 13.6635 38.9635 13.7095C39.0817 13.7555 39.2077 13.7778 39.3345 13.7752C39.4624 13.7741 39.5888 13.7473 39.7061 13.6963C39.8234 13.6454 39.9293 13.5713 40.0173 13.4786C40.1054 13.3859 40.174 13.2764 40.2188 13.1566C40.2637 13.0368 40.284 12.9092 40.2785 12.7815L40.2874 12.7903Z" fill="#0AE02D"/>
<path d="M33.0172 61.7249C24.5175 61.7249 16.0172 61.7249 7.51628 61.7249C6.79156 61.7407 6.08303 61.5096 5.50709 61.0694C4.93116 60.6292 4.52208 60.0062 4.34707 59.3028C4.16798 58.5991 4.22764 57.8559 4.5167 57.1898C4.80575 56.5237 5.30782 55.9724 5.94409 55.6225C6.47644 55.3173 7.06556 55.2552 7.67243 55.257C18.9616 55.257 30.2514 55.257 41.5418 55.257C47.2083 55.257 52.8748 55.257 58.5412 55.257C60.1383 55.257 61.517 56.4104 61.7246 57.9063C61.966 59.6311 61.0148 61.1553 59.432 61.6238C59.0655 61.7103 58.6882 61.7426 58.3123 61.7196L33.0172 61.7249ZM10.5382 59.5104H12.5913C13.8227 59.5104 13.8227 59.5104 13.8458 58.3251C13.8377 58.2148 13.8431 58.104 13.8618 57.995C13.9736 57.5656 13.7855 57.4627 13.3827 57.4627C11.5284 57.4786 9.67226 57.4627 7.81616 57.4751C7.05136 57.4751 6.56161 57.8779 6.53854 58.4546C6.51547 59.0313 7.02651 59.4838 7.8197 59.498C8.72646 59.5193 9.63144 59.5104 10.5382 59.5104ZM55.4146 59.5104C56.3639 59.5104 57.3151 59.5264 58.2644 59.5104C59.0168 59.4944 59.5066 59.0632 59.4941 58.483C59.4817 57.9027 59.0097 57.4999 58.2946 57.4928C56.3941 57.4733 54.4866 57.381 52.5985 57.5248C51.5569 57.6046 52.4601 58.5895 52.1815 59.1218C51.9792 59.5086 52.359 59.5157 52.6305 59.5157L55.4146 59.5104ZM22.4094 59.5104C22.9169 59.5104 23.4262 59.4909 23.9319 59.5104C24.3613 59.5317 24.6062 59.4643 24.4997 58.9372C24.4456 58.61 24.4456 58.2761 24.4997 57.9489C24.5477 57.6082 24.4767 57.4627 24.104 57.4662C22.956 57.4822 21.8079 57.4786 20.6598 57.4662C20.3368 57.4662 20.2162 57.5816 20.2907 57.9045C20.4096 58.4173 20.037 59.1271 20.4007 59.4057C20.7645 59.6843 21.4139 59.4891 21.9427 59.5033C22.0936 59.5104 22.248 59.5104 22.4023 59.5104H22.4094ZM33.0101 59.5104H34.27C35.1182 59.5104 35.1182 59.5104 35.1058 58.6391C35.0855 58.4412 35.0903 58.2415 35.12 58.0447C35.2477 57.5248 34.9904 57.4591 34.5592 57.4698C33.6312 57.4928 32.7031 57.4698 31.7769 57.4698C30.9287 57.4698 30.9304 57.4698 30.9411 58.341C30.9613 58.539 30.9566 58.7387 30.9269 58.9355C30.7956 59.4572 31.0564 59.5317 31.4876 59.5086C31.9862 59.4891 32.4955 59.5104 33.003 59.5104H33.0101ZM43.657 59.5104C44.0988 59.5104 44.5442 59.4767 44.9807 59.5193C45.5752 59.5761 45.9141 59.4643 45.7508 58.758C45.7018 58.4961 45.706 58.2269 45.7633 57.9666C45.8396 57.5674 45.687 57.4644 45.3125 57.4715C44.3206 57.4875 43.3251 57.5088 42.3332 57.4715C41.737 57.4449 41.4069 57.5336 41.5649 58.2381C41.6121 58.5224 41.6061 58.8131 41.5471 59.0952C41.4903 59.4377 41.6287 59.5246 41.9357 59.5193C42.4929 59.4998 43.0678 59.5104 43.641 59.5104H43.657ZM17.0665 57.5088C16.8122 57.5276 16.5735 57.6389 16.3957 57.8217C16.2178 58.0044 16.1131 58.246 16.1012 58.5007C16.0947 58.6338 16.1156 58.7669 16.1624 58.8917C16.2093 59.0164 16.2811 59.1303 16.3736 59.2263C16.466 59.3223 16.5771 59.3983 16.7001 59.4498C16.823 59.5013 16.9552 59.5271 17.0884 59.5257C17.2217 59.5242 17.3533 59.4955 17.475 59.4414C17.5968 59.3872 17.7062 59.3087 17.7966 59.2108C17.8869 59.1128 17.9563 58.9974 18.0004 58.8716C18.0445 58.7458 18.0624 58.6124 18.0531 58.4794C18.0349 58.2253 17.9247 57.9865 17.7431 57.8078C17.5614 57.6292 17.3209 57.5228 17.0665 57.5088ZM28.6804 58.5061C28.6903 58.3733 28.673 58.2398 28.6294 58.114C28.5859 57.9881 28.5172 57.8725 28.4274 57.7741C28.3376 57.6758 28.2286 57.5968 28.1072 57.5421C27.9858 57.4874 27.8545 57.458 27.7214 57.4558C27.5882 57.4536 27.456 57.4787 27.3329 57.5294C27.2098 57.5801 27.0983 57.6555 27.0053 57.7508C26.9124 57.8462 26.8399 57.9595 26.7923 58.0839C26.7446 58.2083 26.723 58.3411 26.7285 58.4741C26.7186 58.6069 26.7359 58.7403 26.7795 58.8662C26.823 58.9921 26.8917 59.1077 26.9815 59.2061C27.0713 59.3044 27.1803 59.3833 27.3017 59.4381C27.4231 59.4928 27.5544 59.5222 27.6875 59.5243C27.8207 59.5265 27.9529 59.5015 28.076 59.4508C28.1991 59.4 28.3106 59.3247 28.4036 59.2293C28.4965 59.134 28.569 59.0206 28.6166 58.8963C28.6642 58.7719 28.686 58.6391 28.6804 58.5061ZM38.33 57.5088C38.0755 57.5252 37.8357 57.6339 37.6556 57.8146C37.4756 57.9953 37.3677 58.2355 37.3523 58.4901C37.353 58.6833 37.4109 58.872 37.5188 59.0323C37.6266 59.1926 37.7796 59.3174 37.9583 59.3909C38.137 59.4643 38.3335 59.4832 38.5229 59.445C38.7123 59.4069 38.8862 59.3135 39.0226 59.1766C39.159 59.0398 39.2518 58.8655 39.2892 58.676C39.3266 58.4864 39.3071 58.29 39.233 58.1116C39.1589 57.9331 39.0335 57.7806 38.8728 57.6733C38.7121 57.5661 38.5232 57.5088 38.33 57.5088ZM48.9768 59.4607C49.17 59.4543 49.3569 59.3908 49.514 59.2782C49.6711 59.1657 49.7913 59.0091 49.8594 58.8282C49.9275 58.6473 49.9405 58.4504 49.8968 58.2621C49.853 58.0739 49.7544 57.9028 49.6135 57.7706C49.4726 57.6383 49.2957 57.5508 49.105 57.5191C48.9144 57.4873 48.7186 57.5128 48.5424 57.5922C48.3663 57.6717 48.2176 57.8016 48.1152 57.9655C48.0128 58.1294 47.9613 58.32 47.9671 58.5132C47.987 58.7706 48.1023 59.0113 48.2904 59.1883C48.4784 59.3652 48.7257 59.4655 48.9839 59.4696L48.9768 59.4607Z" fill="#0AE02D"/>
<path d="M23.5027 45.7334C23.5311 47.0998 23.1602 48.3153 22.1541 49.2824C21.6535 49.7809 20.9762 50.0616 20.2696 50.0632C19.5631 50.0649 18.8845 49.7874 18.3816 49.2912C16.5326 47.5682 16.529 43.9288 18.3816 42.2022C18.6337 41.9518 18.9331 41.7541 19.2623 41.6204C19.5916 41.4868 19.9441 41.4199 20.2994 41.4237C20.6547 41.4275 21.0058 41.5019 21.3321 41.6426C21.6584 41.7832 21.9535 41.9873 22.2002 42.243C23.1673 43.1977 23.5311 44.3955 23.5027 45.7334ZM21.2562 45.7334C21.171 45.1638 21.148 44.5818 20.7806 44.1027C20.447 43.6662 20.0975 43.6644 19.7585 44.0903C19.157 44.8426 19.1623 46.6597 19.7692 47.3979C20.1117 47.8131 20.4577 47.8025 20.7913 47.3571C21.1533 46.878 21.171 46.2942 21.2562 45.737V45.7334Z" fill="#0AE02D"/>
<path d="M38.2804 45.7405C38.2503 44.3973 38.6123 43.1995 39.5864 42.243C40.7115 41.1393 42.3262 41.1482 43.453 42.243C45.2364 43.9749 45.2275 47.5168 43.453 49.2398C42.3209 50.3346 40.7115 50.34 39.5882 49.2398C38.6087 48.2763 38.2503 47.0767 38.2804 45.7405ZM42.5072 45.7405C42.422 45.1745 42.4025 44.5907 42.0352 44.1116C41.6998 43.675 41.352 43.6715 41.0113 44.0956C40.4098 44.8462 40.4151 46.6633 41.0202 47.4032C41.3609 47.8202 41.7087 47.8096 42.0423 47.3659C42.4043 46.8797 42.4238 46.2977 42.5072 45.737V45.7405Z" fill="#0AE02D"/>
</svg>
