<svg width="61" height="66" viewBox="0 0 61 66" fill="none" xmlns="http://www.w3.org/2000/svg">
<path d="M15.4013 65.9916C14.2419 65.4756 13.7878 64.5639 13.8119 63.3117C13.8514 61.3611 13.8119 59.4071 13.8239 57.4634C13.8239 56.1716 14.3503 55.4268 15.5853 55.0225C16.0033 54.8849 16.0153 54.6149 16.0153 54.2795C16.0153 52.0055 16.0153 49.7315 16.0153 47.4575C16.0153 43.3809 16.0153 39.3043 16.0153 35.2276C16.0153 35.0212 16.1168 34.7409 15.919 34.6256C15.6782 34.4846 15.489 34.7409 15.3118 34.875C14.9076 35.1623 14.5792 35.5435 14.3548 35.9857C14.1304 36.4279 14.0167 36.918 14.0235 37.4139C14.0235 40.1385 14.0235 42.8632 14.0235 45.5895C14.0235 49.3944 11.6945 52.1534 7.93949 52.8242C4.30836 53.4762 0.436413 50.5228 0.0390707 46.8486C-0.0902911 45.5236 0.102687 44.1869 0.601546 42.9526C3.47984 35.375 6.35698 27.798 9.23299 20.2215C9.37984 19.8426 9.45396 19.4393 9.45144 19.0329C9.44456 16.0939 9.44456 13.1542 9.45144 10.214C9.45144 8.00366 10.8585 6.60178 13.074 6.60178C13.8033 6.60178 14.5343 6.5691 15.2619 6.61211C15.8468 6.64651 16.0343 6.45557 16.0394 5.85526C16.0618 3.7103 16.9408 1.9988 18.7916 0.844614C19.6674 0.29641 20.6826 0.0121493 21.7157 0.0258454C31.8196 0.036166 41.9269 0.0860446 52.0308 3.9702e-05C52.8103 -0.00451706 53.583 0.14556 54.3042 0.441571C55.0254 0.737581 55.6807 1.17365 56.2322 1.72457C56.7838 2.27548 57.2206 2.9303 57.5175 3.65113C57.8143 4.37197 57.9653 5.14451 57.9616 5.92407C57.9204 21.8866 57.9479 37.8491 57.9324 53.8116C57.9324 54.4996 58.0046 54.9262 58.7924 55.1756C59.7075 55.4663 60.1376 56.2593 60.1393 57.2397C60.1393 59.3211 60.1135 61.4024 60.1513 63.4837C60.172 64.705 59.6835 65.5478 58.5534 66.0002L15.4013 65.9916ZM55.5569 29.8695C55.5569 21.9743 55.5569 14.079 55.5569 6.18378C55.5569 5.7142 55.5914 5.24118 55.4555 4.77848C55.0048 3.23039 53.7715 2.38409 51.9207 2.38237C41.967 2.38237 32.0128 2.38237 22.058 2.38237C19.7084 2.38237 18.4028 3.70856 18.4028 6.05478C18.4028 22.0173 18.4028 37.9792 18.4028 53.9406C18.4028 54.8987 18.4028 54.9004 19.342 54.9004H54.604C55.5501 54.9004 55.5518 54.9004 55.5518 53.9389L55.5569 29.8695ZM37.0384 57.2827C30.3472 57.2827 23.6566 57.2787 16.9666 57.2707C16.3817 57.2707 16.1805 57.4307 16.1942 58.031C16.2321 59.5963 16.2063 61.1616 16.208 62.7269C16.208 63.6901 16.208 63.6918 17.1592 63.6918H42.4446C47.2689 63.6918 52.0938 63.6918 56.9193 63.6918C57.7243 63.6918 57.7518 63.6626 57.7535 62.8576C57.7535 61.2923 57.7535 59.727 57.7535 58.1617C57.7535 57.2862 57.7535 57.2845 56.8556 57.2845L37.0384 57.2827ZM16.0136 29.2778C16.0136 28.5709 15.9878 27.8622 16.0222 27.1552C16.048 26.6392 15.8347 26.4844 15.3342 26.5033C14.5206 26.5325 13.7052 26.5033 12.8899 26.5033C12.4162 26.5229 11.9442 26.4354 11.5091 26.2472C11.0739 26.0589 10.6869 25.7749 10.3769 25.4162C10.0019 24.9879 9.88147 25.0619 9.68882 25.5504C7.33572 31.7875 4.97519 38.0205 2.60719 44.2496C2.2497 45.1773 2.21157 46.1978 2.49882 47.1496C2.80063 48.2278 3.48178 49.1607 4.41688 49.7765C5.35198 50.3923 6.47807 50.6496 7.58781 50.5009C8.69754 50.3522 9.71623 49.8077 10.4563 48.9675C11.1963 48.1273 11.608 47.048 11.6153 45.9284C11.6325 43.2278 11.6153 40.5255 11.6153 37.8233C11.6153 34.9954 12.8951 33.1205 15.5354 32.116C15.8794 31.9853 16.0067 31.8046 16.0016 31.4572C16.005 30.7313 16.0136 30.002 16.0136 29.2727V29.2778ZM16.0136 16.5852C16.0136 14.2906 16.0033 11.9943 16.0222 9.70484C16.0222 9.20601 15.9121 8.94627 15.3462 8.97208C14.5326 9.0082 13.7173 8.97207 12.902 8.98755C12.1761 9.00303 11.8321 9.33157 11.8303 10.0592C11.8212 14.3915 11.8212 18.725 11.8303 23.0597C11.8303 23.777 12.1744 24.1141 12.9071 24.133C13.7001 24.1519 14.4948 24.1107 15.2877 24.1502C15.8519 24.1777 16.0308 23.9782 16.0239 23.4123C15.993 21.128 16.0136 18.854 16.0136 16.5801V16.5852Z" fill="#0AE02D"/>
<path d="M36.9128 26.505H23.0127C21.3494 26.505 20.4068 25.59 20.4033 23.9335C20.3942 18.6585 20.3942 13.3836 20.4033 8.10861C20.4033 6.41775 21.3528 5.46482 23.0368 5.46482C32.346 5.45794 41.6552 5.45794 50.9643 5.46482C52.6173 5.46482 53.5445 6.41775 53.5445 8.06905C53.5445 13.3692 53.5445 18.6677 53.5445 23.9645C53.5445 25.6089 52.6397 26.5102 50.9987 26.5119L36.9128 26.505ZM36.9971 7.83512H23.6801C22.7805 7.83512 22.7805 7.83512 22.7805 8.76225V23.2386C22.7805 24.1279 22.7805 24.1296 23.6595 24.1296H50.2952C51.1656 24.1296 51.1673 24.1296 51.1673 23.2248C51.1673 18.3776 51.1673 13.5309 51.1673 8.68483C51.1673 7.83683 51.1673 7.83512 50.3072 7.83512H36.9971Z" fill="#0AE02D"/>
<path d="M36.0011 37.4723C36.0011 38.6953 36.0011 39.9183 36.0011 41.1396C36.0033 41.4393 35.9751 41.7384 35.9168 42.0323C35.8721 42.322 35.716 42.5827 35.4817 42.7588C35.2474 42.9349 34.9536 43.0125 34.6629 42.9749C34.3811 42.9513 34.1192 42.8203 33.9313 42.609C33.7434 42.3977 33.6438 42.1223 33.6532 41.8397C33.6308 40.9607 33.6291 40.08 33.6532 39.2028C33.6635 38.759 33.5104 38.5904 33.058 38.6007C31.233 38.6386 31.5805 38.384 31.5461 40.0749C31.534 40.6545 31.5564 41.2342 31.5461 41.8121C31.5254 42.4881 31.116 42.9319 30.5002 42.9767C29.8569 43.0248 29.3805 42.6223 29.2687 41.9308C29.15 41.2067 29.2067 40.4757 29.205 39.7463C29.1959 37.7969 29.1959 35.8474 29.205 33.898C29.2023 33.534 29.2299 33.1703 29.2876 32.8109C29.3383 32.5333 29.4886 32.2838 29.7103 32.1093C29.9321 31.9347 30.2099 31.8472 30.4917 31.8631C30.7737 31.8799 31.039 32.0024 31.2347 32.2061C31.4304 32.4098 31.5422 32.6798 31.5478 32.9623C31.5719 33.8412 31.577 34.7202 31.5478 35.5992C31.5323 36.0756 31.7026 36.2442 32.1773 36.2339C33.949 36.1995 33.6222 36.4248 33.6549 34.7821C33.6652 34.2024 33.6446 33.6228 33.6549 33.0448C33.65 32.7521 33.7554 32.4683 33.9501 32.2497C34.1448 32.0311 34.4146 31.8937 34.7059 31.8648C34.9983 31.8386 35.2894 31.9271 35.5177 32.1117C35.746 32.2963 35.8934 32.5625 35.9289 32.8539C36.1129 34.0459 35.9736 35.25 36.008 36.4489C36.0097 36.786 36.0011 37.13 36.0011 37.4723Z" fill="#0AE02D"/>
<path d="M42.2691 42.8219C42.6716 42.8219 43.0775 42.7926 43.4732 42.8219C44.2765 42.8941 44.7959 43.4204 44.7564 44.0724C44.7168 44.7243 44.1733 45.1646 43.3476 45.1681C42.0163 45.1681 40.6866 45.1681 39.357 45.1681C38.7893 45.1681 38.337 44.9961 38.1116 44.4491C37.8863 43.9021 38.0772 43.4463 38.4746 43.0506C39.6425 41.8844 40.8156 40.7199 41.9767 39.5451C42.5667 38.9482 42.5392 38.1088 41.9388 37.7097C41.8056 37.617 41.6515 37.5588 41.4903 37.5403C41.3291 37.5218 41.1658 37.5437 41.015 37.6038C40.8643 37.664 40.7309 37.7607 40.6268 37.8851C40.5226 38.0096 40.451 38.158 40.4183 38.3169C40.3804 38.4614 40.3615 38.6128 40.3202 38.7573C40.1379 39.4058 39.6597 39.7549 39.0491 39.6896C38.4385 39.6242 38.0652 39.1735 38.0273 38.4855C37.9413 36.8996 39.4155 35.2809 41.0255 35.1898C42.5512 35.1038 43.8636 35.8778 44.4657 37.1971C45.078 38.5526 44.82 40.0164 43.7484 41.1172C43.2427 41.6333 42.7026 42.1252 42.1797 42.6275L42.2691 42.8219Z" fill="#0AE02D"/>
<path d="M24.8807 20.8958C24.8446 20.4984 25.0888 20.1819 25.3847 19.8861C28.5393 16.7337 31.6928 13.5802 34.8452 10.4256C35.4524 9.81836 36.2437 9.76675 36.7236 10.2707C37.2035 10.7747 37.1639 11.449 36.5257 12.0906C33.8183 14.8095 31.1057 17.5238 28.388 20.2336C27.8719 20.7496 27.3559 21.2656 26.8261 21.7644C26.6607 21.9372 26.4436 22.0516 26.2075 22.0904C25.9714 22.1292 25.7292 22.0902 25.5171 21.9795C25.0923 21.7713 24.8824 21.4256 24.8807 20.8958Z" fill="#0AE02D"/>
<path d="M29.26 9.93534C29.4779 9.9169 29.6961 9.96553 29.8855 10.0747C30.0749 10.1838 30.2264 10.3483 30.3196 10.546C30.4418 10.7399 30.4938 10.9698 30.4669 11.1974C30.44 11.425 30.3358 11.6365 30.1717 11.7965C29.0519 12.9489 27.9218 14.0911 26.7642 15.2057C26.2808 15.6701 25.6633 15.6271 25.2006 15.1902C24.9854 14.9912 24.8554 14.7166 24.8378 14.424C24.8202 14.1314 24.9163 13.8433 25.106 13.6198C25.5481 13.1038 26.0538 12.629 26.5354 12.1422C27.1237 11.5488 27.7171 10.9605 28.3088 10.3705C28.5754 10.1074 28.8747 9.9147 29.26 9.93534Z" fill="#0AE02D"/>
</svg>
