<svg width="131" height="39" viewBox="0 0 131 39" fill="none" xmlns="http://www.w3.org/2000/svg">
<g clip-path="url(#clip0_194_201)">
<path d="M56.4166 11.6509L54.3581 2.67666L53.8174 5.90117C53.5354 5.63443 53.2449 5.37593 52.9555 5.11847C52.0599 4.36152 51.102 3.67666 50.0954 3.07109C48.0866 1.85276 45.8612 0.997974 43.5715 0.493339C41.2775 -0.0102653 38.9064 -0.119431 36.5828 0.123617C36.2226 0.162752 35.8656 0.215275 35.5087 0.272948L35.5065 0.270888C25.8109 1.62516 21.0117 10.69 21.0117 10.69L21.9136 11.2348C27.0096 5.0886 32.7531 3.52424 35.0302 3.13392L35.0408 3.15348C35.6428 3.04844 36.249 2.97223 36.8574 2.92691C38.8704 2.78788 40.9046 2.95163 42.8469 3.45008C44.7861 3.9506 46.6449 4.73845 48.2978 5.82496C49.1259 6.36358 49.9085 6.96605 50.6362 7.62619C50.7576 7.7436 50.8802 7.85997 51.0006 7.97738L47.3061 7.88572L56.4187 11.6519L56.4166 11.6509Z" fill="#84CD00"/>
<path d="M21.0104 27.3492L23.0689 36.3234L23.6096 33.0989C23.8916 33.3657 24.1821 33.6241 24.4715 33.8816C25.3671 34.6386 26.3251 35.3234 27.3316 35.929C29.3404 37.1473 31.5658 38.0021 33.8556 38.5067C36.1496 39.0103 38.5207 39.1195 40.8442 38.8765C41.2044 38.8373 41.5614 38.7848 41.9184 38.7271L41.9205 38.7292C51.6161 37.3749 56.4154 28.31 56.4154 28.31L55.5134 27.7652C50.4174 33.9115 44.6739 35.4759 42.3968 35.8662L42.3863 35.8466C41.7842 35.9516 41.178 36.0279 40.5696 36.0732C38.5566 36.2122 36.5224 36.0485 34.5801 35.55C32.641 35.0495 30.7821 34.2616 29.1292 33.1751C28.3012 32.6365 27.5185 32.034 26.7908 31.3739C26.6694 31.2565 26.5469 31.1401 26.4265 31.0227L30.1209 31.1144L21.0083 27.3481L21.0104 27.3492Z" fill="#84CD00"/>
<path d="M47.4886 11.377H49.3538V25.2184H47.4886V18.9897H40.5939V25.2184H38.7076V11.377H40.5939V17.2492H47.4886V11.377Z" fill="#84CD00"/>
<path d="M60.789 13.4007L56.4946 20.4409V25.2184H54.8839V20.4233L50.6075 13.3997H52.4083L55.7056 18.9465L58.9882 13.3997H60.789V13.4007Z" fill="#84CD00"/>
<path d="M66.9527 13.4006C68.6035 13.4006 69.9744 13.9722 71.0655 15.1143C72.1565 16.2565 72.7015 17.655 72.7015 19.31C72.7015 20.965 72.1565 22.3636 71.0655 23.5057C69.9744 24.6478 68.6035 25.2194 66.9527 25.2194H62.2264V13.4006H66.9527ZM66.9527 23.7333C68.1874 23.7333 69.1982 23.311 69.9829 22.4665C70.7676 21.6221 71.1605 20.5706 71.1605 19.309C71.1605 18.0474 70.7676 16.9959 69.9829 16.1514C69.1982 15.3069 68.1874 14.8847 66.9527 14.8847H63.836V23.7312H66.9527V23.7333Z" fill="#84CD00"/>
<path d="M81.8437 25.2184L79.1294 20.6932H76.2682V25.2184H74.6575V13.3997H79.5054C80.5446 13.3997 81.4329 13.757 82.1722 14.4717C82.9105 15.1865 83.2801 16.0505 83.2801 17.0629C83.2801 17.8281 83.0467 18.5263 82.5788 19.1566C82.1109 19.7869 81.5079 20.2318 80.7696 20.4903L83.6265 25.2174H81.8437V25.2184ZM76.2682 14.8693V19.2761H79.5064C80.1063 19.2761 80.6175 19.0598 81.0389 18.6262C81.4603 18.1927 81.6705 17.6726 81.6705 17.065C81.6705 16.4573 81.4593 15.9393 81.0389 15.5119C80.6175 15.0845 80.1063 14.8703 79.5064 14.8703H76.2682V14.8693Z" fill="#84CD00"/>
<path d="M95.2708 23.649C94.0531 24.8426 92.567 25.4389 90.8127 25.4389C89.0584 25.4389 87.5745 24.8426 86.3631 23.649C85.1506 22.4564 84.5454 21.0094 84.5454 19.3101C84.5454 17.6109 85.1517 16.1505 86.3631 14.9631C87.5756 13.7756 89.0584 13.1814 90.8127 13.1814C92.567 13.1814 94.0531 13.7756 95.2708 14.9631C96.4886 16.1505 97.0969 17.5995 97.0969 19.3101C97.0969 21.0207 96.4875 22.4564 95.2708 23.649ZM87.4795 22.5769C88.374 23.4605 89.4851 23.9023 90.8127 23.9023C92.1403 23.9023 93.2514 23.4605 94.146 22.5769C95.0406 21.6932 95.4884 20.6047 95.4884 19.3101C95.4884 18.0156 95.0406 16.9105 94.146 16.0259C93.2514 15.1423 92.1403 14.7004 90.8127 14.7004C89.4851 14.7004 88.374 15.1423 87.4795 16.0259C86.5849 16.9095 86.1371 18.0043 86.1371 19.3101C86.1371 20.616 86.5838 21.6932 87.4795 22.5769Z" fill="#84CD00"/>
<path d="M110.725 19.3605V20.0701C110.725 21.6118 110.182 22.893 109.097 23.9115C108.012 24.9301 106.575 25.4398 104.786 25.4398C102.997 25.4398 101.412 24.8466 100.206 23.6582C99.0002 22.4707 98.3971 21.0217 98.3971 19.3111C98.3971 17.6005 99.0002 16.1515 100.206 14.964C101.412 13.7766 102.927 13.1824 104.751 13.1824C105.871 13.1824 106.898 13.444 107.833 13.9671C108.768 14.4903 109.489 15.1803 109.997 16.0351L108.611 16.8291C108.265 16.1875 107.743 15.6726 107.044 15.2843C106.346 14.8961 105.575 14.7014 104.732 14.7014C103.346 14.7014 102.21 15.1432 101.321 16.0269C100.431 16.9105 99.9877 18.0052 99.9877 19.3111C99.9877 20.617 100.434 21.7086 101.33 22.5861C102.225 23.4635 103.382 23.9033 104.802 23.9033C106.014 23.9033 106.994 23.6139 107.745 23.0341C108.495 22.4543 108.951 21.7035 109.113 20.7797H104.663V19.3616H110.724L110.725 19.3605Z" fill="#84CD00"/>
<path d="M114.291 23.7333H119.919V25.2194H112.681V13.4006H119.832V14.8867H114.291V18.517H119.399V19.9856H114.291V23.7333Z" fill="#84CD00"/>
<path d="M129.389 13.4006H131V25.2194H129.702L123.468 16.3893V25.2194H121.858V13.4006H123.103L129.389 22.276V13.4006Z" fill="#84CD00"/>
<path d="M8.82114 11.3635H10.7075V25.2049H9.18657L1.88632 14.864V25.206H0V11.3635H1.45857L8.82114 21.758V11.3635Z" fill="#84CD00"/>
<path d="M13.9204 23.7189H19.5476V25.205H12.3097V13.3862H19.461V14.8723H13.9204V18.5026H19.028V19.9712H13.9204V23.7189Z" fill="#84CD00"/>
<path d="M24.011 25.205L20.6207 13.3862H22.3137L25.0872 23.1102L28.0308 13.3862H29.6573L32.6019 23.1123L35.3722 13.3862H36.9755L33.5883 25.205H31.7178L28.8345 15.7384L25.9512 25.205H24.0099H24.011Z" fill="#84CD00"/>
</g>
<defs>
<clipPath id="clip0_194_201">
<rect width="131" height="39" fill="white"/>
</clipPath>
</defs>
</svg>
