<svg width="68" height="69" viewBox="0 0 68 69" fill="none" xmlns="http://www.w3.org/2000/svg">
<path d="M1.81477 68.9999C0.978562 68.5 0.687236 67.7627 0.689034 66.797C0.707017 56.1403 0.699836 40.0833 0.701635 29.4284C0.701635 28.3495 1.06128 27.7956 1.76801 27.7812C2.50352 27.765 2.91893 28.3566 2.91893 29.4356C2.91893 39.7992 2.91893 55.5649 2.91893 65.9285C2.91893 66.9337 2.91891 66.9355 3.89539 66.9355C5.35381 66.9355 6.81044 66.9229 8.26886 66.9355C8.44437 66.9492 8.61996 66.9099 8.77289 66.8227C8.92583 66.7355 9.04906 66.6044 9.12665 66.4464C12.2719 61.4111 19.2421 61.368 22.4718 66.3654C22.7344 66.77 23.0113 66.9463 23.4986 66.9373C25.002 66.9103 26.5054 66.9067 28.0069 66.9373C28.5806 66.9499 28.7856 66.7323 28.7263 66.191C28.7191 66.0568 28.7191 65.9224 28.7263 65.7882V6.03261C28.7263 4.91766 28.7263 4.91946 27.6689 4.50225C24.2077 3.11717 20.5314 2.34613 16.8054 2.22381C12.1801 2.07994 7.76713 2.94313 3.49797 4.68747C2.9441 4.91226 2.91713 5.26653 2.91713 5.73588C2.91713 13.4302 2.91713 21.1251 2.91713 28.8206C2.92926 29.1121 2.91421 29.4041 2.87217 29.6928C2.82886 29.9612 2.69109 30.2052 2.48369 30.381C2.27628 30.5567 2.01289 30.6526 1.74103 30.6513C1.20154 30.6243 0.778948 30.1891 0.710613 29.5849C0.697953 29.4053 0.694363 29.2253 0.699834 29.0454C0.699834 21.0586 0.699834 13.0717 0.699834 5.0849C0.699834 3.79372 1.02891 3.35314 2.21939 2.85142C5.39877 1.51349 8.69326 0.560383 12.1208 0.202522C17.4186 -0.351353 22.5869 0.245689 27.5862 2.1321C28.2785 2.39285 28.9655 2.67159 29.6524 2.93953C30.494 3.27042 30.9652 3.87285 30.922 4.79358C30.8986 5.30609 31.1126 5.46434 31.5946 5.44636C32.2899 5.41879 32.9852 5.41879 33.6806 5.44636C34.1661 5.46434 34.3711 5.3007 34.3549 4.79178C34.3244 3.91061 34.7578 3.31537 35.5706 2.9665C39.2661 1.3822 43.1036 0.324812 47.1228 0.0730502C51.8272 -0.220072 56.429 0.357179 60.8708 2.00442C61.6908 2.30833 62.5019 2.63562 63.3165 2.95212C64.1311 3.26862 64.5951 3.86386 64.5753 4.75042C64.5591 5.28092 64.7551 5.48952 65.2748 5.44456C65.5878 5.40546 65.9056 5.43743 66.2046 5.53807C66.7261 5.73589 67.03 6.10633 66.9725 6.6656C66.9149 7.22487 66.5588 7.53958 66.0103 7.64028C65.9654 7.64028 65.9204 7.64028 65.8755 7.65107C64.5861 7.76616 64.5861 7.76616 64.5843 9.08971C64.5843 9.85219 64.5843 16.0149 64.5843 16.7774C64.5735 17.5903 64.1869 18.0362 63.5053 18.0362C62.8238 18.0362 62.3976 17.619 62.385 16.8026C62.3544 15.0043 62.3706 7.81111 62.3688 6.01282C62.3688 4.90327 62.3688 4.90687 61.3078 4.48967C53.5406 1.36775 44.8546 1.44014 37.1405 4.69107C36.9049 4.78818 36.5435 4.83313 36.6226 5.19279C36.7017 5.55245 37.0632 5.42657 37.3078 5.42657C44.3966 5.43376 51.4861 5.43376 58.5762 5.42657C58.912 5.39678 59.2505 5.42972 59.5742 5.52369C60.0742 5.70352 60.3385 6.07396 60.308 6.60266C60.2756 7.16913 59.9483 7.50181 59.3944 7.6115C59.1272 7.64488 58.8576 7.65391 58.5888 7.63848H37.5289C36.5723 7.63848 36.5722 7.63848 36.5704 8.60057C36.5704 9.43138 36.6046 10.2622 36.5596 11.0894C36.5273 11.7134 36.7557 11.8968 37.3689 11.895C42.0349 11.8735 46.7015 11.8735 51.3686 11.895C52.4872 11.895 53.6093 11.7943 54.726 11.9832C56.8121 12.3428 58.2453 13.9829 58.2543 16.0995C58.2705 19.1943 58.2741 22.291 58.2543 25.3859C58.2543 26.0207 58.3568 26.339 59.0905 26.285C59.8242 26.2311 60.3007 26.686 60.3277 27.3172C60.3547 27.9484 59.9231 28.3746 59.1732 28.4646C58.2741 28.5742 58.2741 28.5742 58.2741 29.4932V38.8443C58.2741 39.7938 58.2741 39.7938 59.211 39.9359C60.1857 40.0833 60.6406 40.8692 60.1731 41.6011C60.0702 41.7782 59.9158 41.9197 59.7304 42.0068C59.545 42.0939 59.3375 42.1224 59.1355 42.0884C58.3766 41.9805 58.2471 42.3492 58.2615 43.0128C58.2992 44.7175 58.2705 46.4295 58.2759 48.1271C58.2759 48.6288 58.1626 49.0658 57.6968 49.332C56.9074 49.7833 56.0783 49.2061 56.064 48.1487C56.0388 46.5788 56.064 45.0071 56.0532 43.4372C56.0532 41.9086 56.2132 42.1118 54.7386 42.0992C53.7028 42.0992 53.7028 42.0992 53.7028 43.1063C53.7028 46.5398 53.7028 49.9722 53.7028 53.4033C53.7028 54.1226 53.7028 54.842 53.4259 55.5217C53.2838 55.8814 53.3899 55.9947 53.7693 56.0126C55.1145 56.0738 56.028 55.225 56.0514 53.8547C56.0514 53.495 56.019 53.1354 56.1449 52.7883C56.3247 52.283 56.6952 51.9988 57.2113 52.0204C57.4623 52.0218 57.7045 52.1134 57.8937 52.2784C58.0828 52.4435 58.2064 52.671 58.2417 52.9196C58.3822 53.546 58.3793 54.1961 58.233 54.8212C58.0867 55.4463 57.8009 56.0302 57.3971 56.5292C56.9932 57.0283 56.4816 57.4295 55.9007 57.7028C55.3198 57.9762 54.6846 58.1146 54.0427 58.1077C48.5279 58.1077 43.009 58.1077 37.4858 58.1077C36.5866 58.1077 36.5866 58.1077 36.5866 58.987C36.5866 59.5697 36.6118 60.1541 36.5866 60.735C36.5579 61.2745 36.7917 61.4723 37.306 61.4291C37.5056 61.4111 37.7088 61.4291 37.912 61.4291C44.6867 61.4291 51.4603 61.4291 58.2327 61.4291C58.569 61.421 58.9054 61.4354 59.2398 61.4723C59.9969 61.5712 60.4051 62.0118 60.3475 62.6448C60.29 63.2778 59.8494 63.614 59.1193 63.6212C57.8407 63.6212 56.5621 63.6212 55.2835 63.6212H53.3917C54.6685 64.4754 55.6558 65.4195 56.3499 66.6514C56.4956 66.9085 56.7563 66.8941 57.0063 66.8941C58.5996 66.8941 60.1929 66.8816 61.7844 66.8941C62.2663 66.8941 62.4299 66.6999 62.3976 66.2521C62.3814 66.0291 62.3976 65.8026 62.3976 65.5778C62.3976 49.4483 62.3976 33.3181 62.3976 17.1874C62.3848 16.8297 62.4047 16.4716 62.4569 16.1174C62.5738 15.488 62.9964 15.1715 63.5934 15.2039C64.1617 15.2327 64.5519 15.6373 64.6023 16.2595C64.6185 16.4609 64.6023 16.6641 64.6023 16.8655C64.6023 19.7428 64.6167 22.6093 64.5915 25.4794C64.5915 26.062 64.7498 26.2706 65.3504 26.2544C66.4851 26.2239 67.0264 26.6141 67.0066 27.3586C66.9868 28.0599 66.4239 28.4663 65.3647 28.4376C64.7821 28.4268 64.5861 28.6066 64.5915 29.2036C64.6167 32.5017 64.6167 35.7986 64.5915 39.0943C64.5915 39.6751 64.757 39.9233 65.354 39.8765C65.6456 39.8575 65.9381 39.8922 66.2171 39.979C66.7566 40.1445 67.0462 40.5473 66.985 41.0994C66.971 41.3506 66.8644 41.5876 66.6856 41.7647C66.5069 41.9418 66.2689 42.0462 66.0175 42.0579H65.951C64.6023 42.173 64.6023 42.173 64.6023 43.5648C64.6023 49.2187 64.6113 54.8707 64.5879 60.5246C64.5879 61.1917 64.7569 61.4957 65.4529 61.4093C65.6545 61.3982 65.8567 61.4195 66.0517 61.4723C66.6451 61.5964 67.0372 62.0711 67.0012 62.598C66.9599 63.1717 66.5085 63.5655 65.8539 63.5979C64.5951 63.6572 64.5951 63.6572 64.5951 64.9304C64.5951 65.5364 64.5609 66.1442 64.5951 66.7467C64.6599 67.7178 64.3182 68.4515 63.4694 68.9388H55.5263C55.0156 68.6295 54.6829 68.1763 54.379 67.662C53.2802 65.8062 51.642 64.8081 49.4696 64.8081C47.2973 64.8081 45.659 65.8062 44.5621 67.6638C44.2932 68.1793 43.8978 68.618 43.413 68.9388H35.4699C34.6265 68.4497 34.2902 67.7178 34.3441 66.7485C34.3891 65.9212 34.3334 65.0904 34.3603 64.2632C34.3765 63.7777 34.2254 63.5673 33.7129 63.5907C32.9936 63.6248 32.2743 63.6176 31.555 63.5907C31.0964 63.5745 30.9094 63.7327 30.9238 64.2075C30.949 65.0797 30.8914 65.9572 30.94 66.8276C30.9939 67.7843 30.6378 68.4766 29.8088 68.937H21.8676C21.4349 68.6582 21.0769 68.2779 20.8246 67.8292C19.7456 65.8907 18.1091 64.8261 15.881 64.8081C13.626 64.7919 11.9446 65.8313 10.8458 67.7879C10.5938 68.2635 10.2163 68.661 9.75425 68.937L1.81477 68.9999ZM51.4765 48.431C51.4765 46.8629 51.4873 45.2948 51.4765 43.7267C51.4603 41.8547 51.7265 42.1784 49.8832 42.1082C49.2412 42.0848 49.0956 42.3222 49.0992 42.9193C49.1225 46.4817 49.11 50.0423 49.1136 53.6047C49.1136 54.2791 49.1136 54.9499 48.8456 55.5829C48.7071 55.9011 48.8043 56.0108 49.1531 56.0342C50.5072 56.1205 51.4603 55.2897 51.4729 53.9374C51.4945 52.1049 51.4819 50.2689 51.4819 48.431H51.4765ZM37.8526 48.4724V43.6907C37.8526 42.1064 37.8526 42.1334 36.3025 42.1046C35.6947 42.0938 35.4861 42.2611 35.4915 42.8959C35.5202 46.3036 35.4915 49.7132 35.5077 53.1228C35.5077 53.9788 35.5076 54.8312 35.1678 55.6404C35.0293 55.9587 35.1534 56.0144 35.4519 56.036C36.8474 56.1403 37.8454 55.2484 37.8508 53.8565C37.8634 52.0618 37.858 50.2671 37.858 48.4724H37.8526ZM42.4239 48.3375V43.6278C42.4239 42.1172 42.4239 42.1172 40.9439 42.1226C40.0753 42.1226 40.0735 42.1226 40.0735 43.0307C40.0735 46.372 40.0735 49.7126 40.0735 53.0527C40.0735 53.9302 40.0735 54.8042 39.7265 55.6314C39.6024 55.9335 39.7013 56.0145 40.0106 56.0378C41.3971 56.1403 42.4113 55.243 42.4185 53.8529C42.4365 52.0132 42.4275 50.1754 42.4293 48.3375H42.4239ZM46.997 48.307V43.5972C46.997 42.1154 46.997 42.1586 45.4882 42.1082C44.7977 42.0866 44.6124 42.3132 44.6178 42.9876C44.6484 46.372 44.6304 49.7582 44.6322 53.1444C44.6322 53.9752 44.6034 54.8042 44.2726 55.5883C44.1431 55.9048 44.2204 56.0162 44.5765 56.0378C45.9845 56.1223 46.9646 55.2268 46.9826 53.7558C47.0167 51.9395 47.0006 50.1232 47.0024 48.307H46.997ZM30.9346 49.0748C30.9346 51.1806 30.9453 53.2864 30.9256 55.3922C30.9256 55.9533 31.1054 56.1116 31.6449 55.9731C32.6933 55.7195 33.2634 55.0613 33.276 53.9788C33.276 50.5746 33.2939 47.1686 33.276 43.7644C33.2652 41.8349 33.5961 42.173 31.5964 42.1136C31.0407 42.0974 30.9148 42.3186 30.9202 42.8239C30.9472 44.9082 30.9472 46.9906 30.9472 49.0748H30.9346ZM53.683 20.6617V24.6288C53.683 26.321 53.683 26.303 55.3464 26.2958C55.8769 26.2958 56.046 26.116 56.0442 25.5945C56.0262 22.4582 56.0442 19.3202 56.0316 16.1822C56.0316 14.8227 55.0659 13.9901 53.7172 14.1105C53.3576 14.1429 53.2874 14.2778 53.4133 14.5781C53.71 15.2812 53.6884 16.0167 53.6848 16.7612C53.683 18.065 53.6884 19.3652 53.6884 20.6725L53.683 20.6617ZM35.5041 20.7786V24.7457C35.5041 26.3012 35.504 26.2778 37.0865 26.2976C37.662 26.2976 37.8706 26.1483 37.8652 25.5423C37.8382 22.4277 37.8652 19.3112 37.849 16.1912C37.849 14.8011 36.7808 13.9181 35.3962 14.1051C35.0904 14.1465 35.0725 14.2544 35.1804 14.4972C35.5059 15.2345 35.5149 16.0167 35.5077 16.8044C35.5023 18.1369 35.5095 19.4587 35.5095 20.7822L35.5041 20.7786ZM44.634 20.6617C44.634 22.5338 44.634 24.1235 44.634 25.7132C44.634 26.0422 44.7095 26.3372 45.1088 26.2724C45.731 26.1735 46.4359 26.5961 46.9772 25.9955C47.0131 25.9559 46.997 25.8642 46.997 25.7977C46.997 22.5733 47.0185 19.349 46.9808 16.1264C46.9885 15.6027 46.7881 15.0973 46.4237 14.7211C46.0593 14.3449 45.5605 14.1285 45.0368 14.1195C44.1808 14.0782 44.1844 14.0764 44.429 14.9198C44.4763 15.0919 44.51 15.2675 44.5297 15.4449C44.7545 17.2773 44.5692 19.1152 44.6394 20.6725L44.634 20.6617ZM51.4783 20.7768C51.4783 19.2303 51.4945 17.682 51.4783 16.1354C51.4603 14.7903 50.4443 13.9523 49.1154 14.1105C48.7755 14.1519 48.7431 14.2904 48.8582 14.5493C49.1388 15.1626 49.119 15.8081 49.119 16.4645C49.119 19.2003 49.119 21.9361 49.119 24.6719C49.119 26.3156 49.1189 26.2904 50.7626 26.2904C51.3273 26.2904 51.5035 26.0926 51.4945 25.5459C51.4675 23.9652 51.4837 22.3719 51.4837 20.7804L51.4783 20.7768ZM40.0717 20.829C40.0717 22.1058 40.0591 23.3826 40.0717 24.6593C40.0969 26.5637 39.7714 26.2383 41.6992 26.294C42.2549 26.3102 42.4347 26.125 42.4311 25.5747C42.4077 22.4852 42.4311 19.3939 42.4167 16.3027C42.4167 14.864 41.469 14.0242 40.043 14.1159C39.6833 14.1393 39.6149 14.2346 39.748 14.5619C40.0393 15.2812 40.0807 16.0383 40.0735 16.8062C40.0681 18.1549 40.0771 19.4893 40.0771 20.8326L40.0717 20.829ZM30.9472 20.1978C30.9472 21.6742 30.9292 23.1524 30.9472 24.6306C30.9777 26.5781 30.5767 26.249 32.6681 26.294C33.1303 26.3048 33.303 26.1393 33.3012 25.6736C33.2868 22.4492 33.3011 19.2249 33.285 16.0006C33.2841 15.5712 33.1365 15.1551 32.8666 14.8212C32.5968 14.4872 32.2209 14.2555 31.8014 14.1645C31.1288 14.0026 30.9454 14.1393 30.9436 14.8245C30.9376 16.6156 30.9388 18.4067 30.9472 20.1978ZM33.285 34.2029C33.285 32.8362 33.2975 31.4677 33.285 30.101C33.2634 28.2667 33.5691 28.5509 31.6809 28.4951C31.0785 28.4771 30.9202 28.6965 30.9238 29.2738C30.9472 32.3003 30.9238 35.3268 30.94 38.3534C30.9508 40.1265 30.6217 39.8927 32.5674 39.9323C33.1357 39.9449 33.3047 39.7237 33.2868 39.1806C33.2742 37.5226 33.285 35.8627 33.285 34.2029ZM53.6812 34.1364C53.6812 35.575 53.6704 37.0136 53.6812 38.4397C53.6974 40.0977 53.4205 39.8873 55.1972 39.9359C55.841 39.9539 56.0514 39.7435 56.0442 39.0943C56.0154 36.0893 56.0442 33.0862 56.028 30.0812C56.0172 28.2685 56.3157 28.5455 54.4095 28.4987C53.8593 28.4843 53.6615 28.6624 53.6723 29.227C53.7082 30.8617 53.6884 32.4999 53.6884 34.1364H53.6812ZM46.9952 34.2712C46.9952 32.8596 47.0078 31.4461 46.9952 30.0327C46.9754 28.2865 47.2775 28.5509 45.4648 28.4951C44.8156 28.4735 44.6142 28.6929 44.6214 29.3385C44.6484 32.3201 44.6214 35.3035 44.6376 38.2868C44.6484 40.1355 44.3265 39.9053 46.3514 39.9305C46.8531 39.9305 47.0132 39.7381 47.006 39.2507C46.9898 37.5909 47.0024 35.9311 47.0024 34.2712H46.9952ZM42.4221 34.2712C42.4221 32.8596 42.4347 31.4461 42.4221 30.0345C42.4023 28.2847 42.6973 28.5509 40.8954 28.4915C40.2408 28.4699 40.0555 28.6983 40.0609 29.3367C40.0897 32.3417 40.0609 35.3448 40.0789 38.348C40.0789 40.1229 39.784 39.8909 41.71 39.9323C42.2783 39.9431 42.4437 39.7255 42.4293 39.1806C42.4113 37.5459 42.4293 35.9095 42.4293 34.273L42.4221 34.2712ZM35.5023 34.2083C35.5023 35.62 35.5023 37.0334 35.5023 38.4451C35.5167 40.0977 35.2505 39.8837 37.0254 39.9341C37.6818 39.9539 37.8652 39.7201 37.8598 39.0817C37.831 36.0803 37.8598 33.0754 37.8419 30.0722C37.8311 28.2739 38.1494 28.5437 36.2234 28.4951C35.6623 28.4825 35.4843 28.6749 35.4933 29.2324C35.5274 30.8922 35.5113 32.5521 35.5095 34.2101L35.5023 34.2083ZM49.11 34.2083C49.11 35.6218 49.0992 37.0334 49.11 38.4469C49.1261 40.1031 48.8492 39.8855 50.6295 39.9395C51.2679 39.9557 51.4927 39.7596 51.4873 39.0979C51.4603 36.1145 51.4873 33.1311 51.4711 30.1496C51.4711 28.2649 51.7445 28.5491 49.8347 28.5023C49.2952 28.4879 49.0866 28.6642 49.0974 29.2216C49.1369 30.885 49.11 32.5413 49.11 34.2047V34.2083ZM45.5853 63.6644C42.6666 63.6644 39.9351 63.6644 37.2034 63.6644C36.7539 63.6644 36.5417 63.7957 36.5578 64.2758C36.583 64.9682 36.5776 65.6641 36.5578 66.3583C36.5471 66.7862 36.7125 66.9553 37.1495 66.9517C38.768 66.9355 40.3756 66.9409 41.9869 66.9517C42.2764 66.9517 42.5156 66.8959 42.6685 66.6226C43.3554 65.4123 44.3157 64.5006 45.5925 63.6608L45.5853 63.6644ZM34.3459 9.79284C34.3459 9.25335 34.3351 8.71386 34.3459 8.17437C34.3549 7.80033 34.1949 7.64927 33.8244 7.65466C33.0404 7.66725 32.2545 7.67085 31.4705 7.65466C31.0586 7.64567 30.9184 7.8237 30.931 8.21933C30.9454 9.27313 30.9436 10.3251 30.931 11.3789C30.931 11.7512 31.0839 11.9076 31.4525 11.9022C32.2366 11.8932 33.0206 11.8896 33.8064 11.9022C34.2147 11.9022 34.3657 11.7224 34.3459 11.334C34.3405 10.8197 34.3531 10.3053 34.3531 9.78924L34.3459 9.79284ZM32.67 61.4669H32.803C34.6013 61.4471 34.3315 61.6647 34.3441 59.9509C34.3585 58.1526 34.3441 58.1526 32.5081 58.1526C30.931 58.1526 30.931 58.1526 30.931 59.7495C30.9472 61.4633 30.9472 61.4633 32.6772 61.4633L32.67 61.4669Z" fill="#0AE02D"/>
<path d="M9.31371 10.5337C9.97658 10.5318 10.6333 10.6606 11.2464 10.9127C11.8595 11.1648 12.4168 11.5352 12.8866 12.0029C13.3564 12.4705 13.7295 13.0261 13.9844 13.638C14.2393 14.2499 14.3711 14.9061 14.3723 15.5689C14.3723 18.3383 11.9932 20.7121 9.25977 20.6725C7.92081 20.6487 6.64388 20.1038 5.7003 19.1535C4.75672 18.2032 4.22086 16.9224 4.20657 15.5833C4.20459 14.9148 4.33576 14.2525 4.59243 13.6352C4.84911 13.0179 5.22615 12.4579 5.70155 11.9879C6.17696 11.5178 6.7412 11.1472 7.36138 10.8975C7.98155 10.6478 8.64523 10.5242 9.31371 10.5337ZM12.1514 15.551C12.1394 14.9881 11.9617 14.4413 11.6405 13.9789C11.3193 13.5165 10.869 13.1591 10.3457 12.9514C9.82249 12.7436 9.2496 12.6947 8.69873 12.8108C8.14785 12.9269 7.64345 13.2029 7.24859 13.6042C6.85372 14.0054 6.58593 14.5142 6.47871 15.0669C6.3715 15.6196 6.4296 16.1916 6.64577 16.7114C6.86194 17.2313 7.22658 17.6758 7.69408 17.9895C8.16158 18.3032 8.71118 18.472 9.27415 18.475C9.65597 18.475 10.034 18.3991 10.3861 18.2516C10.7383 18.1041 11.0576 17.8879 11.3254 17.6158C11.5932 17.3436 11.8042 17.0209 11.946 16.6664C12.0878 16.3119 12.1576 15.9327 12.1514 15.551Z" fill="#0AE02D"/>
<path d="M9.28853 58.1418C8.62608 58.148 7.96892 58.0234 7.35472 57.7751C6.74053 57.5269 6.18136 57.1599 5.70926 56.6951C5.23716 56.2304 4.86141 55.677 4.60354 55.0668C4.34568 54.4566 4.21077 53.8015 4.20654 53.139C4.20695 51.7882 4.7404 50.4922 5.69097 49.5326C6.64155 48.5729 7.93244 48.0271 9.28313 48.0139C12.0507 48.0139 14.3849 50.3516 14.3723 53.1336C14.3688 53.7967 14.2343 54.4525 13.9767 55.0635C13.719 55.6744 13.3432 56.2285 12.8709 56.6938C12.3985 57.1592 11.8389 57.5267 11.2241 57.7751C10.6094 58.0236 9.95158 58.1483 9.28853 58.1418ZM12.1514 53.1156C12.1443 52.5502 11.9699 51.9996 11.6502 51.5332C11.3306 51.0667 10.8799 50.7054 10.3552 50.4948C9.83044 50.2842 9.25508 50.2336 8.70165 50.3496C8.14822 50.4656 7.64151 50.7428 7.24545 51.1464C6.84939 51.5499 6.58171 52.0618 6.47617 52.6173C6.37062 53.1728 6.43194 53.7471 6.6524 54.2678C6.87285 54.7885 7.24257 55.2323 7.71491 55.5431C8.18725 55.854 8.74107 56.018 9.30651 56.0145C10.0639 55.994 10.7837 55.6803 11.3144 55.1396C11.8451 54.5989 12.1452 53.8732 12.1514 53.1156Z" fill="#0AE02D"/>
<path d="M22.3979 10.5338C23.0605 10.5287 23.7175 10.6555 24.3307 10.9068C24.9439 11.1581 25.501 11.5288 25.9695 11.9973C26.4381 12.4659 26.8088 13.023 27.0601 13.6362C27.3113 14.2493 27.4381 14.9063 27.4331 15.569C27.4331 18.3743 25.0953 20.7283 22.3583 20.6797C19.5836 20.6276 17.2728 18.3204 17.2781 15.6032C17.2767 14.9328 17.4085 14.2688 17.6659 13.6498C17.9233 13.0307 18.3011 12.4691 18.7775 11.9974C19.2539 11.5257 19.8192 11.1534 20.4408 10.9021C21.0623 10.6509 21.7276 10.5257 22.3979 10.5338ZM25.232 15.5924C25.2423 15.2162 25.1776 14.8417 25.0417 14.4908C24.9058 14.1399 24.7015 13.8196 24.4406 13.5484C24.1796 13.2773 23.8673 13.0608 23.5219 12.9115C23.1764 12.7623 22.8047 12.6833 22.4285 12.6791C21.6687 12.6799 20.9397 12.979 20.3983 13.5119C19.8568 14.0448 19.5461 14.7689 19.5332 15.5285C19.5202 16.2881 19.806 17.0225 20.3289 17.5735C20.8519 18.1246 21.5703 18.4483 22.3296 18.475C22.7108 18.4813 23.0894 18.4112 23.4431 18.2688C23.7967 18.1264 24.1183 17.9146 24.3888 17.6459C24.6593 17.3772 24.8733 17.0571 25.0181 16.7044C25.1629 16.3517 25.2357 15.9736 25.232 15.5924Z" fill="#0AE02D"/>
<path d="M22.3584 58.1418C21.6945 58.1447 21.0366 58.0167 20.4222 57.7651C19.8078 57.5136 19.249 57.1434 18.7777 56.6758C18.3064 56.2082 17.9319 55.6523 17.6755 55.0398C17.4192 54.4274 17.286 53.7705 17.2836 53.1066C17.2836 50.348 19.6358 48.0012 22.4034 48.0048C25.171 48.0084 27.4476 50.3318 27.4386 53.1515C27.4296 55.9713 25.1925 58.1454 22.3584 58.1418ZM25.2357 53.1264C25.2443 52.745 25.1766 52.3658 25.0364 52.011C24.8963 51.6562 24.6865 51.3331 24.4196 51.0606C24.1526 50.7882 23.8339 50.5719 23.482 50.4244C23.1302 50.277 22.7525 50.2015 22.371 50.2023C21.613 50.2184 20.8904 50.5267 20.3543 51.0629C19.8181 51.599 19.5098 52.3216 19.4937 53.0796C19.483 54.6549 20.846 56.036 22.389 56.0108C22.7654 56.0092 23.1377 55.9332 23.4846 55.7871C23.8315 55.6411 24.1461 55.4279 24.4103 55.1598C24.6746 54.8918 24.8832 54.5741 25.0242 54.2251C25.1652 53.8762 25.2359 53.5027 25.2321 53.1264H25.2357Z" fill="#0AE02D"/>
<path d="M6.39142 6.56128C6.38989 6.70403 6.36025 6.84508 6.30421 6.97639C6.24816 7.10769 6.16681 7.22666 6.06478 7.32652C5.96275 7.42638 5.84205 7.50516 5.70957 7.55837C5.5771 7.61158 5.43542 7.63819 5.29266 7.63665C5.14991 7.63512 5.00886 7.60548 4.87755 7.54943C4.74625 7.49338 4.62728 7.41202 4.52742 7.30999C4.42756 7.20796 4.34878 7.08726 4.29557 6.95478C4.24236 6.82231 4.21575 6.68065 4.21729 6.5379C4.23379 6.25617 4.35518 5.99083 4.55754 5.79412C4.7599 5.59742 5.02856 5.4836 5.31064 5.4751C5.59218 5.49343 5.85735 5.6139 6.05635 5.81389C6.25535 6.01389 6.37449 6.27965 6.39142 6.56128Z" fill="#0AE02D"/>
<path d="M6.39144 27.3892C6.37401 27.6697 6.25475 27.9341 6.05606 28.1328C5.85736 28.3315 5.59292 28.4507 5.31246 28.4682C5.03034 28.4595 4.76181 28.345 4.56024 28.1474C4.35867 27.9499 4.23882 27.6837 4.22451 27.4018C4.22368 27.259 4.25098 27.1175 4.30485 26.9853C4.35872 26.8531 4.43808 26.7328 4.53844 26.6313C4.6388 26.5297 4.75818 26.449 4.88976 26.3936C5.02133 26.3382 5.16253 26.3093 5.30528 26.3084C5.44804 26.3076 5.58955 26.3349 5.72175 26.3888C5.85396 26.4426 5.97426 26.522 6.07579 26.6224C6.17732 26.7227 6.25809 26.8421 6.31349 26.9737C6.36888 27.1053 6.39781 27.2464 6.39864 27.3892H6.39144Z" fill="#0AE02D"/>
<path d="M16.9204 60.2206C16.9206 60.5026 16.8151 60.7745 16.6247 60.9826C16.4342 61.1906 16.1728 61.3198 15.8918 61.3445C15.7489 61.3493 15.6065 61.3258 15.4727 61.2755C15.3389 61.2252 15.2163 61.149 15.112 61.0513C15.0076 60.9536 14.9235 60.8363 14.8644 60.7061C14.8054 60.5759 14.7726 60.4354 14.7679 60.2925C14.7631 60.1496 14.7866 60.0072 14.8369 59.8734C14.8872 59.7396 14.9634 59.617 15.0611 59.5127C15.1588 59.4083 15.2761 59.3242 15.4062 59.2652C15.5364 59.2061 15.677 59.1733 15.8199 59.1686C16.102 59.1735 16.3719 59.2844 16.5758 59.4794C16.7798 59.6744 16.9028 59.939 16.9204 60.2206Z" fill="#0AE02D"/>
<path d="M26.3687 7.64743C26.1543 7.65028 25.9438 7.58915 25.7643 7.47186C25.5847 7.35456 25.4442 7.18643 25.3606 6.9889C25.2771 6.79138 25.2543 6.57344 25.2952 6.3629C25.336 6.15237 25.4387 5.95878 25.5901 5.80687C25.7415 5.65497 25.9348 5.55163 26.1451 5.51004C26.3555 5.46846 26.5735 5.49052 26.7713 5.5734C26.9691 5.65629 27.1378 5.79624 27.2557 5.9754C27.3736 6.15455 27.4354 6.36478 27.4333 6.57924C27.4305 6.86105 27.3176 7.13059 27.1186 7.33021C26.9197 7.52983 26.6505 7.64368 26.3687 7.64743Z" fill="#0AE02D"/>
<path d="M23.4644 62.5819C23.4715 62.8681 23.3648 63.1453 23.1675 63.3527C22.9702 63.5601 22.6986 63.6807 22.4124 63.6878C22.1262 63.695 21.849 63.5882 21.6415 63.3909C21.4341 63.1936 21.3136 62.922 21.3064 62.6358C21.2993 62.3497 21.4061 62.0724 21.6034 61.865C21.8007 61.6576 22.0723 61.537 22.3584 61.5299C22.6446 61.5227 22.9219 61.6296 23.1293 61.8268C23.3367 62.0241 23.4572 62.2957 23.4644 62.5819Z" fill="#0AE02D"/>
<path d="M16.9204 4.55979C16.9348 4.77778 16.8834 4.99508 16.773 5.18357C16.6625 5.37206 16.498 5.52306 16.3008 5.61704C16.1036 5.71103 15.8827 5.74368 15.6667 5.71075C15.4507 5.67783 15.2496 5.58086 15.0893 5.43238C14.9291 5.28391 14.8171 5.09075 14.7678 4.87791C14.7185 4.66507 14.7342 4.44234 14.8129 4.23853C14.8916 4.03472 15.0296 3.85921 15.2091 3.7347C15.3886 3.6102 15.6014 3.54242 15.8198 3.54014C16.1003 3.53182 16.3729 3.63404 16.5787 3.82476C16.7846 4.01549 16.9073 4.27946 16.9204 4.55979Z" fill="#0AE02D"/>
<path d="M26.3848 26.2993C26.6657 26.3073 26.9323 26.4245 27.1281 26.6259C27.3239 26.8274 27.4334 27.0973 27.4333 27.3783C27.4348 27.5233 27.4069 27.6672 27.3511 27.8011C27.2952 27.935 27.2127 28.0561 27.1086 28.157C27.0044 28.258 26.8808 28.3367 26.7452 28.3883C26.6097 28.4399 26.465 28.4634 26.3201 28.4573C26.034 28.4487 25.7629 28.3268 25.5666 28.1184C25.3704 27.9099 25.2649 27.6321 25.2735 27.3459C25.2821 27.0598 25.404 26.7887 25.6124 26.5925C25.8209 26.3962 26.0987 26.2907 26.3848 26.2993Z" fill="#0AE02D"/>
<path d="M5.32693 40.0024C5.60751 40.0057 5.87579 40.1181 6.07487 40.3158C6.27396 40.5136 6.38818 40.7811 6.39331 41.0616C6.38687 41.3502 6.26607 41.6244 6.05749 41.8239C5.8489 42.0233 5.56962 42.1318 5.28107 42.1253C4.99253 42.1189 4.71834 41.9981 4.51886 41.7895C4.31938 41.5809 4.21093 41.3016 4.21737 41.0131C4.23498 40.7336 4.36058 40.4719 4.56764 40.2833C4.77469 40.0947 5.04699 39.994 5.32693 40.0024Z" fill="#0AE02D"/>
<path d="M26.3723 42.1173C26.2318 42.1223 26.0917 42.0983 25.9609 42.0467C25.8301 41.9952 25.7113 41.9171 25.6121 41.8175C25.5128 41.7179 25.4352 41.5989 25.384 41.4679C25.3329 41.3369 25.3093 41.1968 25.3149 41.0563C25.3054 40.9159 25.326 40.7751 25.3752 40.6433C25.4245 40.5115 25.5013 40.3918 25.6006 40.292C25.6998 40.1923 25.8191 40.1149 25.9506 40.0649C26.0822 40.015 26.2229 39.9937 26.3633 40.0025C26.5037 39.9955 26.644 40.0176 26.7754 40.0674C26.9068 40.1172 27.0265 40.1937 27.127 40.2919C27.2275 40.3902 27.3065 40.5082 27.3592 40.6385C27.412 40.7688 27.4372 40.9086 27.4333 41.0491C27.4349 41.1892 27.4087 41.3283 27.356 41.4582C27.3034 41.588 27.2255 41.7061 27.1267 41.8056C27.0279 41.905 26.9103 41.9838 26.7808 42.0373C26.6513 42.0908 26.5124 42.118 26.3723 42.1173Z" fill="#0AE02D"/>
<path d="M9.30477 63.6517C9.0957 63.656 8.89006 63.5981 8.71387 63.4855C8.53768 63.3728 8.39885 63.2105 8.31492 63.019C8.23099 62.8274 8.20573 62.6153 8.24235 62.4094C8.27896 62.2035 8.37581 62.0131 8.52063 61.8623C8.66545 61.7114 8.85173 61.6069 9.05595 61.5619C9.26017 61.5169 9.47315 61.5335 9.66795 61.6096C9.86274 61.6856 10.0306 61.8177 10.1503 61.9892C10.2701 62.1606 10.3363 62.3637 10.3406 62.5728C10.3457 62.7122 10.3226 62.8512 10.2729 62.9816C10.2232 63.1119 10.1478 63.231 10.0512 63.3316C9.95456 63.4323 9.83869 63.5125 9.71047 63.5674C9.58224 63.6224 9.44429 63.6511 9.30477 63.6517Z" fill="#0AE02D"/>
<path d="M9.26686 14.4809C9.48484 14.4684 9.7016 14.5214 9.88911 14.6333C10.0766 14.7452 10.2262 14.9107 10.3187 15.1085C10.4111 15.3063 10.4421 15.5273 10.4077 15.7429C10.3732 15.9585 10.2749 16.1588 10.1254 16.318C9.97596 16.4771 9.78219 16.5878 9.56916 16.6357C9.35613 16.6836 9.13363 16.6665 8.93042 16.5866C8.72722 16.5067 8.55266 16.3677 8.42926 16.1876C8.30587 16.0074 8.23932 15.7944 8.23824 15.5761C8.23373 15.2957 8.3386 15.0245 8.53061 14.8201C8.72263 14.6156 8.98669 14.494 9.26686 14.4809Z" fill="#0AE02D"/>
<path d="M9.25966 54.1982C9.0413 54.2005 8.82725 54.1372 8.6452 54.0166C8.46315 53.896 8.32147 53.7236 8.23846 53.5216C8.15544 53.3196 8.1349 53.0974 8.17952 52.8836C8.22413 52.6698 8.33185 52.4744 8.48873 52.3225C8.64561 52.1706 8.84443 52.0692 9.05952 52.0315C9.27462 51.9938 9.49609 52.0214 9.69529 52.1109C9.8945 52.2004 10.0623 52.3475 10.177 52.5334C10.2917 52.7192 10.348 52.9352 10.3386 53.1533C10.3298 53.4335 10.2122 53.6993 10.0108 53.8943C9.80939 54.0893 9.54 54.1983 9.25966 54.1982Z" fill="#0AE02D"/>
<path d="M22.3566 16.6622C22.2139 16.6566 22.0737 16.6228 21.944 16.563C21.8142 16.5031 21.6976 16.4183 21.6006 16.3133C21.5037 16.2084 21.4283 16.0854 21.379 15.9513C21.3296 15.8172 21.3071 15.6748 21.3127 15.532C21.3184 15.3893 21.3521 15.249 21.412 15.1193C21.4719 14.9896 21.5567 14.8729 21.6616 14.776C21.7666 14.679 21.8896 14.6037 22.0237 14.5543C22.1577 14.5049 22.3002 14.4824 22.443 14.4881C22.7295 14.502 22.9989 14.6286 23.1927 14.8402C23.3864 15.0518 23.4887 15.3313 23.4773 15.618C23.4659 15.9046 23.3418 16.1752 23.1319 16.3707C22.922 16.5663 22.6434 16.6711 22.3566 16.6622Z" fill="#0AE02D"/>
<path d="M23.4716 53.0833C23.4617 53.365 23.349 53.6333 23.1549 53.8377C22.9608 54.0421 22.6986 54.1684 22.4178 54.1928C22.2749 54.1953 22.133 54.1696 22 54.1172C21.8671 54.0649 21.7457 53.9868 21.643 53.8875C21.5402 53.7883 21.458 53.6697 21.401 53.5387C21.344 53.4076 21.3134 53.2666 21.311 53.1237C21.3085 52.9809 21.3342 52.8389 21.3866 52.706C21.4389 52.573 21.517 52.4517 21.6163 52.3489C21.7155 52.2461 21.8341 52.1639 21.9651 52.1069C22.0962 52.05 22.2372 52.0194 22.3801 52.0169C22.6616 52.0283 22.929 52.1436 23.1305 52.3405C23.3321 52.5375 23.4536 52.8021 23.4716 53.0833Z" fill="#0AE02D"/>
</svg>
