<svg width="86" height="87" viewBox="0 0 86 87" fill="none" xmlns="http://www.w3.org/2000/svg">
<path d="M0.731481 85.9368C0.128801 85.5 -0.171489 84.9288 0.101502 84.1959C0.374493 83.4631 0.981373 83.3371 1.67435 83.356C2.26023 83.377 2.84821 83.356 3.43409 83.356C3.85408 83.356 4.03887 83.1796 4.03677 82.7533C4.03677 79.1498 4.03677 75.5463 4.03677 71.9429C4.03576 71.7167 3.94953 71.4992 3.79528 71.3339C2.59202 69.9521 2.31273 68.3939 3.11071 66.7518C3.93808 65.0467 5.46893 64.4629 7.26647 64.4545C9.97538 64.4419 12.6864 64.4545 15.3953 64.4545C16.5125 64.4545 16.5944 64.3747 16.6133 63.2806C16.6784 59.3706 16.7309 55.4605 16.8065 51.5525C16.9185 45.9387 17.0403 40.327 17.1719 34.7173C17.2516 31.3133 17.3629 27.9094 17.4574 24.5033C17.491 23.3294 17.9698 22.8464 19.1752 22.8401C21.6321 22.8303 24.0904 22.8303 26.5501 22.8401C27.6568 22.8401 28.1734 23.3504 28.2658 24.4613C28.2763 24.5999 28.2658 24.7406 28.2763 24.8813C28.3246 26.8909 28.3309 28.9005 28.3981 30.9123C28.543 35.2654 28.5493 39.6228 28.6375 43.9801C28.7341 48.7533 28.8643 53.5264 28.9567 58.2996C28.9693 58.8771 29.1667 59.1123 29.7399 59.0871C30.3699 59.0577 31.0251 59.0703 31.6677 59.0871C32.1528 59.0871 32.3586 58.8771 32.3838 58.3878C32.5434 55.3485 32.7162 52.312 32.9024 49.2783C33.111 45.8834 33.3322 42.4878 33.566 39.0915C33.6269 38.1843 34.1561 37.6404 35.0738 37.6215C36.7537 37.5879 38.4302 37.5879 40.1031 37.6215C41.1006 37.6404 41.6277 38.1885 41.6907 39.2049C41.93 43.0478 42.1484 46.8906 42.3857 50.7335C42.5432 53.2954 42.7238 55.8553 42.875 58.4172C42.9002 58.8603 43.043 59.0472 43.505 59.0955C45.5944 59.2718 45.6658 59.2677 45.8149 57.2202C46.0669 53.9107 46.2517 50.597 46.4617 47.2854C46.6339 44.5849 46.7935 41.8823 46.9762 39.1839C47.0455 38.1738 47.581 37.6383 48.5847 37.6194C50.2332 37.5879 51.8816 37.59 53.5301 37.6194C54.5464 37.6362 55.0441 38.1696 55.105 39.1923C55.385 43.8709 55.6699 48.5482 55.9597 53.224C56.0647 54.9229 56.1928 56.6196 56.2768 58.3185C56.302 58.833 56.4721 59.064 57.0139 59.0976C59.0109 59.2235 59.0676 59.2445 59.2671 57.2937C59.4771 55.2421 59.5674 53.1778 59.6871 51.1178C59.9265 47.1909 60.1449 43.2641 60.3906 39.3372C60.4662 38.1297 61.01 37.6236 62.2028 37.6131C63.7428 37.5991 65.2792 37.5991 66.8121 37.6131C67.965 37.6257 68.4438 38.0793 68.5194 39.2175C68.7504 42.779 68.9744 46.3419 69.1914 49.9061C69.3615 52.6361 69.54 55.366 69.6933 58.0959C69.7332 58.8141 69.9936 59.127 70.7705 59.1123C73.0049 59.0661 75.2413 59.0808 77.4756 59.1123C79.5272 59.1312 81.0623 60.0845 81.6755 61.7267C81.944 62.3923 82.0258 63.1187 81.9118 63.8274C81.7978 64.5361 81.4924 65.2002 81.0287 65.7481C80.7383 66.0852 80.5815 66.5169 80.5877 66.9618C80.5982 72.1297 80.6087 77.2977 80.5877 82.4677C80.5877 83.23 80.846 83.4358 81.56 83.3959C82.4798 83.3455 83.4037 83.4106 84.3256 83.3749C84.9976 83.3518 85.5288 83.5534 85.911 84.1119C85.911 84.7251 86.1504 85.5819 85.8438 85.8885C85.5372 86.1951 84.6847 85.9557 84.0694 85.9557L0.731481 85.9368ZM51.0543 61.8443H24.9878C24.6014 61.8443 24.2066 61.796 23.8265 61.9325C23.1567 62.1698 22.8291 62.6359 22.9152 63.3457C23.0013 64.0555 23.4171 64.3831 24.0848 64.4356C24.4754 64.465 24.8681 64.4587 25.2587 64.4587H68.6727C69.1744 64.4274 69.6781 64.4691 70.1678 64.5826C70.8461 64.78 71.2178 65.2126 71.1842 65.9286C71.1422 66.672 70.6865 67.092 69.9621 67.1886C69.6276 67.2177 69.2916 67.2247 68.9562 67.2096C54.3967 67.2096 39.842 67.204 25.2923 67.1928C24.4355 67.1928 24.2003 67.4448 24.2066 68.2848C24.2444 72.9046 24.2234 77.5035 24.2255 82.1128C24.2255 83.3728 24.2255 83.3728 25.4498 83.3728H76.749C76.9443 83.3728 77.1396 83.3602 77.3349 83.3728C77.8158 83.4043 77.9649 83.1628 77.9649 82.7113C77.9649 77.7652 77.9649 72.8206 77.9649 67.8774C77.9649 67.3482 77.7213 67.2054 77.2425 67.2159C76.5427 67.2487 75.8415 67.2403 75.1426 67.1907C74.829 67.1853 74.5299 67.0583 74.3081 66.8366C74.0864 66.6149 73.9594 66.3157 73.954 66.0021C73.8973 65.2672 74.2207 64.7422 74.9704 64.5952C75.3535 64.523 75.7419 64.4823 76.1317 64.4734C76.7742 64.4503 77.4189 64.4734 78.0573 64.4356C78.3421 64.4342 78.6154 64.3233 78.8207 64.1259C79.0259 63.9285 79.1474 63.6596 79.1598 63.3751C79.2396 62.7241 79.0002 62.2306 78.3576 61.9724C77.9544 61.8086 77.5323 61.8569 77.1165 61.8548L51.0543 61.8443ZM26.2016 55.0909C26.1512 53.6398 26.1008 52.1888 26.0609 50.7398C25.8908 44.4883 25.7942 38.2347 25.6619 31.9832C25.6241 30.1143 25.5443 28.2453 25.5191 26.3764C25.5191 25.7968 25.2944 25.5826 24.7232 25.5931C23.4632 25.6183 22.2033 25.633 20.9538 25.5931C20.242 25.5679 20.0572 25.8535 20.0572 26.5255C20.0572 28.785 19.99 31.0467 19.9354 33.3062C19.8136 38.4412 19.6981 43.5763 19.5889 48.7113C19.4839 53.6503 19.3789 58.581 19.2487 63.5284C19.0828 69.6182 18.9946 75.708 18.8917 81.7831C18.8623 83.5576 18.6817 83.3077 20.4267 83.3875C21.3129 83.4295 21.4935 83.104 21.4872 82.285C21.4536 77.2578 21.4641 72.2305 21.4767 67.2033C21.4974 66.622 21.3164 66.0515 20.9643 65.5885C19.0996 63.0685 20.5254 59.6897 23.6207 59.2194C24.1173 59.1462 24.6182 59.1055 25.1201 59.0976C26.2142 59.0724 26.2121 59.0808 26.2037 57.9426C26.1953 56.9892 26.2016 56.0505 26.2016 55.0909ZM6.67219 77.9025C6.67219 79.4669 6.68899 81.0314 6.67219 82.5937C6.66169 83.1733 6.86748 83.3791 7.45126 83.3749C10.0762 83.3518 12.7011 83.3581 15.3281 83.3749C15.809 83.3749 16.1219 83.3056 16.1303 82.7071C16.1744 79.5803 16.2416 76.4535 16.3151 73.3267C16.3277 72.7954 16.1387 72.5665 15.5885 72.5791C14.5385 72.6043 13.4655 72.5917 12.4029 72.5791C11.3865 72.5791 10.7944 72.1003 10.7608 71.3024C10.7272 70.5044 11.2626 69.95 12.2811 69.8744C13.1211 69.8114 13.9611 69.845 14.801 69.8408C16.691 69.8261 16.4075 69.9983 16.481 68.1756C16.5062 67.4637 16.3172 67.1865 15.5528 67.1991C12.7599 67.239 9.96698 67.2117 7.17407 67.2201C6.89605 67.2176 6.61904 67.2537 6.3509 67.3272C5.77132 67.4952 5.49203 67.9152 5.47103 68.5115C5.4482 68.7789 5.51508 69.0462 5.6611 69.2714C5.80712 69.4965 6.02397 69.6666 6.2774 69.7547C6.51461 69.8409 6.75735 69.9111 7.00398 69.9647C7.26753 70.0134 7.50799 70.1468 7.68878 70.3447C7.86958 70.5425 7.98084 70.794 8.00565 71.0609C8.08544 71.6908 7.86915 72.2095 7.28327 72.43C6.73939 72.64 6.68059 72.9865 6.68689 73.48C6.68059 74.9499 6.67009 76.4199 6.67009 77.9025H6.67219ZM51.1047 59.0871C51.6611 59.0871 52.2218 59.064 52.7846 59.0871C53.4146 59.1186 53.6393 58.9863 53.5826 58.2471C53.3369 55.0783 53.192 51.9011 52.9988 48.7281C52.8413 46.141 52.6565 43.5539 52.5053 40.9583C52.4759 40.4628 52.2155 40.2822 51.806 40.3704C51.0753 40.53 50.1954 39.9126 49.6074 40.7903C49.5675 40.8512 49.5927 40.9541 49.5885 41.0381C49.5276 42.2078 49.4793 43.3775 49.4037 44.5471C49.2567 46.7709 49.0803 48.9948 48.9438 51.2207C48.7989 53.5873 48.6918 55.954 48.5553 58.3206C48.5238 58.8519 48.717 59.1018 49.2672 59.0829C49.8699 59.0682 50.4873 59.085 51.1026 59.0871H51.1047ZM37.3921 59.0871C38.0557 59.0871 38.5891 59.0535 39.1161 59.0871C39.8679 59.148 40.1808 58.8981 40.1115 58.0959C39.9624 56.3466 39.8784 54.5911 39.7692 52.8461C39.5487 49.3119 39.3387 45.7798 39.1035 42.2477C38.9754 40.3095 38.9586 40.3095 36.9805 40.3683C36.9246 40.3714 36.8685 40.3714 36.8125 40.3683C36.3526 40.3389 36.1825 40.5531 36.1552 41.0129C35.834 46.2145 35.4917 51.416 35.1683 56.6175C35.12 57.3903 34.8386 58.4067 35.2124 58.8813C35.6618 59.4608 36.7306 58.9905 37.39 59.0871H37.3921ZM64.519 59.0871C65.1049 59.0871 65.6929 59.064 66.2788 59.0871C66.9088 59.1165 67.0998 58.896 67.0473 58.2471C66.8583 55.8847 66.724 53.518 66.5791 51.1514C66.3964 48.1737 66.2557 45.1918 66.0373 42.2162C65.8945 40.2822 65.8483 40.3053 63.8785 40.3515C63.2717 40.3641 63.0218 40.6055 62.9966 41.1914C62.9483 42.3905 62.8895 43.5874 62.8139 44.7844C62.669 47.067 62.501 49.3476 62.3582 51.6302C62.2217 53.8288 62.1188 56.0295 61.9697 58.2282C61.9235 58.9086 62.2049 59.127 62.8433 59.0871C63.3977 59.0598 63.9583 59.0871 64.5169 59.0871H64.519Z" fill="#0AE02D"/>
<path d="M85.9068 18.1993C85.4301 21.1392 84.3759 23.8523 82.4713 26.179C79.5503 29.7489 75.8166 31.8489 71.1926 32.168C65.1742 32.5985 60.3674 30.3138 56.766 25.4944C56.4174 25.0304 56.1046 24.9716 55.5628 25.1123C51.5309 26.1475 47.8749 25.3496 44.6536 22.7078C44.1349 22.2878 43.715 22.2207 43.0787 22.4139C39.8847 23.3777 36.949 22.8023 34.3451 20.7192C33.9251 20.3832 33.6605 20.4105 33.2552 20.6646C32.4434 21.1661 31.5147 21.447 30.561 21.4794C29.6349 21.5256 28.9923 21.1035 28.881 20.337C28.7697 19.5705 29.3178 18.9427 30.2145 18.8272C31.192 18.7158 32.1013 18.2708 32.789 17.5672C33.5954 16.7587 34.3073 16.8259 35.0989 17.6638C37.5874 20.295 40.0611 20.8011 43.4273 19.3626C44.3596 18.9637 44.8027 19.0687 45.6469 19.9338C46.5508 20.8928 47.6493 21.6473 48.8688 22.1468C50.0883 22.6463 51.4005 22.8791 52.7174 22.8296C53.752 22.8006 54.7732 22.5873 55.7329 22.1997C57.2217 21.6222 57.5451 21.7188 58.4082 23.0921C60.5312 26.4688 63.5467 28.531 67.4484 29.3205C75.1005 30.8703 82.675 24.959 83.2231 17.1808C83.7292 10.0054 78.6032 3.95126 72.1102 2.92859C68.217 2.31121 64.6891 3.18688 61.5644 5.6144C61.409 5.73409 61.262 5.86219 61.1108 5.98609C59.729 7.13265 59.5421 7.13685 58.0827 6.04698C54.1264 3.09028 49.1034 3.47456 45.5986 6.99825C44.7019 7.89912 44.3617 7.96422 43.2257 7.44763C39.4731 5.74039 35.4076 7.42663 33.986 11.28C33.4547 12.7269 32.9675 12.96 31.5039 12.4266C29.343 11.6538 27.3859 12.7437 26.9365 14.9738C26.6614 16.3409 26.1112 16.6768 24.7442 16.3157C23.6795 16.0343 23.1461 16.3577 22.8542 17.4664C22.5742 18.5108 22.0059 18.9392 21.1491 18.7516C20.4036 18.5899 20.013 17.8549 20.1558 16.8868C20.2955 15.9963 20.7279 15.1776 21.3846 14.5601C22.0413 13.9425 22.885 13.5613 23.7824 13.4765C24.2906 13.4387 24.5678 13.2854 24.803 12.8151C26.0125 10.4106 28.333 9.15068 31.0083 9.47407C31.5501 9.53917 31.7999 9.42157 32.0582 8.95749C34.3157 4.88362 38.8683 3.09448 43.3055 4.54763C43.5064 4.63311 43.7284 4.65579 43.9424 4.61269C44.1564 4.56958 44.3524 4.46272 44.5045 4.30614C46.452 2.59762 48.9035 1.57075 51.4872 1.38127C54.0709 1.19179 56.646 1.85004 58.8219 3.25618C59.3343 3.58587 59.6744 3.64677 60.212 3.24358C69.9662 -4.06208 83.9014 1.63922 85.8039 13.6928C85.8285 13.8016 85.8615 13.9083 85.9026 14.012L85.9068 18.1993Z" fill="#0AE02D"/>
<path d="M60.4619 72.556C60.4619 73.0012 60.4892 73.4506 60.4619 73.8937C60.401 74.6791 59.9118 75.1978 59.2314 75.2482C59.0635 75.2677 58.8934 75.2536 58.731 75.2068C58.5686 75.1599 58.4172 75.0813 58.2855 74.9754C58.1538 74.8694 58.0444 74.7384 57.9638 74.5898C57.8832 74.4413 57.833 74.2782 57.816 74.11C57.6257 73.0678 57.6343 71.9991 57.8412 70.9601C57.9966 70.2188 58.5132 69.8954 59.2566 69.9521C60 70.0088 60.359 70.4666 60.4472 71.1407C60.4802 71.6139 60.4837 72.0887 60.4577 72.5624L60.4619 72.556Z" fill="#0AE02D"/>
<path d="M65.8293 72.6401C65.8563 73.1137 65.8528 73.5886 65.8188 74.0618C65.7307 74.7421 65.3191 75.1852 64.6114 75.2398C63.9037 75.2944 63.3976 74.9563 63.2443 74.2717C62.9903 73.1527 62.9903 71.991 63.2443 70.8719C63.4018 70.179 63.9331 69.8913 64.6366 69.9438C64.935 69.9503 65.2203 70.0676 65.437 70.273C65.6536 70.4783 65.786 70.757 65.8083 71.0546C65.8518 71.582 65.8574 72.1119 65.8251 72.6401H65.8293Z" fill="#0AE02D"/>
<path d="M33.6332 72.64C33.5996 73.1671 33.6773 73.69 33.5219 74.2192C33.3119 74.8995 32.8688 75.2481 32.1717 75.2355C31.8721 75.2481 31.5789 75.1468 31.351 74.952C31.1231 74.7572 30.9774 74.4834 30.9432 74.1855C30.7822 73.1371 30.7787 72.0705 30.9327 71.021C30.9605 70.7078 31.1101 70.418 31.3492 70.2139C31.5883 70.0097 31.8979 69.9074 32.2116 69.929C32.9297 69.929 33.3392 70.2986 33.5303 70.9789C33.6836 71.5375 33.5954 72.094 33.6332 72.64Z" fill="#0AE02D"/>
<path d="M36.2603 72.5791C36.2294 72.1062 36.2343 71.6317 36.275 71.1595C36.38 70.4666 36.758 69.9773 37.535 69.9395C37.7028 69.9207 37.8728 69.9358 38.0347 69.984C38.1966 70.0322 38.3472 70.1124 38.4775 70.22C38.6078 70.3275 38.7151 70.4602 38.7931 70.61C38.8711 70.7599 38.9181 70.9239 38.9314 71.0924C39.0739 72.0871 39.0703 73.0973 38.9209 74.0911C38.8941 74.4171 38.7414 74.7199 38.4953 74.9355C38.2492 75.151 37.9289 75.2624 37.6021 75.246C36.9092 75.246 36.3569 74.7609 36.2666 73.9987C36.2358 73.5261 36.2323 73.0521 36.2561 72.5791H36.2603Z" fill="#0AE02D"/>
<path d="M49.706 72.6107C49.7355 73.0828 49.7313 73.5565 49.6934 74.0281C49.5927 74.7358 49.1685 75.2083 48.4188 75.2398C48.2572 75.259 48.0935 75.2456 47.9372 75.2005C47.7809 75.1553 47.6352 75.0793 47.5087 74.977C47.3823 74.8746 47.2776 74.7479 47.2009 74.6044C47.1242 74.4609 47.0771 74.3035 47.0622 74.1415C46.8836 73.0991 46.8836 72.034 47.0622 70.9916C47.1861 70.3133 47.6565 69.9417 48.3768 69.9417C49.0971 69.9417 49.5276 70.3616 49.6598 71.0294C49.73 71.5535 49.7623 72.0819 49.7564 72.6107H49.706Z" fill="#0AE02D"/>
<path d="M55.0903 72.6736C55.0903 73.0936 55.1218 73.5136 55.0903 73.9336C55.0168 74.7148 54.5129 75.2355 53.8304 75.2523C53.0408 75.2691 52.5494 74.8513 52.4318 74.0932C52.2764 73.1004 52.2764 72.0894 52.4318 71.0966C52.5515 70.3427 53.0219 69.9143 53.8283 69.9458C54.5192 69.9731 55.021 70.4708 55.0882 71.2583C55.1197 71.7224 55.0903 72.1991 55.0903 72.6736Z" fill="#0AE02D"/>
<path d="M44.3281 72.64C44.3596 73.1114 44.3554 73.5845 44.3155 74.0553C44.2042 74.763 43.7716 75.2103 43.0198 75.2481C42.8511 75.2606 42.6815 75.2393 42.5211 75.1854C42.3607 75.1315 42.2126 75.0461 42.0857 74.9342C41.9587 74.8224 41.8554 74.6862 41.7818 74.5338C41.7082 74.3815 41.6657 74.2159 41.657 74.0469C41.5782 73.0756 41.5782 72.0994 41.657 71.128C41.7242 70.3448 42.2974 69.9311 43.0303 69.95C43.8052 69.971 44.2063 70.4414 44.3134 71.1385C44.3572 71.6379 44.3621 72.1399 44.3281 72.64Z" fill="#0AE02D"/>
<path d="M71.1862 72.659C71.2132 73.1319 71.2097 73.606 71.1757 74.0785C71.1572 74.3904 71.0213 74.6837 70.7954 74.8995C70.5694 75.1154 70.2702 75.2377 69.9578 75.2419C69.2543 75.2902 68.7524 74.9395 68.6012 74.257C68.3678 73.1637 68.3642 72.0339 68.5907 70.9391C68.7293 70.2356 69.2375 69.9207 69.9347 69.9417C70.2472 69.9329 70.5508 70.0462 70.7813 70.2575C71.0118 70.4687 71.151 70.7614 71.1694 71.0735C71.21 71.6011 71.215 72.1307 71.1841 72.659H71.1862Z" fill="#0AE02D"/>
</svg>
