<svg width="25" height="25" viewBox="0 0 25 25" fill="none" xmlns="http://www.w3.org/2000/svg">
<path d="M12.4141 7.55798C14.875 7.55798 16.9062 9.58923 16.9062 12.0502C16.9062 14.5502 14.875 16.5424 12.4141 16.5424C9.91406 16.5424 7.92188 14.5502 7.92188 12.0502C7.92188 9.58923 9.91406 7.55798 12.4141 7.55798ZM12.4141 14.9799C14.0156 14.9799 15.3047 13.6908 15.3047 12.0502C15.3047 10.4486 14.0156 9.15955 12.4141 9.15955C10.7734 9.15955 9.48438 10.4486 9.48438 12.0502C9.48438 13.6908 10.8125 14.9799 12.4141 14.9799ZM18.1172 7.40173C18.1172 7.98767 17.6484 8.45642 17.0625 8.45642C16.4766 8.45642 16.0078 7.98767 16.0078 7.40173C16.0078 6.8158 16.4766 6.34705 17.0625 6.34705C17.6484 6.34705 18.1172 6.8158 18.1172 7.40173ZM21.0859 8.45642C21.1641 9.90173 21.1641 14.2377 21.0859 15.683C21.0078 17.0892 20.6953 18.3002 19.6797 19.3549C18.6641 20.3705 17.4141 20.683 16.0078 20.7611C14.5625 20.8392 10.2266 20.8392 8.78125 20.7611C7.375 20.683 6.16406 20.3705 5.10938 19.3549C4.09375 18.3002 3.78125 17.0892 3.70312 15.683C3.625 14.2377 3.625 9.90173 3.70312 8.45642C3.78125 7.05017 4.09375 5.80017 5.10938 4.78455C6.16406 3.76892 7.375 3.45642 8.78125 3.3783C10.2266 3.30017 14.5625 3.30017 16.0078 3.3783C17.4141 3.45642 18.6641 3.76892 19.6797 4.78455C20.6953 5.80017 21.0078 7.05017 21.0859 8.45642ZM19.2109 17.2064C19.6797 16.0736 19.5625 13.3392 19.5625 12.0502C19.5625 10.8002 19.6797 8.0658 19.2109 6.89392C18.8984 6.15173 18.3125 5.52673 17.5703 5.2533C16.3984 4.78455 13.6641 4.90173 12.4141 4.90173C11.125 4.90173 8.39062 4.78455 7.25781 5.2533C6.47656 5.5658 5.89062 6.15173 5.57812 6.89392C5.10938 8.0658 5.22656 10.8002 5.22656 12.0502C5.22656 13.3392 5.10938 16.0736 5.57812 17.2064C5.89062 17.9877 6.47656 18.5736 7.25781 18.8861C8.39062 19.3549 11.125 19.2377 12.4141 19.2377C13.6641 19.2377 16.3984 19.3549 17.5703 18.8861C18.3125 18.5736 18.9375 17.9877 19.2109 17.2064Z" fill="black"/>
</svg>
