<svg width="196" height="27" viewBox="0 0 196 27" fill="none" xmlns="http://www.w3.org/2000/svg">
<g clip-path="url(#clip0_2191_83)">
<path d="M0.5 0.370117H4.24733L15.1655 14.8968V0.370117H18.9128V21.0036H15.1655L4.24733 6.47688V21.0036H0.5V0.370117Z" fill="black"/>
<path d="M33.3916 16.5623L35.7048 18.968C34.3631 20.4022 31.6336 21.3737 29.4129 21.3737C24.9717 21.3737 21.3169 17.9965 21.3169 13.1851C21.2706 8.55874 24.7866 5.08899 29.1816 5.08899C33.993 5.08899 36.7688 8.74379 36.7688 14.4804H25.0642C25.5268 16.6086 27.146 18.1353 29.3667 18.1353C30.8008 18.1353 32.5126 17.4876 33.3916 16.5623ZM25.1105 11.7046H33.2991C32.8827 9.76159 31.5411 8.37369 29.3667 8.37369C27.2848 8.37369 25.6193 9.66906 25.1105 11.7046Z" fill="black"/>
<path d="M36.7227 5.45905H40.3775L43.6159 16.0534L47.0856 5.45905H50.139L53.6088 16.0534L56.8472 5.45905H60.502L55.2743 21.0035H51.9433L48.6123 10.363L45.3276 21.0035H41.9967L36.7227 5.45905Z" fill="black"/>
<path d="M80.0262 0.370117V21.0036H76.2789V12.2135H65.9622V21.0036H62.2148V0.370117H65.9622V8.79005H76.2789V0.370117H80.0262Z" fill="#00BC04"/>
<path d="M82.7113 25.6299L83.4977 22.9929C84.1454 23.363 84.9319 23.548 85.4871 23.548C86.3661 23.548 87.0138 23.2704 87.4764 22.5302L88.1241 21.1423L81.5547 5.45905H85.4408L89.9746 17.0711L94.2308 5.45905H98.0244L91.455 22.0676C90.2985 25.0284 88.4942 26.3701 86.1348 26.4163C84.9319 26.4163 83.6365 26.1388 82.7113 25.6299Z" fill="#00BC04"/>
<path d="M115.232 0V21.0036H111.577V18.5979C110.328 20.3559 108.477 21.3737 106.21 21.3737C102.093 21.3737 99.0859 17.9964 99.0859 13.2313C99.0859 8.46619 102.093 5.13523 106.21 5.13523C108.477 5.13523 110.374 6.15302 111.577 7.91103V0H115.232ZM111.577 13.2313C111.577 10.3167 109.773 8.23487 107.182 8.23487C104.545 8.23487 102.694 10.3167 102.694 13.2313C102.694 16.1459 104.545 18.274 107.182 18.274C109.773 18.2278 111.577 16.1459 111.577 13.2313Z" fill="#00BC04"/>
<path d="M127.492 5.08899V8.2349C124.161 8.2349 121.94 10.2242 121.94 13.1851V21.0498H118.285V5.4591H121.94V8.46621C122.911 6.38436 124.947 5.08899 127.492 5.08899Z" fill="#00BC04"/>
<path d="M161.68 5.4591V19.3381C161.68 23.3167 158.302 26.1851 153.584 26.1851C150.9 26.1851 148.448 25.3061 146.922 24.1032L148.263 21.42C149.327 22.3915 151.224 23.0392 153.028 23.0392C156.082 23.0392 158.025 21.5587 158.025 19.1993V17.1637C156.776 18.8292 154.925 19.8007 152.705 19.8007C148.68 19.8007 145.719 16.7474 145.719 12.3986C145.719 8.04984 148.68 5.04272 152.705 5.04272C154.879 5.04272 156.914 6.06052 158.025 7.726V5.41283H161.68V5.4591ZM158.025 12.4911C158.025 10.0392 156.267 8.2349 153.769 8.2349C151.317 8.2349 149.512 9.9929 149.512 12.4911C149.512 14.9893 151.27 16.7474 153.769 16.7474C156.221 16.7474 158.025 14.9893 158.025 12.4911Z" fill="#00BC04"/>
<path d="M175.883 16.5623L178.196 18.968C176.855 20.4022 174.125 21.3737 171.905 21.3737C167.463 21.3737 163.809 17.9965 163.809 13.1851C163.809 8.51248 167.278 5.08899 171.72 5.08899C176.531 5.08899 179.307 8.74379 179.307 14.4804H167.602C168.065 16.6086 169.684 18.1353 171.905 18.1353C173.293 18.1353 175.004 17.4876 175.883 16.5623ZM167.556 11.7046H175.745C175.328 9.76159 173.987 8.37369 171.812 8.37369C169.777 8.37369 168.111 9.66906 167.556 11.7046Z" fill="#00BC04"/>
<path d="M195.499 11.1032V21.0036H191.937V11.8434C191.937 9.76159 190.595 8.2349 188.652 8.2349C186.709 8.2349 185.136 9.53027 184.905 11.1958V21.0498H181.25V5.4591H184.905V7.54095C185.876 6.10678 187.681 5.08899 189.716 5.08899C193.14 5.08899 195.499 7.58721 195.499 11.1032Z" fill="#00BC04"/>
<path d="M139.382 9.43769C141.068 9.43769 142.435 8.07065 142.435 6.38431C142.435 4.69798 141.068 3.33093 139.382 3.33093C137.695 3.33093 136.328 4.69798 136.328 6.38431C136.328 8.07065 137.695 9.43769 139.382 9.43769Z" fill="#00BC04"/>
<path d="M142.157 7.67974C140.723 6.19931 138.734 5.22778 136.606 5.13525C136.421 5.50536 136.328 5.92173 136.328 6.38436C136.328 7.12458 136.606 7.81853 137.068 8.37369C137.855 8.55874 138.549 8.92885 139.15 9.43774C139.243 9.43774 139.335 9.48401 139.428 9.48401C140.584 9.43774 141.648 8.69753 142.157 7.67974Z" fill="#00BC04"/>
<path d="M143.315 9.20643C142.621 10.178 141.603 10.8719 140.4 11.1032C140.678 11.7509 140.863 12.4449 140.863 13.1851C140.863 15.9146 138.688 18.2278 136.144 18.2278C133.553 18.2278 131.379 15.9609 131.379 13.1851C131.379 10.9182 132.905 8.92885 134.987 8.37369C134.71 7.77227 134.525 7.07832 134.525 6.3381C134.525 5.968 134.571 5.59789 134.663 5.22778C130.824 5.92173 127.816 9.29896 127.816 13.1851C127.816 17.6264 131.656 21.3274 136.144 21.3274C140.631 21.3274 144.471 17.5801 144.471 13.1851C144.471 11.7972 144.009 10.4093 143.315 9.20643Z" fill="#00BC04"/>
</g>
<defs>
<clipPath id="clip0_2191_83">
<rect width="195" height="26.4164" fill="white" transform="translate(0.5)"/>
</clipPath>
</defs>
</svg>
