<svg width="44" height="44" viewBox="0 0 44 44" fill="none" xmlns="http://www.w3.org/2000/svg">
<path d="M30.9648 33.7866H23.7982L15.8252 39.2132C14.6427 40.0198 13.0482 39.1582 13.0482 37.6916V33.7866C7.67318 33.7866 4.08984 30.1199 4.08984 24.6199V13.6198C4.08984 8.11979 7.67318 4.45312 13.0482 4.45312H30.9648C36.3398 4.45312 39.9232 8.11979 39.9232 13.6198V24.6199C39.9232 30.1199 36.3398 33.7866 30.9648 33.7866Z" stroke="#84CD00" stroke-width="3" stroke-miterlimit="10" stroke-linecap="round" stroke-linejoin="round"/>
<path d="M22.0054 20.8281V20.4432C22.0054 19.1965 22.7579 18.5365 23.5104 18.0048C24.245 17.4915 24.9795 16.8315 24.9795 15.6215C24.9795 13.9349 23.6537 12.5781 22.0054 12.5781C20.357 12.5781 19.0312 13.9349 19.0312 15.6215" stroke="#84CD00" stroke-width="3" stroke-linecap="round" stroke-linejoin="round"/>
<path d="M21.9971 25.2096H22.0133" stroke="#84CD00" stroke-width="3" stroke-linecap="round" stroke-linejoin="round"/>
</svg>
