<svg width="66" height="67" viewBox="0 0 66 67" fill="none" xmlns="http://www.w3.org/2000/svg">
<path d="M0.0295649 33.0359C0.0295649 23.9311 0.0809047 14.8246 0.000218066 5.71247C-0.0272887 2.68122 2.55101 -0.0291045 5.7308 0.000236041C14.4229 0.0845902 23.1163 0.0845902 31.8109 0.000236041C34.8073 -0.025437 37.4957 2.5382 37.4847 5.69598C37.426 19.7648 37.459 33.8354 37.459 47.9042C37.459 49.2631 37.1802 49.5363 35.8086 49.5381C35.0531 49.5381 34.2975 49.5253 33.5438 49.5381C33.1312 49.5381 32.9479 49.3731 32.9809 48.966C32.9827 48.9434 32.9827 48.9207 32.9809 48.8982C32.913 47.2881 32.913 47.2679 34.5212 47.2477C35.0384 47.2477 35.1851 47.0643 35.1832 46.5637C35.1686 42.6516 35.1686 38.7396 35.1832 34.8275C35.1832 34.2535 34.9577 34.1453 34.4497 34.1435C32.7993 34.1343 33.012 34.4314 32.9662 32.6398C32.9497 32.0438 33.1367 31.8421 33.7456 31.8494C35.1722 31.8678 35.1722 31.8403 35.1722 30.3824C35.1722 26.7919 35.1557 23.1995 35.1869 19.6089C35.1869 18.9377 34.9834 18.7525 34.3305 18.7635C32.8232 18.791 32.9864 18.9671 32.9772 17.4194C32.9772 16.4915 32.9772 16.5025 33.9344 16.4878C35.3208 16.4878 35.1686 16.6455 35.1704 15.2317C35.1704 12.1668 35.1704 9.10131 35.1704 6.03522C35.1704 5.10549 34.9999 4.21611 34.3709 3.46792C33.6374 2.61154 32.6783 2.31447 31.6202 2.3108C27.9361 2.29246 24.2539 2.3108 20.5698 2.29613C20.1388 2.29613 19.8363 2.36765 19.8931 2.88845C19.9084 2.9561 19.9013 3.02687 19.873 3.09016C19.3833 3.73932 18.6975 3.27354 18.1125 3.38723C17.7806 3.45142 17.5826 3.26253 17.6156 2.91228C17.6687 2.34747 17.3423 2.2943 16.882 2.29613C13.2456 2.30713 9.60741 2.29613 5.97102 2.30713C3.69712 2.31813 2.34745 3.62563 2.32728 5.86835C2.29794 9.18567 2.32729 12.503 2.31078 15.8185C2.31078 16.3283 2.47583 16.4896 2.98379 16.4933C4.58469 16.5043 4.56817 16.5208 4.52416 18.1437C4.50948 18.6223 4.34079 18.7672 3.87317 18.78C2.31812 18.8185 2.31813 18.8332 2.31813 20.3993C2.31813 23.922 2.33462 27.4447 2.30528 30.9692C2.30528 31.6404 2.45014 31.8861 3.17266 31.8733C4.67086 31.8329 4.50399 31.6716 4.51316 33.2248C4.51316 34.1417 4.51316 34.1417 3.54675 34.1417C2.19342 34.1417 2.3218 33.9913 2.31996 35.341C2.31996 39.0232 2.33462 42.7073 2.30528 46.3895C2.30528 47.0534 2.48866 47.2532 3.15616 47.2404C4.66536 47.2129 4.50399 47.035 4.51316 48.5791C4.51316 49.5125 4.51315 49.5088 3.56325 49.5161C2.17324 49.5271 2.32363 49.3566 2.31996 50.7668C2.31996 53.8316 2.31996 56.8971 2.31996 59.9632C2.31996 60.8929 2.48866 61.7823 3.11582 62.5305C3.81999 63.3649 4.76623 63.6821 5.80232 63.6895C9.53041 63.7115 13.2585 63.6895 16.9884 63.706C17.4194 63.706 17.6394 63.5758 17.6009 63.121C17.5679 62.7322 17.7751 62.591 18.1419 62.6039C18.5086 62.6167 18.8277 62.6185 19.1706 62.6039C19.6236 62.5782 19.9408 62.6681 19.8913 63.2255C19.8491 63.706 20.1884 63.706 20.5294 63.706C22.244 63.706 23.9605 63.7298 25.6769 63.6913C26.3169 63.6785 26.5039 63.9022 26.4856 64.5202C26.4342 66.2238 26.669 65.9872 25.0314 65.9872C18.552 65.9958 12.0781 65.9958 5.60976 65.9872C2.40431 65.9872 0.0295631 63.6033 0.0277293 60.3905C0.0277293 51.2814 0.0283424 42.1633 0.0295649 33.0359Z" fill="#0AE02D"/>
<path d="M63.7206 46.1585C63.7206 42.0636 63.7077 37.9688 63.7334 33.8721C63.7334 33.2376 63.55 33.0579 62.9174 33.0597C55.4832 33.0793 48.0496 33.0836 40.6167 33.0726C39.5623 33.0726 39.5568 33.0726 39.5623 32.0328C39.5623 30.6446 39.4302 30.7858 40.8184 30.784C48.1377 30.784 55.4569 30.784 62.7762 30.784C63.7151 30.784 63.7793 30.6997 63.5409 29.7534C63.0421 27.7766 61.3128 26.5149 59.0041 26.4929C56.8035 26.4709 54.6079 26.4709 52.4171 26.4929C51.8175 26.5021 51.6121 26.3187 51.6304 25.7117C51.6818 23.9458 51.447 24.2117 53.1085 24.1952C54.5938 24.1805 56.081 24.175 57.5682 24.1952C58.0798 24.2044 58.2486 24.0265 58.2375 23.5204C58.1972 21.8315 58.4209 22.0919 56.8274 22.0882C52.1164 22.0772 47.4035 22.0882 42.6925 22.0717C42.0379 22.0717 41.7463 22.2551 41.849 22.9152C41.8563 23.0068 41.8563 23.0987 41.849 23.1903C41.849 24.186 41.849 24.186 42.8668 24.186C43.0035 24.1952 43.1408 24.1952 43.2775 24.186C43.8863 24.1035 44.0734 24.3694 44.055 24.9672C44.0055 26.7222 44.2384 26.4508 42.5715 26.4783C42.2286 26.4783 41.8839 26.4636 41.5409 26.4783C41.0146 26.5058 40.5617 26.4783 40.6442 25.7448C40.6772 25.444 40.4407 25.3542 40.1858 25.378C39.6356 25.4293 39.5531 25.1213 39.5549 24.6628C39.5641 21.2777 39.5549 17.8925 39.5549 14.5073C39.5549 13.5739 39.9474 13.2035 40.9138 13.2017C45.2843 13.2017 49.653 13.2017 54.0198 13.2017C55.7124 13.2017 57.405 13.2017 59.0976 13.2017C60.1447 13.2017 60.5078 13.5592 60.5096 14.5953C60.5096 17.5697 60.5206 20.5423 60.5004 23.5167C60.5004 24.0338 60.6416 24.2686 61.1698 24.4189C64.1167 25.2515 65.9981 27.7674 66 30.8207C66 41.387 66 51.9538 66 62.5213C66 64.6412 64.6485 66.0055 62.5396 66.0055C59.2003 66.0055 55.861 65.989 52.5216 66.0184C51.8505 66.0184 51.5882 65.8625 51.6176 65.1437C51.6836 63.5079 51.4489 63.7243 53.0516 63.7188C56.1177 63.7078 59.1819 63.7188 62.2462 63.7188C63.264 63.7188 63.6711 63.2879 63.7132 62.3233C63.7389 61.7878 63.5629 61.6045 63.0146 61.61C60.3372 61.6338 57.6617 61.621 54.9862 61.621C54.6888 61.6366 54.3907 61.6366 54.0932 61.621C53.6568 61.5733 53.0351 61.8593 52.8205 61.4247C52.5583 60.8874 52.6702 60.2071 52.7747 59.602C52.8425 59.2004 53.2588 59.3434 53.5284 59.3434C56.5248 59.3324 59.5212 59.3434 62.5139 59.3434C62.674 59.3342 62.8344 59.3342 62.9944 59.3434C63.5225 59.4057 63.7279 59.2059 63.7132 58.6521C63.6802 57.119 63.7022 55.586 63.7022 54.0548L63.7206 46.1585ZM50.057 15.5049C47.5447 15.5049 45.0325 15.5159 42.5202 15.4957C42.0177 15.4957 41.827 15.6498 41.8435 16.1632C41.8728 17.1681 41.8692 18.1804 41.8435 19.178C41.8325 19.6603 42.014 19.8106 42.4853 19.8106C47.5343 19.7984 52.5828 19.7984 57.6306 19.8106C58.0688 19.8106 58.2449 19.6639 58.2357 19.2146C58.2137 18.2336 58.1954 17.2488 58.2357 16.2696C58.2632 15.6589 58.0523 15.4884 57.4527 15.4939C54.9917 15.5214 52.5253 15.5049 50.057 15.5049Z" fill="#0AE02D"/>
<path d="M35.2144 50.5522C36.926 50.5522 38.6411 50.5522 40.36 50.5522C41.5281 50.5522 41.8454 50.8805 41.8509 52.0706C41.8546 52.139 41.8546 52.2076 41.8509 52.276C41.7812 52.8389 41.9261 53.0333 42.5642 52.8976C46.3712 52.0779 49.9269 54.438 50.565 58.2981C51.172 61.9657 48.8211 65.2995 45.0637 65.9578C44.0907 66.1346 43.0893 66.0716 42.1461 65.7745C41.8582 65.6828 41.5777 65.6314 41.3063 65.857C41.1027 66.0257 40.8368 66.0147 40.5837 66.0147C37.0164 66.0147 33.4503 66.0147 29.8854 66.0147C28.9777 66.0147 28.5889 65.6241 28.5834 64.7311C28.5749 63.3594 28.5749 61.9877 28.5834 60.616C28.5834 59.7505 28.9795 59.3599 29.8396 59.3489C30.6996 59.3379 31.5322 59.3287 32.3775 59.3489C32.8231 59.3599 32.9864 59.1912 32.9772 58.7474C32.946 56.9375 33.1606 57.2804 31.5102 57.2419C30.938 57.2309 30.3659 57.2419 29.7956 57.2419C29.0125 57.2235 28.5981 56.8311 28.5908 56.0627C28.5749 54.6214 28.5749 53.1807 28.5908 51.7405C28.5908 50.9758 29.0162 50.5742 29.8011 50.5687C31.6055 50.5449 33.41 50.5522 35.2144 50.5522ZM39.6687 59.4277C39.7268 59.9278 39.8286 60.4217 39.9731 60.9039C40.1308 61.3514 40.3013 61.4431 40.6718 61.0672C42.3222 59.3947 43.9842 57.7339 45.6578 56.0847C46.0503 55.6997 45.9842 55.5346 45.4965 55.3512C42.7494 54.295 39.6944 56.3965 39.6742 59.4277H39.6687ZM43.9469 63.6931C46.8645 63.7426 49.0228 60.7756 48.0803 58.0469C47.8309 57.3134 47.7447 57.295 47.2129 57.825C45.8559 59.1783 44.4879 60.5225 43.1547 61.8978C42.7751 62.2903 41.9554 62.6809 42.1645 63.132C42.434 63.7188 43.3271 63.5813 43.9469 63.6931ZM35.2859 52.8408C34.2792 52.8408 33.2688 52.8298 32.2675 52.8408C30.685 52.861 30.9013 52.5841 30.8628 54.2766C30.85 54.7883 31.0279 54.9551 31.5358 54.9478C33.3183 54.9258 35.1026 54.9478 36.885 54.9478C37.481 54.9478 38.0751 54.9698 38.6693 54.9478C39.3643 54.9111 39.5568 54.504 39.5751 53.4808C39.5862 52.7729 39.1497 52.8628 38.7151 52.8628L35.2859 52.8408ZM34.8935 63.728C35.8526 63.728 36.8135 63.728 37.7725 63.728C38.088 63.728 38.5317 63.8802 38.6894 63.6473C38.8728 63.3649 38.4327 63.1283 38.308 62.8496C38.2072 62.6204 38.0403 62.4168 37.9596 62.1821C37.8092 61.7383 37.5177 61.6154 37.0702 61.632C35.4932 61.6521 33.9161 61.632 32.339 61.643C30.6776 61.6631 30.8995 61.3367 30.872 63.1467C30.872 63.5904 31.0279 63.7555 31.4735 63.7463C32.6086 63.7188 33.7511 63.728 34.8935 63.728ZM36.5091 57.2345C35.1209 57.2474 35.2749 57.075 35.2621 58.4723C35.2648 58.5175 35.2648 58.5628 35.2621 58.608C35.1832 59.1783 35.4326 59.3581 35.9956 59.3416C37.2041 59.3195 37.2041 59.3416 37.4296 58.2229C37.6313 57.229 37.6313 57.229 36.6466 57.229L36.5091 57.2345Z" fill="#0AE02D"/>
<path d="M50.0406 44.0551H42.1554C41.0056 44.0551 40.6682 43.725 40.6663 42.6027C40.6663 40.6112 40.6663 38.621 40.6663 36.6319C40.6663 35.5317 41.0111 35.1796 42.0857 35.1777H58.0029C59.061 35.1777 59.4223 35.5317 59.4259 36.5622C59.4259 38.5977 59.4259 40.6333 59.4259 42.6688C59.4259 43.6993 59.0592 44.0533 58.0066 44.0551C55.35 44.0588 52.6947 44.0588 50.0406 44.0551ZM50.0131 41.7647C52.1605 41.7647 54.3079 41.7537 56.4534 41.7739C56.9448 41.7739 57.1576 41.6418 57.1392 41.1155C57.108 40.1125 57.1135 39.0984 57.1392 38.1026C57.1521 37.6313 56.9907 37.459 56.5102 37.4608C52.1935 37.4742 47.8768 37.4742 43.56 37.4608C43.0612 37.4608 42.9347 37.6625 42.9457 38.1173C42.9677 39.0984 42.975 40.0813 42.9457 41.0624C42.9274 41.596 43.1016 41.783 43.6481 41.7757C45.7661 41.75 47.8896 41.7647 50.0131 41.7647Z" fill="#0AE02D"/>
<path d="M15.4947 56.1338C15.4947 59.2509 13.0688 61.6346 9.89481 61.6255C6.80882 61.6255 4.41962 59.1959 4.42145 56.0769C4.42145 52.9158 6.84366 50.543 10.0562 50.5522C13.1256 50.5595 15.5002 52.9964 15.4947 56.1338ZM9.98098 59.2509C10.3999 59.2579 10.816 59.1804 11.2043 59.0229C11.5926 58.8655 11.9452 58.6313 12.2409 58.3345C12.5367 58.0377 12.7696 57.6844 12.9257 57.2955C13.0818 56.9067 13.1579 56.4904 13.1495 56.0714C13.1461 55.2256 12.8091 54.4153 12.2117 53.8165C11.6143 53.2177 10.8048 52.8789 9.95898 52.8736C9.11369 52.8811 8.30468 53.2181 7.70404 53.8129C7.1034 54.4077 6.75855 55.2134 6.74282 56.0586C6.73851 56.4829 6.81966 56.9037 6.98145 57.296C7.14324 57.6883 7.38234 58.044 7.68452 58.3419C7.9867 58.6398 8.34577 58.8738 8.74031 59.03C9.13485 59.1861 9.55678 59.2613 9.98098 59.2509Z" fill="#0AE02D"/>
<path d="M9.97915 19.8033C13.1128 19.8033 15.5002 22.2182 15.4947 25.3757C15.4947 28.502 13.0707 30.8765 9.90399 30.8765C6.79784 30.8765 4.41596 28.4323 4.42146 25.2656C4.42696 22.1852 6.84916 19.8015 9.97915 19.8033ZM9.97915 28.5038C10.398 28.5098 10.8137 28.4314 11.2015 28.2731C11.5893 28.1149 11.9413 27.8801 12.2364 27.5828C12.5314 27.2856 12.7635 26.9319 12.9188 26.5429C13.0742 26.1539 13.1495 25.7376 13.1403 25.3188C13.136 24.4733 12.7983 23.6637 12.2006 23.0656C11.6029 22.4676 10.7935 22.1295 9.948 22.1246C9.10284 22.1345 8.29476 22.4731 7.69505 23.0687C7.09534 23.6643 6.75116 24.4701 6.73549 25.3152C6.73061 25.7408 6.8118 26.163 6.97418 26.5565C7.13656 26.95 7.37678 27.3066 7.68041 27.6049C7.98405 27.9032 8.34484 28.1371 8.74112 28.2926C9.13741 28.448 9.56101 28.5217 9.9865 28.5093L9.97915 28.5038Z" fill="#0AE02D"/>
<path d="M4.42145 9.93335C4.42145 6.80519 6.83999 4.43248 10.0067 4.43248C10.7329 4.42576 11.4532 4.56459 12.125 4.84077C12.7968 5.11696 13.4064 5.52491 13.9179 6.04054C14.4295 6.55617 14.8325 7.16905 15.1033 7.84299C15.3741 8.51694 15.5072 9.2383 15.4947 9.96452C15.4947 13.1257 13.0725 15.5131 9.87281 15.5057C6.79782 15.4892 4.41778 13.0652 4.42145 9.93335ZM13.1715 9.95168C13.1641 9.52253 13.0719 9.09908 12.9 8.70577C12.7281 8.31246 12.4801 7.95707 12.1702 7.66011C11.8603 7.36316 11.4946 7.13051 11.0943 6.97559C10.6941 6.82068 10.2671 6.74656 9.83798 6.75751C8.13821 6.81802 6.68781 8.3271 6.73915 9.98103C6.79416 11.7706 8.28306 13.2265 10.0103 13.1807C11.7376 13.1348 13.199 11.6698 13.1715 9.95168Z" fill="#0AE02D"/>
<path d="M21.9909 9.937C21.9909 6.80884 24.4095 4.42697 27.5725 4.43614C28.2994 4.42795 29.0207 4.56557 29.6936 4.84084C30.3665 5.11612 30.9774 5.52348 31.4902 6.03884C32.003 6.55421 32.4073 7.16713 32.6792 7.8414C32.9511 8.51566 33.0851 9.23758 33.0733 9.96451C33.0733 13.1275 30.6529 15.5149 27.4551 15.5094C24.3691 15.4892 21.9891 13.067 21.9909 9.937ZM30.7428 10.0085C30.7776 8.26107 29.3621 6.82902 27.5321 6.76118C25.8635 6.70067 24.3159 8.21707 24.3068 9.92418C24.3133 10.7789 24.653 11.5974 25.2536 12.2055C25.8542 12.8137 26.6684 13.1635 27.523 13.1807C28.3668 13.1747 29.1752 12.84 29.7764 12.2478C30.3775 11.6555 30.7242 10.8522 30.7428 10.0085Z" fill="#0AE02D"/>
<path d="M27.5046 46.251C24.3746 46.251 21.9872 43.8361 21.9909 40.6731C21.9909 37.5559 24.415 35.1722 27.5835 35.1722C30.6713 35.1722 33.0678 37.5981 33.0642 40.7116C33.0605 43.8251 30.6493 46.251 27.5046 46.251ZM27.49 37.5064C25.8397 37.4844 24.3453 38.9495 24.3049 40.6474C24.2664 42.382 25.7242 43.8819 27.4991 43.9278C29.2301 43.9718 30.7538 42.4609 30.7428 40.7134C30.7341 39.8576 30.3871 39.04 29.7777 38.4392C29.1682 37.8383 28.3458 37.503 27.49 37.5064Z" fill="#0AE02D"/>
<path d="M21.9909 25.3023C21.9909 22.1852 24.4131 19.8015 27.5816 19.8015C30.6713 19.8015 33.066 22.2255 33.0642 25.339C33.0642 28.4983 30.6401 30.882 27.4386 30.8747C24.3655 30.8692 21.9872 28.436 21.9909 25.3023ZM30.7428 25.3445C30.7351 24.4885 30.3891 23.6704 29.7804 23.0685C29.1717 22.4667 28.3496 22.13 27.4936 22.132C25.8103 22.1063 24.2756 23.6502 24.3086 25.3372C24.3416 27.1103 25.8287 28.579 27.5615 28.5533C28.4047 28.5367 29.2084 28.1924 29.8023 27.5935C30.3961 26.9945 30.7334 26.1879 30.7428 25.3445Z" fill="#0AE02D"/>
<path d="M4.42145 40.6896C4.42145 37.5578 6.83633 35.1722 9.9975 35.1777C13.1147 35.1777 15.4984 37.6055 15.4984 40.774C15.4984 43.8911 13.0651 46.2583 9.88381 46.251C6.8015 46.2437 4.41962 43.8159 4.42145 40.6896ZM9.95166 43.9278C10.7952 43.9227 11.6035 43.5889 12.2048 42.9972C12.8061 42.4055 13.1529 41.6027 13.1715 40.7593C13.21 38.9862 11.7156 37.5028 9.89664 37.5046C8.22804 37.5046 6.74648 38.9898 6.73548 40.6713C6.74153 41.5261 7.08105 42.3449 7.68177 42.9531C8.28248 43.5614 9.09694 43.9111 9.95166 43.9278Z" fill="#0AE02D"/>
<path d="M21.9909 56.814C21.9909 53.7427 23.3515 51.7441 25.4858 50.9025C25.9882 50.7026 26.3219 50.7044 26.4026 51.337C26.4253 51.4723 26.4571 51.6058 26.498 51.7368C26.7675 52.8039 26.7693 52.8039 25.869 53.3503C25.3765 53.6296 24.9714 54.0405 24.699 54.5369C24.4267 55.0334 24.2979 55.5958 24.327 56.1613C24.36 57.4008 24.9449 58.4276 26.1257 58.9447C26.7088 59.2014 26.8225 59.5168 26.6061 60.0449C26.5679 60.1526 26.5372 60.2629 26.5145 60.375C26.1936 61.6273 26.1862 61.6401 25.0476 61.0534C23.0287 60.0192 22.0551 58.3286 21.9909 56.814Z" fill="#0AE02D"/>
<path d="M53.2823 52.8406C52.2096 52.8406 51.1351 52.8296 50.0643 52.8406C49.6407 52.8406 49.4353 52.7122 49.4408 52.2556C49.4702 50.1836 49.2135 50.5779 51.0599 50.5522C52.8385 50.5284 54.6208 50.5669 56.3994 50.5375C56.999 50.5265 57.2594 50.6769 57.2374 51.3352C57.1787 53.0771 57.4208 52.8131 55.7467 52.8351C54.9252 52.8497 54.1037 52.8406 53.2823 52.8406Z" fill="#0AE02D"/>
<path d="M49.9707 48.445C49.2372 48.445 48.5038 48.445 47.7813 48.445C47.4146 48.445 47.2459 48.2928 47.2496 47.9169C47.2661 45.7496 47.0149 46.2007 48.8778 46.1603C49.978 46.1383 51.0672 46.175 52.1618 46.1493C52.6643 46.1383 52.8476 46.318 52.8385 46.8241C52.8 48.7531 53.0493 48.4083 51.2707 48.445C50.838 48.445 50.4052 48.445 49.9707 48.445Z" fill="#0AE02D"/>
<path d="M12.1214 34.1726C11.0103 34.1726 11.0103 34.1726 11.0103 32.9954C11.0103 31.8824 11.0103 31.8787 12.1874 31.8843C13.4288 31.8843 13.2876 31.7981 13.2986 33.1293C13.3041 34.1726 13.2986 34.1726 12.1214 34.1726Z" fill="#0AE02D"/>
<path d="M17.6924 33.0725C17.6924 34.1727 17.6924 34.1727 16.5024 34.1727C15.4022 34.1727 15.4022 34.1727 15.4022 32.9148C15.4022 31.8806 15.4022 31.8806 16.6619 31.8825C17.6924 31.8843 17.6924 31.8843 17.6924 33.0725Z" fill="#0AE02D"/>
<path d="M22.0843 33.0633C22.0843 34.1635 22.0843 34.1635 20.9034 34.1635C19.7941 34.1635 19.7904 34.1635 19.8032 32.9826C19.8032 31.745 19.7189 31.8825 21.0519 31.8825C22.0861 31.8788 22.0861 31.8843 22.0843 33.0633Z" fill="#0AE02D"/>
<path d="M26.4707 33.0468C26.4707 34.1727 26.4707 34.1763 25.3064 34.1727C24.054 34.1727 24.1879 34.2552 24.1805 32.9405C24.1805 31.8806 24.1805 31.8806 25.4127 31.8825C26.4707 31.8843 26.4707 31.8843 26.4707 33.0468Z" fill="#0AE02D"/>
<path d="M30.8718 32.9697C30.8718 34.1726 30.8717 34.1726 29.7166 34.1726C28.5614 34.1726 28.5816 34.1726 28.5816 33.0174C28.5816 31.8622 28.5816 31.8824 29.7368 31.8824C30.8919 31.8824 30.8718 31.8824 30.8718 32.9697Z" fill="#0AE02D"/>
<path d="M19.8892 28.6714C19.8892 29.7715 19.8892 29.7715 18.7084 29.7715C17.599 29.7715 17.5954 29.7715 17.599 28.5907C17.599 27.353 17.5147 27.4905 18.8477 27.4905C19.8892 27.4868 19.8892 27.4923 19.8892 28.6714Z" fill="#0AE02D"/>
<path d="M19.8892 37.4662C19.8892 38.5664 19.8892 38.5664 18.6973 38.5664C17.5972 38.5664 17.5972 38.5664 17.5972 37.3085C17.5972 36.2744 17.5972 36.2744 18.855 36.2762C19.8892 36.2762 19.8892 36.2762 19.8892 37.4662Z" fill="#0AE02D"/>
<path d="M18.7891 40.6681C19.8893 40.6681 19.8893 40.6681 19.8893 41.8581C19.8893 42.9583 19.8893 42.9583 18.6296 42.9583C17.5972 42.9583 17.5972 42.9583 17.5991 41.6986C17.6009 40.6663 17.6009 40.6663 18.7891 40.6681Z" fill="#0AE02D"/>
<path d="M17.5972 47.2365C17.5972 46.6864 17.61 46.1364 17.5972 45.5863C17.5972 45.2195 17.753 45.0784 18.1253 45.049C19.8837 44.9152 19.8837 44.906 19.8874 46.6828C19.8874 46.8661 19.8874 47.0495 19.8874 47.2329L19.781 47.3576H17.7053L17.5972 47.2365Z" fill="#0AE02D"/>
<path d="M19.8893 6.73932C19.8893 7.81932 19.8893 7.81931 18.6773 7.81747C17.5972 7.81747 17.5972 7.81748 17.5991 6.60729C17.5991 5.52729 17.5991 5.52728 18.8093 5.52728C19.8893 5.52912 19.8893 5.52912 19.8893 6.73932Z" fill="#0AE02D"/>
<path d="M8.90848 48.4671C8.90848 49.5471 8.90849 49.5471 7.69646 49.5471C6.61646 49.5471 6.61646 49.5471 6.61646 48.3351C6.61646 47.2551 6.61645 47.2551 7.82848 47.2569C8.90848 47.2569 8.90848 47.2569 8.90848 48.4671Z" fill="#0AE02D"/>
<path d="M12.0921 49.5471C11.0084 49.5471 11.0084 49.5471 11.0103 48.3388C11.0103 47.2551 11.0103 47.2551 12.2186 47.2569C13.3005 47.2569 13.3005 47.2569 13.3005 48.4635C13.2987 49.5471 13.2986 49.5471 12.0921 49.5471Z" fill="#0AE02D"/>
<path d="M17.5787 49.549C17.1038 49.549 16.627 49.5215 16.154 49.549C15.6039 49.5856 15.3783 49.4133 15.393 48.8302C15.4407 46.9691 15.1932 47.2899 16.9186 47.2533L17.597 47.2331L17.7052 47.3578C17.7052 48.0509 17.7052 48.744 17.7052 49.4371L17.5787 49.549Z" fill="#0AE02D"/>
<path d="M19.8912 47.2368C20.456 47.2459 21.0226 47.2606 21.5873 47.2588C21.9265 47.2588 22.0952 47.4036 22.0787 47.7483C22.0787 47.7703 22.0787 47.7923 22.0787 47.8162C22.0641 49.9359 22.3153 49.4939 20.4468 49.5453C20.2635 49.5453 20.0801 49.5453 19.8967 49.5453L19.772 49.4371V47.3596L19.8912 47.2368Z" fill="#0AE02D"/>
<path d="M25.3705 47.2569C26.4707 47.2569 26.4707 47.2569 26.4707 48.4414C26.4707 49.5416 26.4707 49.5416 25.2165 49.5416C24.1787 49.5416 24.1787 49.5416 24.1805 48.2874C24.1897 47.2551 24.1897 47.2551 25.3705 47.2569Z" fill="#0AE02D"/>
<path d="M30.8718 48.4286C30.8718 49.5471 30.8718 49.5508 29.6983 49.5453C28.4532 49.5453 28.5981 49.6296 28.5834 48.3057C28.5834 47.2551 28.5834 47.2551 29.823 47.2569C30.8718 47.2588 30.8718 47.2588 30.8718 48.4286Z" fill="#0AE02D"/>
<path d="M19.8892 11.067C19.8892 12.2093 19.8892 12.2093 18.7413 12.2093C17.5935 12.2093 17.599 12.2093 17.599 11.0633C17.599 9.91731 17.599 9.91915 18.8147 9.92098C19.8892 9.92098 19.8892 9.92098 19.8892 11.067Z" fill="#0AE02D"/>
<path d="M17.5972 16.4895C17.5972 15.9394 17.61 15.3893 17.5972 14.8392C17.5972 14.4725 17.753 14.3294 18.1253 14.3019C19.8837 14.1681 19.8837 14.1589 19.8874 15.9357C19.8874 16.1191 19.8874 16.3024 19.8874 16.4858L19.781 16.6105H17.7053L17.5972 16.4895Z" fill="#0AE02D"/>
<path d="M7.8175 16.5098C8.91767 16.5098 8.91766 16.5098 8.90666 17.709C8.90666 18.8 8.90667 18.8 7.70749 18.7981C6.60731 18.7981 6.6073 18.7982 6.6183 17.5311C6.6183 16.508 6.61831 16.508 7.8175 16.5098Z" fill="#0AE02D"/>
<path d="M12.1783 16.5098C13.3005 16.5098 13.3042 16.5098 13.2987 17.676C13.2987 18.9265 13.383 18.7908 12.0646 18.7981C11.0084 18.7981 11.0084 18.7981 11.0103 17.5623C11.0121 16.508 11.0121 16.508 12.1783 16.5098Z" fill="#0AE02D"/>
<path d="M17.5787 18.8018C17.1038 18.8018 16.627 18.7743 16.154 18.8018C15.6039 18.8385 15.3783 18.6661 15.393 18.0831C15.4407 16.2219 15.1932 16.541 16.9186 16.5043C17.1441 16.5043 17.3697 16.4915 17.597 16.486L17.7052 16.6106C17.7052 17.3038 17.7052 17.9969 17.7052 18.69L17.5787 18.8018Z" fill="#0AE02D"/>
<path d="M19.8912 16.4896C20.456 16.4896 21.0226 16.5135 21.5873 16.5116C21.9265 16.5116 22.0952 16.6565 22.0787 17.0012C22.0787 17.0232 22.0787 17.0452 22.0787 17.069C22.0641 19.1887 22.3153 18.7468 20.4468 18.7981C20.2635 18.7981 20.0801 18.7981 19.8967 18.7981L19.772 18.69C19.772 17.9969 19.772 17.3037 19.772 16.6106L19.8912 16.4896Z" fill="#0AE02D"/>
<path d="M19.9075 49.5491C19.9075 50.0992 19.8782 50.6383 19.8911 51.1829C19.9002 51.5918 19.7242 51.7476 19.3226 51.7439C17.214 51.7219 17.6504 51.964 17.599 50.1615C17.599 49.9562 17.5862 49.7526 17.5789 49.5491L17.7035 49.4409H19.7829L19.9075 49.5491Z" fill="#0AE02D"/>
<path d="M25.3871 16.5098C26.4872 16.5098 26.4872 16.5098 26.4872 17.709C26.4872 18.8 26.4872 18.8 25.2862 18.7981C24.186 18.7981 24.186 18.7982 24.197 17.5311C24.1897 16.508 24.1897 16.508 25.3871 16.5098Z" fill="#0AE02D"/>
<path d="M29.735 16.5098C30.87 16.5098 30.87 16.5098 30.87 17.6632C30.87 18.8165 30.87 18.8 29.647 18.7982C28.5798 18.7982 28.5798 18.7982 28.5798 17.6448C28.5798 16.4915 28.5798 16.508 29.735 16.5098Z" fill="#0AE02D"/>
<path d="M19.9075 18.802C19.9075 19.3521 19.8782 19.8912 19.8911 20.4358C19.9002 20.8447 19.7242 21.0006 19.3226 20.9969C17.214 20.9749 17.6504 21.2151 17.599 19.4126C17.599 19.2091 17.5862 19.0056 17.5789 18.8002L17.7035 18.6938H19.7829L19.9075 18.802Z" fill="#0AE02D"/>
<path d="M18.8055 60.5278C17.599 60.5278 17.599 60.5278 17.599 59.446C17.599 58.2376 17.599 58.2376 18.7487 58.2376C19.8984 58.2376 19.8892 58.2376 19.8892 59.3891C19.8892 60.5406 19.8892 60.5278 18.8055 60.5278Z" fill="#0AE02D"/>
<path d="M19.8892 24.1933C19.8892 25.3888 19.8892 25.3888 18.7248 25.3869C17.599 25.3869 17.599 25.3869 17.599 24.2244C17.599 23.0967 17.599 23.0967 18.7615 23.0967C19.8892 23.0986 19.8892 23.0986 19.8892 24.1933Z" fill="#0AE02D"/>
<path d="M6.61646 32.9643C6.61646 31.8824 6.61645 31.8824 7.82481 31.8824C8.90848 31.8824 8.90848 31.8824 8.90665 33.0908C8.90665 34.1745 8.90666 34.1745 7.70013 34.1726C6.61646 34.1726 6.61646 34.1726 6.61646 32.9643Z" fill="#0AE02D"/>
<path d="M18.7579 53.8457C19.8893 53.8457 19.8893 53.8457 19.8893 55.0045C19.8893 56.1634 19.8893 56.1359 18.6626 56.1359C17.5973 56.1359 17.5972 56.1359 17.5991 54.977C17.6009 53.8182 17.5991 53.8457 18.7579 53.8457Z" fill="#0AE02D"/>
<path d="M27.571 54.9825C27.571 55.1659 27.5581 55.3493 27.571 55.5326C27.6021 55.9635 27.4243 56.1652 26.9787 56.1414C26.6122 56.1219 26.245 56.1219 25.8785 56.1414C25.3284 56.1689 25.1909 55.9049 25.3504 55.4208C25.4479 55.0916 25.6211 54.7899 25.8561 54.5396C26.091 54.2894 26.3813 54.0976 26.7037 53.9796C27.3803 53.721 27.5489 53.8384 27.5618 54.5755C27.5709 54.7093 27.571 54.845 27.571 54.9825Z" fill="#0AE02D"/>
<path d="M8.78761 56.1359C8.4869 56.0442 7.97716 56.3504 7.78646 55.9177C7.59577 55.485 7.9185 55.0467 8.18804 54.6763C8.29638 54.5298 8.42764 54.4016 8.57677 54.2968C8.94349 54.0364 9.37254 53.7027 9.81994 53.9301C10.1867 54.1134 9.9923 54.592 10.0033 54.9367C10.018 56.1359 10.007 56.1359 8.78761 56.1359Z" fill="#0AE02D"/>
<path d="M10.0051 24.2373C10.0051 24.4206 9.99226 24.604 10.0051 24.7874C10.0381 25.2201 9.85474 25.4181 9.411 25.3924C9.06995 25.3741 8.7289 25.3924 8.38601 25.3924C7.71124 25.3778 7.59939 25.1999 7.83593 24.5471C7.94062 24.2575 8.10555 23.9933 8.31985 23.772C8.53414 23.5508 8.79294 23.3775 9.07913 23.2636C9.7759 22.9684 9.98494 23.1041 9.99594 23.8394C10.0069 23.9641 10.0051 24.1089 10.0051 24.2373Z" fill="#0AE02D"/>
<path d="M10.0051 8.88847C10.0051 9.04799 10.0051 9.20751 10.0051 9.36704C10.0094 9.45837 10.0045 9.5499 9.99045 9.64025C9.92077 9.99047 8.72159 10.2215 8.02481 9.99047C7.52057 9.82362 7.74976 9.44038 7.85611 9.147C7.95803 8.85435 8.12305 8.58768 8.33947 8.36588C8.55589 8.14407 8.8184 7.97255 9.10847 7.86347C9.81441 7.57375 9.99411 7.69844 10.0069 8.47223C10.0069 8.61342 10.0051 8.75094 10.0051 8.88847Z" fill="#0AE02D"/>
<path d="M26.3699 10.0144C26.0656 9.93001 25.5595 10.2216 25.3633 9.80716C25.1506 9.36159 25.4861 8.93985 25.7502 8.56579C25.842 8.43519 25.954 8.32006 26.0821 8.22474C26.469 7.94053 26.9054 7.58113 27.3784 7.80667C27.7763 7.99003 27.5141 8.50895 27.5728 8.87384C27.5911 8.98385 27.5618 9.10305 27.5728 9.2149C27.659 9.8475 27.3784 10.0969 26.7605 10.0162C26.6304 10.0082 26.5001 10.0076 26.3699 10.0144Z" fill="#0AE02D"/>
<path d="M27.5709 39.6007C27.5709 39.7603 27.5581 39.9198 27.5709 40.0775C27.6168 40.5634 27.4371 40.8109 26.9182 40.7651C26.5769 40.7431 26.2345 40.7431 25.8932 40.7651C25.2734 40.7963 25.2056 40.4809 25.3779 39.9895C25.4804 39.674 25.6529 39.3858 25.8825 39.1464C26.112 38.907 26.3928 38.7225 26.7036 38.6069C27.3821 38.3429 27.5544 38.4621 27.5691 39.1918C27.5709 39.3294 27.5709 39.4632 27.5709 39.6007Z" fill="#0AE02D"/>
<path d="M27.5709 24.2556C27.5709 25.387 27.5709 25.4035 26.4249 25.3778C26.0582 25.3778 25.5503 25.5923 25.3614 25.1944C25.1414 24.7214 25.5026 24.2886 25.7832 23.8981C25.8344 23.823 25.8962 23.7557 25.9665 23.6982C26.3809 23.37 26.8412 22.9647 27.3674 23.1921C27.8038 23.3755 27.4848 23.9256 27.5709 24.2556Z" fill="#0AE02D"/>
<path d="M10.0051 39.5806C10.0051 40.7596 10.0051 40.7596 8.93611 40.7614C8.89092 40.7642 8.84561 40.7642 8.80042 40.7614C8.45753 40.7082 7.98629 40.9448 7.7956 40.578C7.58106 40.1563 7.89277 39.7511 8.13114 39.388C8.21854 39.2543 8.32617 39.1349 8.45019 39.0341C8.84442 38.7206 9.29732 38.3392 9.79606 38.5592C10.2435 38.7499 9.88591 39.3 10.0051 39.5806Z" fill="#0AE02D"/>
</svg>
