<svg width="62" height="66" viewBox="0 0 62 66" fill="none" xmlns="http://www.w3.org/2000/svg">
<path d="M17.1956 3.11427C16.7604 2.99037 16.3234 2.87942 15.8937 2.74442C15.1923 2.51697 14.8269 1.94925 14.9756 1.34455C15.1372 0.686221 15.6587 0.290483 16.384 0.462462C18.0758 0.866829 19.7547 1.31866 21.4208 1.81795C21.5772 1.86242 21.7215 1.94218 21.8428 2.05117C21.964 2.16017 22.0591 2.29555 22.1207 2.44704C22.1823 2.59853 22.2088 2.76215 22.1982 2.9255C22.1877 3.08884 22.1403 3.24763 22.0598 3.38981C21.2739 4.95241 20.4384 6.49098 19.5772 8.0129C19.4291 8.26637 19.1871 8.45024 18.9044 8.5241C18.6217 8.59796 18.3215 8.55577 18.0696 8.40679C17.8141 8.27129 17.6185 8.04384 17.5218 7.76972C17.4252 7.49559 17.4346 7.19487 17.5482 6.9274C17.7189 6.48728 17.9558 6.0712 18.1706 5.63293C17.8456 5.50164 17.6675 5.69396 17.4839 5.79752C9.55502 10.2597 4.50539 16.9392 2.91704 25.9542C1.11937 36.1491 4.06653 44.9551 11.4372 52.2134C12.6958 53.4272 14.0712 54.5118 15.543 55.4514C15.9837 55.7399 16.1067 55.7251 16.149 55.1352C16.3473 52.4039 15.3667 50.0849 13.8132 47.9324C12.6032 46.2551 11.316 44.6223 10.4713 42.7083C6.61522 33.9448 11.6208 23.8146 20.8956 21.627C23.7433 20.9549 26.7232 21.1264 29.4763 22.1207C29.715 22.204 30.0382 22.4906 30.2218 22.1781C30.5035 21.7555 30.6566 21.2594 30.6625 20.7505C30.6625 20.5045 30.3137 20.6136 30.1264 20.6118C27.607 20.6044 25.0877 20.6044 22.5684 20.6118C21.9716 20.6118 21.3767 20.621 20.7818 20.6118C19.5754 20.5877 19.0539 19.7001 19.6525 18.6312C20.813 16.5638 22.0047 14.513 23.1835 12.4566C25.365 8.6213 27.5685 4.81557 29.7352 0.985797C30.1337 0.281237 30.6276 -0.00909362 31.4429 0.000152577C34.7188 0.0371373 37.9946 0.0130966 41.2686 0.016795C42.4897 0.016795 42.9212 0.597457 42.554 1.78097C42.4016 2.25622 42.7266 2.28396 42.98 2.39307C44.8208 3.15969 46.5792 4.11328 48.2279 5.23905C55.729 10.4483 60.2865 17.5827 61.6526 26.6514C63.6339 39.8235 57.0033 52.7256 45.2441 58.8891L44.7483 59.148C45.189 59.4328 45.6462 59.4532 46.0593 59.5919C46.8416 59.8563 47.2198 60.4407 47.0215 61.0916C46.8232 61.7425 46.2062 62.0846 45.4314 61.8831C43.9238 61.491 42.4181 61.0953 40.9197 60.6737C39.8804 60.3815 39.5701 59.6788 40.0641 58.7172C40.7802 57.3247 41.533 55.9433 42.2785 54.5767C42.6825 53.837 43.3307 53.6207 43.9403 53.9443C44.55 54.2679 44.7207 54.978 44.3351 55.7473C44.1515 56.1171 43.944 56.474 43.6943 56.9382C44.3176 56.7265 44.909 56.429 45.4516 56.0543C53.1913 51.2851 57.8994 44.4429 59.2912 35.3816C61.3111 22.3075 53.9496 9.40908 41.7644 4.45682C41.1603 4.21272 40.8665 4.27189 40.4992 4.84516C38.7291 7.56354 36.9039 10.2468 35.1025 12.9467C34.9942 13.1094 34.7647 13.274 34.8859 13.4848C35.0071 13.6956 35.2641 13.5921 35.4606 13.5939C38.2541 13.5939 41.0483 13.5939 43.843 13.5939C44.2103 13.5939 44.5775 13.605 44.9025 13.814C45.5874 14.2541 45.6499 15.0437 45.009 15.7797C43.7567 17.2203 42.4805 18.6386 41.2154 20.0681C39.5095 21.9968 37.8147 23.9348 36.0923 25.8488C35.7654 26.2187 35.7599 26.4406 36.0776 26.8289C38.2682 29.4775 39.4883 32.804 39.5334 36.2508C39.6265 39.2502 38.7812 42.2033 37.1169 44.6926C36.1033 46.2274 35.0144 47.7142 34.0136 49.2583C32.9957 50.8086 32.4776 52.6375 32.53 54.4954C32.5575 55.8287 32.6677 57.1712 32.4345 58.499C32.1334 60.2243 31.1657 61.4374 29.57 62.1105C29.3698 62.1834 29.189 62.3017 29.0416 62.4563C28.8942 62.6109 28.7841 62.7975 28.7198 63.0019C28.3875 63.8931 27.7901 64.6593 27.0093 65.1958C26.2284 65.7323 25.3021 66.013 24.3569 65.9995C22.3683 65.9995 20.6587 64.8751 19.972 63.0407C19.9069 62.8248 19.7929 62.627 19.639 62.4631C19.4851 62.2991 19.2955 62.1733 19.0851 62.0957C18.45 61.852 17.8788 61.4651 17.4151 60.9648C16.9513 60.4644 16.6074 59.8639 16.4097 59.2091C16.2763 58.7946 15.9869 58.4494 15.6036 58.2475C7.37358 53.3285 2.21377 46.1497 0.531778 36.6706C-1.15939 27.147 1.20384 18.5628 7.32584 11.0771C9.93862 7.90529 13.1688 5.30609 16.8173 3.43974C16.944 3.37501 17.1295 3.35837 17.1956 3.11427ZM27.3224 48.8071C27.3224 49.961 27.3353 51.1149 27.3224 52.267C27.3224 52.7275 27.4638 52.9549 27.9522 52.9364C28.5233 52.9143 29.098 52.9161 29.6691 52.9364C30.1025 52.9512 30.2457 52.7626 30.31 52.3354C30.5435 50.9228 31.0421 49.5678 31.779 48.3429C32.6622 46.8284 33.7603 45.4637 34.7408 44.0157C36.6633 41.1753 37.5099 38.0834 37.0122 34.6493C36.7005 32.4473 35.8267 30.3644 34.4764 28.6042C34.2046 28.2473 34.0026 28.1862 33.685 28.569C33.0368 29.3439 32.3482 30.0873 31.6761 30.8418C30.6993 31.9421 29.7316 33.0516 28.7382 34.1371C28.347 34.5661 27.8512 34.7085 27.3077 34.4089C26.7642 34.1094 26.6155 33.5879 26.7385 32.9887C26.7767 32.832 26.8239 32.6776 26.8799 32.5264C27.6303 30.2272 28.3819 27.9292 29.1348 25.6324C29.4671 24.6172 29.4708 24.6098 28.4242 24.2751C24.6544 23.0713 21.0535 23.4725 17.6583 25.5049C11.8081 29.0073 9.7919 36.7852 13.1559 42.7324C13.94 44.1193 14.9021 45.3823 15.8166 46.6786C16.7751 48.0378 17.6014 49.4636 18.1027 51.0687C18.2863 51.6697 18.1192 52.5333 18.6536 52.8255C19.153 53.0992 19.904 52.8884 20.5412 52.9402C21.1784 52.9919 21.3767 52.746 21.3657 52.1098C21.3338 49.9894 21.3338 47.8677 21.3657 45.7448C21.3657 45.1068 21.2647 44.8201 20.5265 44.7813C18.8739 44.6852 17.7924 43.2668 17.8934 41.5156C17.9797 40.0473 19.2687 38.9044 20.8313 38.9155C21.5849 38.9021 22.3132 39.1893 22.8574 39.7145C23.4015 40.2396 23.7175 40.9602 23.7363 41.719C23.7675 42.2737 23.9621 42.4476 24.4836 42.4032C25.0051 42.3588 24.8931 42.0075 24.9206 41.6968C25.1042 39.6164 27.1572 38.309 29.0026 39.1078C30.3118 39.6719 30.9986 40.9848 30.7507 42.4365C30.6328 43.0783 30.3021 43.6608 29.8128 44.0887C29.3235 44.5167 28.7044 44.7648 28.0569 44.7924C27.4271 44.8164 27.2894 45.0569 27.3077 45.6246C27.3463 46.6842 27.3224 47.7475 27.3224 48.8071ZM39.2102 2.33019C36.8011 2.33019 34.436 2.33019 32.0874 2.33019C31.6798 2.33019 31.5494 2.61867 31.3897 2.89606C28.5949 7.76695 25.8002 12.6366 23.0054 17.505C22.6382 18.1393 22.6657 18.1763 23.3929 18.1763C26.1858 18.1763 28.9805 18.1763 31.7735 18.1763C33.4261 18.1763 33.8667 18.8014 33.3453 20.3954C32.5655 22.7809 31.7833 25.1658 30.9986 27.5501C30.9435 27.7202 30.9086 27.8996 30.8296 28.2029C34.3497 24.2326 37.7669 20.3806 41.1805 16.5268C41.2833 16.4121 41.4706 16.2975 41.399 16.1311C41.3072 15.9202 41.0721 16.0164 40.9032 16.0164C38.1782 16.009 35.4526 16.009 32.7264 16.0164C32.1646 16.0164 31.6816 15.8648 31.3897 15.3414C31.0977 14.8181 31.3034 14.3318 31.6155 13.862C34.0271 10.2708 36.4338 6.67652 38.8356 3.07914C38.9733 2.88127 39.1625 2.70004 39.2102 2.33019ZM24.3514 60.0949C25.4954 60.0949 26.6412 60.1133 27.7852 60.0949C28.0954 60.0956 28.4028 60.0344 28.6894 59.9148C28.9761 59.7953 29.2364 59.6197 29.4553 59.3982C29.6741 59.1767 29.8473 58.9138 29.9647 58.6245C30.0821 58.3353 30.1414 58.0255 30.1392 57.713C30.1502 57.1139 30.1282 56.5147 30.1392 55.9156C30.1502 55.5069 29.9996 55.3349 29.5883 55.3349C26.0872 55.3448 22.5843 55.3448 19.0796 55.3349C18.6462 55.3349 18.5287 55.5346 18.5287 55.9285C18.5434 56.5036 18.5287 57.0806 18.5287 57.6576C18.5562 59.0833 19.5441 60.0745 20.9746 60.0912C22.1075 60.1059 23.2295 60.0967 24.3514 60.0949ZM24.9188 48.931C24.9188 47.7808 24.9059 46.6305 24.9188 45.4803C24.9188 45.0328 24.8196 44.7998 24.311 44.8072C23.8024 44.8146 23.7601 45.0531 23.7601 45.4581C23.7687 47.7352 23.7687 50.0128 23.7601 52.2911C23.7601 52.7053 23.8611 52.9383 24.3312 52.9364C24.8013 52.9346 24.9316 52.7515 24.9243 52.3114C24.9059 51.1852 24.9169 50.0572 24.9188 48.931ZM24.3459 62.5136C23.8446 62.5136 23.3415 62.5136 22.8402 62.5136C22.7318 62.5136 22.5978 62.4933 22.539 62.6191C22.4803 62.7448 22.5758 62.8299 22.6437 62.9186C23.347 63.8433 25.3173 63.8433 26.0315 62.9279C26.1013 62.8391 26.195 62.743 26.1472 62.6283C26.0995 62.5137 25.9636 62.5155 25.8516 62.5136C25.3485 62.51 24.8472 62.5136 24.3459 62.5136Z" fill="#0AE02D"/>
</svg>
