<svg width="79" height="86" viewBox="0 0 79 86" fill="none" xmlns="http://www.w3.org/2000/svg">
<path d="M39.3798 85.1083H1.25451C0.00226828 85.1083 0.00226855 85.1083 0 83.847C0 83.5339 0 83.2209 0 82.9055C0 82.5011 0.12704 82.22 0.578481 82.2657C1.25905 82.3274 1.36794 81.971 1.36567 81.3837C1.34525 77.906 1.36567 74.4282 1.36567 70.9504C1.36567 56.6418 1.41331 42.3309 1.32257 28.0222C1.30669 25.2962 3.36426 23.2237 5.8937 23.386C8.14864 23.5368 8.16225 23.4157 8.16225 21.1375C8.16225 20.8222 8.14183 20.5092 8.16225 20.1961C8.20308 19.666 8.0216 19.3758 7.44992 19.4238C6.9758 19.4649 6.79885 19.2227 6.80112 18.7589C6.82153 16.09 6.52662 16.5972 8.75207 16.5858C13.6771 16.5561 18.6021 16.5858 23.5249 16.5607C24.3302 16.5607 24.6909 16.7778 24.5843 17.6164C24.5525 17.9286 24.5525 18.2433 24.5843 18.5555C24.6297 19.1382 24.4663 19.4969 23.7971 19.4352C23.3434 19.3941 23.2209 19.6637 23.2232 20.0773C23.2232 22.7858 23.2232 25.4935 23.2232 28.2004C23.2232 28.6574 23.3457 28.9339 23.8425 28.8859C24.4709 28.8288 24.6206 29.1761 24.5866 29.72C24.5639 30.0616 24.5639 30.4043 24.5866 30.7459C24.6274 31.3629 24.5412 31.8336 23.7472 31.7536C23.3343 31.7102 23.2232 31.9821 23.2232 32.3546C23.2232 35.0966 23.2232 37.8332 23.2232 40.5645C23.2232 40.9781 23.357 41.25 23.8039 41.1975C24.4845 41.1335 24.6251 41.5105 24.5843 42.0864C24.5639 42.428 24.5639 42.7706 24.5843 43.1123C24.6161 43.695 24.5321 44.1452 23.7812 44.0652C23.391 44.024 23.2164 44.2434 23.2254 44.6341C23.2254 44.9746 23.2254 45.3196 23.2254 45.6601C23.2254 46.0006 23.357 46.2108 23.7472 46.0805C24.688 45.7701 25.6534 45.5408 26.6328 45.395C27.0389 45.3356 27.209 45.0888 27.1818 44.6775C27.1659 44.4239 27.1818 44.1657 27.1818 43.9098C27.1818 30.8259 27.2294 17.7397 27.1432 4.65586C27.1322 4.05741 27.2408 3.46284 27.4625 2.9075C27.6842 2.35216 28.0144 1.84737 28.4337 1.42317C28.8529 0.998972 29.3526 0.663997 29.9029 0.438186C30.4532 0.212375 31.043 0.10034 31.6372 0.108713C39.162 0.218393 46.6913 0.147543 54.2207 0.149828C56.5414 0.149828 58.0772 1.39059 58.5196 3.67788C58.6035 4.10517 58.7668 4.26284 59.1774 4.25599C59.858 4.25599 60.5386 4.23771 61.2191 4.25599C62.0812 4.28798 62.7141 4.81123 62.5803 5.64525C62.2854 7.62178 63.102 8.84424 64.6333 10.0324C66.4005 11.4034 67.3692 13.4257 67.8093 15.6398C67.9363 16.2659 68.1133 16.6612 68.8211 16.5721C68.9043 16.5513 68.9923 16.5618 69.0683 16.6018C69.7489 17.2599 69.268 18.0939 69.3837 18.8411C69.4426 19.2227 69.2158 19.4398 68.8279 19.4055C68.17 19.3461 68.0316 19.6774 68.0316 20.2761C68.0482 26.9468 68.0482 33.6174 68.0316 40.2881C68.0316 41.0078 68.2585 41.2158 68.9594 41.2021C71.1667 41.1678 73.374 41.1884 75.5813 41.2021C77.2011 41.2021 77.5527 41.5631 77.5527 43.2289C77.5527 55.8283 77.5527 68.4278 77.5527 81.0273C77.5527 81.6968 77.5005 82.1492 78.4737 82.3457C79.447 82.5422 78.7414 83.6573 78.898 84.3474C78.9819 84.7244 78.8844 85.1037 78.3512 85.0968C78.0405 85.0968 77.7274 85.0968 77.4166 85.0968L39.3798 85.1083ZM30.0061 19.8191C30.0061 24.8072 30.022 29.7954 29.9925 34.7835C29.9925 35.5421 30.2194 35.7546 30.9612 35.7478C34.2733 35.7135 37.5831 35.7478 40.8952 35.7295C42.3493 35.7295 43.4291 36.383 44.2685 37.5369C44.9128 38.4212 44.9808 39.4266 44.9491 40.4686C44.9355 41.1107 45.4164 41.4283 45.9268 41.1541C46.3238 40.9439 46.1764 40.5509 46.1764 40.2401C46.1854 35.0608 46.1854 29.8738 46.1764 24.6793C46.1764 23.1963 46.1764 21.7088 46.1764 20.2327C46.1764 19.7345 46.097 19.3758 45.4958 19.4306C44.9695 19.4786 44.7948 19.2021 44.8152 18.7109C44.8357 18.2196 44.8311 17.7397 44.8152 17.2553C44.7994 16.7709 44.9786 16.5401 45.4572 16.5858C46.0675 16.6452 46.2716 16.3436 46.3828 15.7632C46.8252 13.4782 47.8097 11.3966 49.6382 10.0142C51.1808 8.84882 51.9067 7.61948 51.6413 5.68866C51.5188 4.80665 52.1517 4.29939 53.0705 4.27197C53.7216 4.2514 54.3726 4.27197 55.0237 4.27197C55.2075 4.27197 55.457 4.34967 55.5273 4.0869C55.5415 3.98716 55.5303 3.88544 55.4951 3.79118C55.4598 3.69691 55.4014 3.61313 55.3254 3.54762C54.8831 3.04492 54.291 3.02437 53.6875 3.02437H32.0569C30.444 3.02437 30.0152 3.48136 30.0152 5.12427C30.0092 10.0218 30.0061 14.9201 30.0061 19.8191ZM74.7193 63.234C74.7193 57.1948 74.7011 51.1578 74.7397 45.1186C74.7397 44.2343 74.4788 43.9921 73.6327 44.0309C72.1921 44.0949 70.7493 44.0469 69.3065 44.0492C68.0452 44.0492 68.0452 44.0492 68.0452 45.2854V73.825C68.0452 76.3019 68.0747 78.7811 68.0271 81.2581C68.0112 82.067 68.2811 82.2863 69.0479 82.2589C70.5452 82.2063 72.0447 82.2452 73.5419 82.2429C74.717 82.2429 74.7193 82.2429 74.7193 81.1004C74.7223 75.1503 74.7223 69.1986 74.7193 63.2454V63.234ZM4.20363 54.6607V76.2859C4.20363 78.0248 4.20363 79.7614 4.20363 81.5003C4.20363 81.9573 4.26941 82.2657 4.84109 82.2634C5.41276 82.2612 5.45587 81.9116 5.45133 81.4774C5.45133 80.8216 5.43091 80.1635 5.45133 79.51C5.48989 78.6966 5.98671 78.2122 6.79885 78.1573C7.05275 78.1436 7.30719 78.1436 7.56108 78.1573C8.01479 78.1756 8.15998 77.9539 8.15771 77.5312C8.15771 74.7892 8.15771 72.0541 8.15771 69.3258C8.15771 68.9054 8.00572 68.6586 7.56562 68.6997C6.88506 68.766 6.76255 68.3684 6.79431 67.804C6.81813 67.406 6.81813 67.007 6.79431 66.609C6.76482 66.0766 6.95538 65.7955 7.52025 65.8412C7.92632 65.8732 8.15544 65.7132 8.15544 65.2585C8.15544 62.4937 8.15544 59.7296 8.15544 56.9663C8.15544 56.5847 8.00572 56.347 7.60872 56.3904C6.86917 56.4681 6.76255 56.0385 6.79431 55.4467C6.81586 55.0479 6.81586 54.6482 6.79431 54.2494C6.77163 53.7558 6.95538 53.4885 7.47488 53.5296C7.92859 53.5616 8.15544 53.3971 8.15544 52.899C8.14334 50.157 8.14334 47.4218 8.15544 44.6936C8.15544 44.2731 8.00118 44.0286 7.56335 44.0698C6.88279 44.136 6.76028 43.7361 6.79204 43.174C6.81473 42.7752 6.81473 42.3755 6.79204 41.9767C6.76255 41.4443 6.95538 41.1655 7.51798 41.2112C7.92632 41.2432 8.15318 41.081 8.15318 40.6262C8.15318 37.8629 8.15318 35.0996 8.15318 32.3363C8.15318 31.9524 8.00118 31.7171 7.60419 31.7605C6.86464 31.8382 6.76028 31.4063 6.79204 30.8145C6.817 30.3895 6.81019 29.9599 6.79204 29.5326C6.7739 29.1053 6.94857 28.8654 7.3864 28.9065C8.06697 28.9728 8.16679 28.5798 8.15544 28.0131C8.11461 25.9931 8.3823 26.297 6.44496 26.281C4.55525 26.2673 4.19002 26.6535 4.19002 28.598C4.19909 37.2825 4.20363 45.9701 4.20363 54.6607ZM28.5021 59.0022H39.618C40.6547 59.0022 40.6479 59.0022 40.4664 58.0242C39.4252 52.4191 34.0759 47.7646 27.6015 48.2764C22.3248 48.6923 17.6629 52.899 16.7124 58.0859C16.5672 58.8742 16.7805 59.0182 17.4883 59.0136C21.1474 58.9816 24.8202 58.993 28.4953 58.993L28.5021 59.0022ZM28.5883 61.8584C24.8565 61.8584 21.1248 61.8584 17.393 61.8584C16.7578 61.8584 16.5423 62.007 16.6943 62.7016C17.7401 67.4521 20.5644 70.5826 25.1174 72.1181C27.1591 72.8036 27.1795 72.7487 27.1795 70.6168C27.1795 68.3958 27.1795 68.4072 29.3709 68.5855C29.8428 68.6243 30.0197 68.814 30.0129 69.271C30.0016 70.1255 30.0288 70.9802 30.0129 71.8347C29.9993 72.4243 30.2103 72.5476 30.7865 72.4425C33.1647 71.9958 35.3562 70.8436 37.0797 69.1336C38.8033 67.4237 39.9802 65.234 40.4596 62.8456C40.6479 61.8699 40.6479 61.8653 39.618 61.8653L28.5883 61.8584ZM46.1991 63.2294V61.0061C46.1991 55.6745 46.1991 50.3428 46.1991 45.0112C46.1991 44.4331 46.165 44.0218 45.4005 44.056C44.1574 44.1086 42.9051 44.0994 41.6665 44.056C41.0018 44.0332 40.8589 44.3257 40.8657 44.9243C40.8906 46.9808 40.877 49.0373 40.8657 51.0801C40.8396 51.4218 40.9188 51.7634 41.0925 52.0581C42.3462 53.9313 43.1565 56.0693 43.4609 58.3075C43.504 58.6412 43.588 59.0387 44.0553 58.993C44.8833 58.9039 44.9922 59.3792 44.9445 60.035C44.9173 60.4326 44.9264 60.8348 44.9445 61.2324C44.9627 61.6299 44.7721 61.8973 44.3434 61.8493C43.6991 61.7785 43.504 62.1555 43.436 62.697C43.1425 64.8203 42.3805 66.8503 41.206 68.638C41.0026 68.9122 40.8863 69.242 40.8725 69.584C40.8725 73.5736 40.8725 77.5632 40.8725 81.5528C40.8725 82.1378 41.1243 82.2817 41.6461 82.2703C42.8053 82.2497 43.9691 82.2086 45.1238 82.2703C45.9972 82.3274 46.2195 82.0258 46.2149 81.1644C46.1718 75.1823 46.1922 69.1978 46.1922 63.2134L46.1991 63.2294ZM10.9889 73.3885C10.9889 74.7275 11.0047 76.0666 10.9889 77.4056C10.9889 77.9585 11.1749 78.1687 11.7284 78.1573C12.9716 78.1322 14.2238 78.1162 15.4624 78.1573C16.1544 78.1824 16.3313 77.9151 16.3245 77.2593C16.295 74.8098 16.3018 72.3603 16.3245 69.9085C16.3311 69.3979 16.1831 68.8973 15.9003 68.4735C14.7799 66.751 14.0517 64.8003 13.7678 62.761C13.6907 62.208 13.5591 61.7488 12.8491 61.8265C12.4203 61.8722 12.1685 61.6276 12.2593 61.2141C12.3999 60.4829 11.8282 59.6306 12.62 59.0159C12.6972 58.9771 12.7857 58.9674 12.8695 58.9885C13.5342 59.0799 13.6794 58.6412 13.7542 58.1225C14.2873 54.5099 15.8436 51.3657 18.6883 49.147C20.2309 47.9405 20.5417 46.6541 20.4124 44.9335C20.3648 44.2937 20.24 44.0195 19.5458 44.0355C16.971 44.0697 14.3962 44.0629 11.8328 44.0355C11.2066 44.0355 10.9889 44.2343 10.9979 44.8695C11.0274 47.0928 10.9979 49.3161 10.9979 51.5371C10.9979 53.4405 10.9979 53.4657 12.8922 53.4954C13.5183 53.4954 13.7315 53.7239 13.7225 54.3477C13.6839 56.7926 13.9312 56.3356 11.8486 56.3447C11.1681 56.3447 10.9753 56.5732 10.9866 57.2427C11.0161 59.4066 10.9866 61.5842 10.9866 63.739C10.9866 65.7315 10.9866 65.7452 12.9353 65.8138C13.4571 65.832 13.6862 65.9806 13.7111 66.5473C13.8064 68.6175 13.8268 68.6403 11.7829 68.6609C11.125 68.6609 10.9616 68.9236 10.9775 69.5292C11.0093 70.8225 10.9889 72.1089 10.9889 73.3885ZM20.3807 24.1583C20.3807 22.8764 20.3557 21.5968 20.392 20.3172C20.4102 19.6706 20.2332 19.4032 19.5368 19.4169C16.9665 19.4512 14.3962 19.4443 11.8237 19.4169C11.218 19.4169 10.9684 19.5814 10.9753 20.2349C11.0025 22.8513 10.9979 25.4699 10.9753 28.0862C10.9753 28.6574 11.1341 28.9042 11.742 28.8974C14.369 28.8745 16.996 28.8745 19.623 28.8974C20.2378 28.8974 20.3965 28.6483 20.3852 28.0816C20.3625 26.7746 20.3807 25.4653 20.3807 24.1583ZM20.3807 36.4858C20.3807 35.1491 20.3693 33.8124 20.3807 32.4757C20.3807 31.9913 20.2559 31.7376 19.716 31.7399C17.0315 31.7536 14.3486 31.7536 11.6672 31.7399C11.1477 31.7399 10.9866 31.9501 10.9866 32.4528C10.9979 35.1263 11.0025 37.802 10.9866 40.4755C10.9866 41.0399 11.1998 41.2158 11.7375 41.2135C14.3645 41.1952 16.9915 41.1952 19.6184 41.2135C20.2173 41.2135 20.4079 40.985 20.3943 40.4092C20.3603 39.1045 20.3807 37.7951 20.3807 36.4858ZM57.0609 16.5835C59.4383 16.5835 61.8248 16.5607 64.1909 16.5973C64.8715 16.5973 65.0235 16.4144 64.8488 15.7632C63.9641 12.4226 60.686 9.9159 57.1357 9.89305C53.6331 9.87249 50.2961 12.4066 49.3977 15.7381C49.2344 16.3413 49.2888 16.611 50.0216 16.5973C52.365 16.5493 54.7152 16.5835 57.0609 16.5835ZM35.6798 38.5926C34.0668 38.5926 32.4562 38.6132 30.8432 38.5926C30.2353 38.5926 29.9789 38.7571 29.9925 39.4106C30.0288 41.1198 30.0288 42.829 29.9925 44.5382C29.9766 45.1688 30.2466 45.4087 30.8069 45.4819C33.1989 45.8106 35.4718 46.735 37.4198 48.1713C37.5718 48.2787 37.7079 48.5118 37.9234 48.3884C38.1389 48.265 38.0345 48.0251 38.0345 47.8377C38.0345 46.1285 38.0345 44.4102 38.0459 42.7102C38.0572 41.7436 38.5608 41.2569 39.525 41.2249C39.9787 41.2112 40.4324 41.2249 40.8861 41.2249C42.1338 41.2249 42.4378 40.7679 41.9886 39.55C41.7164 38.8165 41.1266 38.6155 40.4347 38.6109C38.8489 38.5812 37.2655 38.588 35.6821 38.5858L35.6798 38.5926ZM38.0391 77.3027C38.0391 75.8518 38.0391 74.4008 38.0391 72.9612C38.0391 72.5042 37.9756 72.2757 37.4855 72.639C35.5089 74.1201 33.1885 75.0664 30.7457 75.3879C30.2058 75.4587 29.9903 75.7261 30.0016 76.3019C30.0311 78.0362 30.0266 79.7728 30.0016 81.5071C30.0016 82.0532 30.1785 82.2703 30.7366 82.2657C32.9099 82.2444 35.0847 82.2444 37.261 82.2657C37.8417 82.2657 38.0663 82.0784 38.0527 81.4797C38.0209 80.0836 38.0413 78.6897 38.0413 77.2959L38.0391 77.3027ZM49.0665 47.6457L54.2706 43.1489C54.5677 42.893 54.84 42.6302 54.4067 42.2555L49.0665 37.6329V47.6457ZM65.1573 37.6421C63.3425 39.2164 61.6297 40.6971 59.9147 42.1709C59.5654 42.4702 59.4837 42.7353 59.8739 43.0689C61.6048 44.5565 63.3289 46.0554 65.1573 47.6389V37.6421ZM49.0983 54.0803V64.0383C50.8904 62.4891 52.576 61.0221 54.2774 59.5712C54.7084 59.2056 54.7197 58.9245 54.2774 58.5521C52.5828 57.0965 50.8972 55.6272 49.1005 54.0734L49.0983 54.0803ZM65.1846 54.0392C63.3402 55.6387 61.6365 57.1193 59.9147 58.5863C59.4315 58.9976 59.613 59.2718 59.9941 59.6009C61.2441 60.668 62.4736 61.7579 63.7259 62.8204C64.1796 63.2043 64.5834 63.6636 65.1846 63.9629V54.0392ZM49.0778 80.4834L54.3386 75.9317C54.6335 75.6781 54.8037 75.4222 54.4271 75.0954C52.6803 73.585 50.9335 72.0701 49.0847 70.466L49.0778 80.4834ZM65.1846 70.4706C63.3561 72.0541 61.6706 73.5211 59.9669 74.9697C59.5291 75.3422 59.5268 75.6324 59.9669 75.9866C60.4524 76.3773 60.9061 76.8046 61.3779 77.2113L65.18 80.472L65.1846 70.4706ZM51.5733 19.4718L56.7433 23.9481C57.1267 24.2794 57.4057 24.044 57.7006 23.7881C58.9166 22.7279 60.1416 21.6768 61.3621 20.6188C61.7545 20.2807 62.1356 19.9333 62.6483 19.4763L51.5733 19.4718ZM62.6438 35.9237H51.5959C53.4108 37.4981 55.1054 38.9582 56.7955 40.4092C57.1471 40.7085 57.417 40.4617 57.6825 40.2309C58.4946 39.5249 59.3113 38.8234 60.1234 38.1173C60.9356 37.4113 61.7137 36.712 62.6347 35.91L62.6438 35.9237ZM51.6164 49.3389H62.6392L57.5033 44.8969C57.4541 44.8453 57.3951 44.8042 57.3298 44.7761C57.2645 44.748 57.1943 44.7336 57.1233 44.7336C57.0523 44.7336 56.982 44.748 56.9167 44.7761C56.8514 44.8042 56.7924 44.8453 56.7433 44.8969L51.6164 49.3389ZM62.6438 52.33H51.5891C53.404 53.9044 55.0963 55.3645 56.7887 56.8154C57.138 57.1148 57.4102 56.8657 57.6757 56.6349C58.4855 55.9289 59.3022 55.2274 60.1166 54.5236C60.931 53.8198 61.716 53.1434 62.6347 52.33H62.6438ZM51.6096 65.7658H62.6483L57.5146 61.3238C57.4653 61.2721 57.4061 61.2309 57.3406 61.2028C57.2751 61.1747 57.2047 61.1603 57.1335 61.1603C57.0623 61.1603 56.9918 61.1747 56.9264 61.2028C56.8609 61.2309 56.8017 61.2721 56.7524 61.3238L51.6096 65.7658ZM51.8001 68.7363C51.7774 68.9648 51.9067 69.0288 52.0088 69.1179C53.531 70.4318 55.0646 71.7296 56.5709 73.0641C57.0132 73.4571 57.3218 73.384 57.7301 73.0229C59.1956 71.7319 60.6792 70.4683 62.1629 69.1887C62.2922 69.0744 62.5326 68.9968 62.4374 68.7317L51.8001 68.7363ZM51.6096 82.1858H62.6483L57.5146 77.7437C57.4653 77.692 57.4061 77.6509 57.3406 77.6228C57.2751 77.5947 57.2047 77.5802 57.1335 77.5802C57.0623 77.5802 56.9918 77.5947 56.9264 77.6228C56.8609 77.6509 56.8017 77.692 56.7524 77.7437L51.6096 82.1858ZM62.6619 32.9464C61.3121 31.7742 60.0962 30.7277 58.8916 29.672C57.8095 28.7214 56.4574 28.7077 55.3935 29.6491C55.0963 29.9119 54.7901 30.1655 54.4861 30.426L51.6005 32.9395L62.6619 32.9464ZM27.1727 78.8954C27.1727 78.0134 27.1455 77.1291 27.1727 76.2471C27.1954 75.7009 26.9459 75.4542 26.4581 75.3993C25.5608 75.2849 24.6775 75.0781 23.8221 74.7824C23.3411 74.6247 23.2005 74.8144 23.205 75.2577C23.205 75.8289 23.205 76.4002 23.205 76.9668C23.205 78.1093 23.205 78.1093 24.3393 78.1504C25.41 78.1802 25.8864 78.6509 25.9069 79.7225C25.9205 80.3212 25.925 80.9199 25.9069 81.5186C25.8933 81.9893 26.0044 82.2726 26.5602 82.2634C27.116 82.2543 27.1614 81.9687 27.1546 81.546C27.1636 80.6617 27.1727 79.7796 27.1727 78.8954ZM12.3069 82.2543C13.3776 82.2543 14.4507 82.2543 15.5214 82.2543C15.9434 82.2543 16.3064 82.2543 16.3132 81.6534C16.3132 81.0935 16.0387 80.9953 15.5736 80.9976C13.3731 81.0098 11.1726 81.0098 8.97212 80.9976C8.5479 80.9976 8.27567 81.0798 8.26433 81.6008C8.25299 82.1629 8.5411 82.2612 9.00615 82.2543C10.1019 82.2452 11.2066 82.2543 12.3069 82.2543ZM49.0574 31.2235C50.1917 30.2409 51.1944 29.3772 52.1858 28.4998C52.3468 28.3604 52.7279 28.1776 52.2947 27.9468C51.0794 27.3115 49.9839 26.4671 49.0574 25.4516V31.2235ZM65.1641 25.4562C64.2647 26.4619 63.1878 27.2909 61.9882 27.9011C61.7137 28.0382 61.6683 28.1867 61.9179 28.4015C62.9705 29.3155 64.0231 30.2295 65.1596 31.2052L65.1641 25.4562ZM19.1398 75.1548C19.1398 75.918 19.1398 76.6835 19.1398 77.4398C19.1398 77.8648 19.2214 78.139 19.7364 78.1482C20.2877 78.1482 20.3943 77.8785 20.3875 77.4078C20.3716 76.2173 20.3466 75.0269 20.3875 73.8387C20.417 73.1897 20.0926 72.863 19.6139 72.5568C19.2056 72.294 19.1307 72.4768 19.133 72.8493C19.142 73.6239 19.1398 74.3939 19.1398 75.1548ZM21.1815 81.0067C20.7278 81.0067 20.274 81.0067 19.8317 81.0067C19.3893 81.0067 19.1375 81.105 19.1375 81.6168C19.1375 82.1286 19.3371 82.2726 19.7977 82.2634C20.6688 82.2474 21.5422 82.2497 22.4156 82.2634C22.8443 82.2634 23.1075 82.1629 23.1075 81.6511C23.1075 81.1392 22.9078 80.9884 22.4473 81.0067C22.0231 81.0204 21.5989 81.0067 21.1769 81.0067H21.1815Z" fill="#0AE02D"/>
</svg>
