<svg width="83" height="82" viewBox="0 0 83 82" fill="none" xmlns="http://www.w3.org/2000/svg">
<path d="M81.9275 48.8047V49.9239L72.8081 66.6806C71.3459 69.3699 69.8858 72.0592 68.4278 74.7485C68.3314 74.9268 68.1346 75.1195 68.2843 75.3306C68.4339 75.5417 68.6266 75.3737 68.807 75.3552C71.1164 75.0814 73.4573 75.4076 75.6039 76.3022C77.295 77.0176 78.9656 77.778 80.6484 78.5118C81.2032 78.718 81.6599 79.1257 81.9275 79.6535C81.9275 80.3997 82.2185 81.4368 81.8455 81.8099C81.4724 82.183 80.4352 81.8919 79.6891 81.8919H79.5292C77.7849 81.1048 76.0447 80.291 74.2901 79.5367C73.0581 78.9838 71.7212 78.7035 70.3709 78.7148C69.0206 78.7261 67.6887 79.0288 66.4661 79.6023C62.6003 81.3405 58.7529 81.363 54.883 79.6269C53.6128 79.0291 52.2262 78.7191 50.8224 78.7191C49.4185 78.7191 48.032 79.0291 46.7618 79.6269C42.9206 81.3487 39.0848 81.3487 35.2545 79.6269C33.99 79.0545 32.6208 78.7495 31.2329 78.7312C29.5049 78.7025 27.9532 79.2743 26.3893 79.9118C24.444 80.7276 22.3281 81.0527 20.2277 80.8588C18.4731 80.6969 16.8538 80.1455 15.255 79.4773C13.6345 78.767 11.8399 78.553 10.0978 78.8624C7.36549 79.3686 4.97342 80.7768 2.48706 81.8898H1.05223C-0.468686 80.7809 -0.32725 79.2805 1.3884 78.5077C3.03777 77.7644 4.69534 77.036 6.36111 76.3227C8.52987 75.4062 10.9009 75.0741 13.238 75.3593C13.4164 75.3798 13.6213 75.5069 13.7484 75.3081C13.8755 75.1092 13.7013 74.9535 13.6193 74.7956C13.361 74.2996 13.0905 73.8097 12.824 73.3177C8.7641 65.8566 4.70353 58.3955 0.642282 50.9344C-0.454338 48.9154 -0.0648749 48.0217 2.16321 47.3678C3.33772 47.0214 4.50403 46.6504 5.69083 46.3429C6.3816 46.1687 6.60708 45.808 6.60093 45.1008C6.56813 41.772 6.58453 38.4411 6.58658 35.1123C6.58658 33.2429 7.10926 32.7039 9.00529 32.6752C10.5242 32.6506 12.041 32.6752 13.5599 32.6752C14.6954 32.6752 14.7405 32.628 14.7405 31.515C14.7405 27.201 14.7405 22.8862 14.7405 18.5708C14.7405 16.9945 15.3903 16.3345 16.9686 16.3161C18.5469 16.2976 20.1642 16.3161 21.763 16.3161C22.8842 16.3161 22.8944 16.3058 22.8944 15.2112C22.8944 10.9505 22.8944 6.68835 22.8944 2.42485C22.8944 0.580072 23.4766 0.00204976 25.3378 0H56.6621C58.5582 0 59.1218 0.569839 59.1218 2.49251C59.1218 6.7806 59.1362 11.0687 59.1096 15.3568C59.1096 16.0906 59.3473 16.3468 60.0811 16.3284C61.7046 16.2894 63.33 16.3099 64.9555 16.3284C66.6404 16.3284 67.2778 16.9761 67.2778 18.6487C67.2778 22.9901 67.2942 27.3315 67.2655 31.6728C67.2655 32.4477 67.5361 32.71 68.2904 32.6977C69.9958 32.669 71.7012 32.6567 73.4046 32.7203C74.905 32.7756 75.4338 33.3864 75.4359 34.8807C75.4359 38.2382 75.4707 41.5937 75.4133 44.9491C75.399 45.853 75.7126 46.2241 76.553 46.4249C77.8197 46.7283 79.0578 47.1526 80.3102 47.5175C81.0297 47.7019 81.618 48.0729 81.9275 48.8047ZM39.2269 62.7656C39.2269 58.2917 39.2269 53.8177 39.2269 49.3438C39.2269 48.1877 39.2269 48.1816 38.12 48.4809L8.69988 56.4749C7.77339 56.727 7.76724 56.7393 8.22433 57.5777C11.5326 63.6593 14.8819 69.7184 18.1206 75.8349C18.7355 77.0012 19.5554 77.3066 20.7115 77.3763C22.4744 77.4642 24.2325 77.1245 25.8359 76.3862C28.1636 75.3606 30.736 75.0221 33.2498 75.4106C34.9101 75.6504 36.3962 76.378 37.9499 76.913C39.1511 77.323 39.231 77.2697 39.231 76.0296C39.2296 71.6089 39.2283 67.1876 39.2269 62.7656ZM42.7853 62.6857V74.111C42.7853 74.9104 42.7853 75.7098 42.7853 76.5092C42.7853 77.0258 42.9903 77.2676 43.5294 77.075C44.0684 76.8823 44.6014 76.747 45.1097 76.5195C48.8997 74.8325 52.6938 74.8161 56.4756 76.5072C58.0911 77.2187 59.8599 77.5113 61.6185 77.3578C62.5716 77.2881 63.2583 76.995 63.7666 76.0439C67.079 69.8434 70.457 63.6798 73.833 57.5141C74.1671 56.8992 74.0953 56.6717 73.3943 56.4892C63.535 53.8259 53.6763 51.1496 43.8184 48.4603C42.8222 48.1898 42.7935 48.2185 42.7935 49.2639C42.7853 53.7405 42.7853 58.2145 42.7935 62.6857H42.7853ZM41.041 19.7637C39.1511 19.7637 37.2612 19.7801 35.3713 19.7637C34.7564 19.7637 34.5125 19.9687 34.5145 20.598C34.5309 24.3245 34.5309 28.0516 34.5145 31.7794C34.5145 32.4394 34.7748 32.6772 35.4144 32.6752C39.1436 32.6602 42.8714 32.6602 46.5978 32.6752C47.2456 32.6752 47.4977 32.4272 47.4936 31.7753C47.4772 28.0461 47.4772 24.3183 47.4936 20.5919C47.4936 19.9646 47.2435 19.7555 46.6327 19.7719C44.7695 19.7801 42.9062 19.7637 41.041 19.7637ZM32.7271 16.2997C34.5719 16.2997 36.4003 16.271 38.2348 16.314C39.0199 16.3325 39.2433 16.0291 39.2372 15.2891C39.2098 11.6693 39.2098 8.04802 39.2372 4.42542C39.2372 3.71415 39.0322 3.4313 38.2758 3.43745C34.604 3.46614 30.9329 3.46614 27.2625 3.43745C26.5492 3.43745 26.3483 3.70801 26.3524 4.38238C26.3749 8.02685 26.3831 11.6734 26.3524 15.3178C26.3524 16.1131 26.6434 16.3222 27.3773 16.3058C29.1626 16.2751 30.9438 16.2997 32.7271 16.2997ZM55.6537 9.85933C55.6537 8.04939 55.6311 6.23946 55.666 4.43157C55.6803 3.72646 55.4876 3.42925 54.7251 3.43539C51.0533 3.46409 47.3815 3.46409 43.7097 3.43539C43.0108 3.43539 42.773 3.6875 42.7771 4.37007C42.7976 8.04187 42.7976 11.7143 42.7771 15.3875C42.7771 16.0906 43.0559 16.3058 43.7302 16.3017C47.4034 16.2812 51.0759 16.2812 54.7477 16.3017C55.4487 16.3017 55.6783 16.0516 55.666 15.365C55.6332 13.5366 55.6537 11.7041 55.6537 9.85933ZM18.2067 26.1877C18.2067 28.0325 18.2271 29.8629 18.2067 31.6995C18.2067 32.3759 18.4116 32.6649 19.1229 32.6629C22.7974 32.6451 26.472 32.6451 30.1465 32.6629C30.8393 32.6629 31.0771 32.3882 31.073 31.7077C31.0525 28.0331 31.0525 24.3586 31.073 20.6841C31.073 20.0015 30.868 19.7412 30.1526 19.7453C26.4781 19.7726 22.8036 19.7726 19.129 19.7453C18.4301 19.7453 18.1923 19.9831 18.2046 20.6738C18.2292 22.5186 18.2067 24.3572 18.2067 26.1938V26.1877ZM57.4718 19.7576C55.6086 19.7576 53.7453 19.7802 51.8801 19.7576C51.1852 19.7433 50.9454 19.9933 50.9515 20.6841C50.9734 24.3586 50.9734 28.0338 50.9515 31.7097C50.9515 32.382 51.1709 32.6752 51.8698 32.6731C55.5457 32.6554 59.2209 32.6554 62.8955 32.6731C63.5862 32.6731 63.824 32.4026 63.8199 31.72C63.7967 28.0455 63.7967 24.3702 63.8199 20.6943C63.8199 20.0138 63.6149 19.7412 62.9057 19.7556C61.0958 19.7884 59.2838 19.7637 57.4718 19.7637V19.7576ZM42.7935 42.2926C42.8191 42.6646 42.8191 43.0378 42.7935 43.4098C42.6726 44.3014 43.0764 44.6663 43.9188 44.8917C53.7576 47.5373 63.591 50.202 73.4189 52.8858C74.2388 53.1072 75.1284 53.6872 75.8602 53.3962C76.6411 53.0867 76.8133 51.99 77.2478 51.2378C77.7418 50.3871 77.7193 50.3707 76.7723 50.0899L54.7292 43.5758L43.7835 40.3495C42.8386 40.0707 42.8099 40.0953 42.8037 41.0997C42.7935 41.4932 42.7935 41.8929 42.7935 42.2926ZM39.2351 42.3726C39.2351 41.9749 39.2351 41.5752 39.2351 41.1755C39.2351 40.0625 39.2351 40.0522 38.1815 40.3556C29.9388 42.7866 21.6988 45.2197 13.4615 47.6548C10.68 48.4747 7.90252 49.309 5.11485 50.1145C4.49993 50.2928 4.3257 50.5244 4.7049 51.1025C5.04402 51.6131 5.33694 52.153 5.58015 52.7156C5.87532 53.4167 6.27912 53.5355 7.01498 53.3429C17.0444 50.59 27.0821 47.8762 37.1136 45.1315C39.6102 44.4428 39.1798 44.984 39.2269 42.3726H39.2351ZM65.5704 36.2069C63.7072 36.2069 61.8439 36.2213 59.9807 36.2069C59.376 36.2069 59.1075 36.4119 59.1239 37.0411C59.1526 38.1849 59.1546 39.3307 59.1239 40.4745C59.1075 41.0648 59.3658 41.319 59.909 41.4768C63.66 42.57 67.407 43.6783 71.1498 44.8015C71.8098 45.0065 71.9964 44.8589 71.9882 44.1866C71.9615 41.8437 71.9554 39.5029 71.9882 37.1621C72.0005 36.4098 71.7094 36.1926 70.9981 36.2069C69.1821 36.2295 67.3721 36.2069 65.5622 36.2069H65.5704ZM16.532 36.2069C14.6442 36.2069 12.7543 36.2069 10.8644 36.2069C10.2946 36.2069 10.0445 36.4119 10.0445 37.0043C10.0609 39.4243 10.0609 41.8458 10.0445 44.2686C10.0445 44.8835 10.2495 44.9881 10.8132 44.8179C14.5806 43.6865 18.3536 42.5714 22.1319 41.4727C22.6813 41.3128 22.9211 41.0464 22.9047 40.4622C22.8739 39.3451 22.8657 38.2259 22.9047 37.1108C22.9334 36.3914 22.6218 36.1926 21.9536 36.2028C20.1437 36.2254 18.3337 36.2069 16.5238 36.2069H16.532ZM43.0292 36.3381C43.0784 36.4119 43.0907 36.4467 43.1091 36.4508C47.1239 37.6602 51.1394 38.8661 55.1556 40.0686C55.5655 40.1916 55.668 39.9559 55.6639 39.5992C55.6639 38.8019 55.6209 38.0025 55.6639 37.2092C55.707 36.416 55.4282 36.1844 54.6595 36.1844C51.0192 36.2151 47.3767 36.1967 43.7364 36.2008C43.5109 36.211 43.2629 36.1393 43.021 36.3381H43.0292ZM38.9932 36.4672L38.9707 36.2971C38.9071 36.2605 38.8378 36.2348 38.7657 36.2212L27.0452 36.209C26.5799 36.209 26.3688 36.4139 26.3729 36.8895C26.3729 37.7094 26.4057 38.5395 26.3626 39.3615C26.3278 40.0359 26.5164 40.1814 27.1825 39.9764C30.3576 39.0089 33.5368 38.0865 36.7283 37.1477C37.4785 36.9305 38.2307 36.6968 38.985 36.4672H38.9932Z" fill="#0AE02D"/>
<path d="M36.1379 54.0746C36.1482 54.8658 35.7526 55.4377 35.0331 55.657C32.7442 56.3512 30.4245 56.932 28.0742 57.3993C27.2666 57.5633 26.4569 56.9135 26.2786 56.1387C26.0736 55.2348 26.4713 54.3718 27.3752 54.0889C28.7198 53.679 30.0952 53.3613 31.4624 53.0251C32.4155 52.7894 33.3461 52.4409 34.3321 52.3938C35.4246 52.3487 36.1154 53.0026 36.1379 54.0746Z" fill="#0AE02D"/>
<path d="M28.2403 62.2778C27.0862 62.2778 26.4098 61.7756 26.2622 60.9721C26.0983 60.0846 26.4672 59.2647 27.3732 59.0125C29.6505 58.3751 31.9462 57.8073 34.2501 57.2743C35.0496 57.0898 35.8797 57.7171 36.0806 58.4857C36.3122 59.3651 35.9719 60.2075 35.1233 60.5232C34.2715 60.8227 33.4013 61.0671 32.5181 61.255C31.0238 61.6075 29.5501 62.079 28.2403 62.2778Z" fill="#0AE02D"/>
<path d="M48.09 52.4164C49.4613 52.7546 51.1912 53.1789 52.9171 53.6093C53.4583 53.7446 54.0076 53.8635 54.5344 54.0439C55.5101 54.3801 55.9692 55.2512 55.7212 56.1797C55.6628 56.3927 55.5631 56.5921 55.4277 56.7664C55.2922 56.9408 55.1238 57.0868 54.9319 57.1961C54.74 57.3054 54.5285 57.3757 54.3094 57.4032C54.0903 57.4307 53.868 57.4148 53.655 57.3563C51.5069 56.8541 49.3629 56.3314 47.2332 55.7513C46.1611 55.4582 45.7163 54.6773 45.9049 53.7016C46.073 52.8427 46.7453 52.3569 48.09 52.4164Z" fill="#0AE02D"/>
<path d="M55.7726 60.6297C55.7881 61.0478 55.6375 61.455 55.3536 61.7623C55.0698 62.0696 54.6758 62.2519 54.2578 62.2695C53.9926 62.2988 53.7244 62.2878 53.4625 62.2368C51.3697 61.7243 49.2769 61.2119 47.1964 60.6564C46.2084 60.3879 45.7615 59.6602 45.8886 58.744C46.0157 57.7888 46.8746 57.0673 47.8154 57.2825C50.0701 57.797 52.3105 58.373 54.5427 58.9715C55.3421 59.1847 55.7685 59.7791 55.7726 60.6297Z" fill="#0AE02D"/>
</svg>
