<svg width="85" height="50" viewBox="0 0 85 50" fill="none" xmlns="http://www.w3.org/2000/svg">
<path d="M84.0527 41.3873C83.5905 41.983 82.9751 42.1342 82.2413 42.1123C80.9272 42.0707 79.613 42.1254 78.2989 42.0904C77.6922 42.0728 77.4644 42.2941 77.3067 42.8854C76.3254 46.5585 73.9819 48.9262 70.2672 49.776C67.9046 50.307 65.4279 49.885 63.3744 48.6016C61.3209 47.3182 59.8563 45.2769 59.2983 42.9205C59.1406 42.2765 58.8866 42.0882 58.258 42.0904C47.4643 42.1035 36.6707 42.1035 25.8771 42.0904C25.2441 42.0904 24.9791 42.2897 24.8345 42.9249C23.919 46.9571 20.0554 50.1527 15.4887 49.9928C13.4555 49.9057 11.5066 49.1561 9.93909 47.8583C8.37158 46.5604 7.27147 44.7856 6.8065 42.8044C6.67508 42.2656 6.4451 42.0882 5.91943 42.0947C4.47167 42.1167 3.02172 42.1101 1.57396 42.0947C0.537966 42.0947 0.0407764 41.6195 0.0407764 40.5988C0.0407764 32.3736 0.0407764 24.1492 0.0407764 15.9255C0.0381688 15.5705 0.11291 15.2192 0.259803 14.8961C2.33909 10.3213 4.41474 5.74442 6.48673 1.16531C6.85688 0.346153 7.41101 -0.00866393 8.3353 9.71235e-05C12.0237 0.0351413 15.7143 0.0132336 19.4027 0.0154239C20.7169 0.0154239 21.1549 0.418436 21.1089 1.72383C21.076 2.55175 21.4397 2.65031 22.1296 2.64812C32.5947 2.63279 43.0597 2.69193 53.5248 2.59994C56.1531 2.57803 58.1528 4.69383 57.8505 6.9279C57.7498 7.68792 58.0587 7.92666 58.8143 7.89818C60.5665 7.83466 60.3474 8.07121 60.3628 6.365C60.3628 5.57212 60.3474 4.77925 60.3628 3.98856C60.3891 3.15407 60.8666 2.64593 61.6923 2.63936C64.3425 2.61892 66.9927 2.61892 69.6429 2.63936C70.4577 2.63936 70.933 3.16722 70.9571 4.01047C70.9812 5.04865 70.9878 6.08684 70.9571 7.12502C70.9396 7.70106 71.1564 7.90037 71.7215 7.88066C72.6239 7.84999 73.5285 7.92447 74.4265 7.85876C75.3245 7.79305 75.8939 8.23329 76.367 8.95389C78.7033 12.4861 81.0513 16.0109 83.4109 19.5285C83.6058 19.822 83.8205 20.1067 84.0242 20.4046L84.0527 41.3873ZM39.1698 35.4254C44.2074 35.4254 49.2231 35.4254 54.2498 35.4363C54.9068 35.4363 55.1565 35.2699 55.1565 34.5602C55.1346 25.4356 55.1288 16.3095 55.139 7.18196C55.139 5.86781 54.6616 5.36405 53.3868 5.36405C44.5075 5.36405 35.6281 5.35967 26.7488 5.35091C26.1991 5.35091 25.9165 5.53927 25.715 6.05179C24.9441 8.0077 24.1293 9.94607 23.332 11.891C20.7753 18.1333 18.2199 24.3741 15.6661 30.6134C15.4208 31.2091 15.3879 31.4895 16.1874 31.4895C18.9559 31.5026 21.1965 32.6963 22.9618 34.7749C23.1336 34.9972 23.3577 35.1735 23.6141 35.2882C23.8706 35.4029 24.1514 35.4522 24.4316 35.432C29.3377 35.4254 34.2505 35.4254 39.1698 35.4254ZM57.8791 24.9932C57.8791 29.4993 57.8791 34.0061 57.8791 38.5137C57.8791 38.8685 57.7476 39.3197 58.3609 39.3591C58.8712 39.392 59.1297 39.2452 59.2698 38.6889C60.1941 35.0333 62.4874 32.5956 66.1451 31.7326C69.8576 30.8565 73.0532 31.9801 75.5347 34.926C75.6638 35.0975 75.8341 35.2337 76.0297 35.3221C76.2253 35.4105 76.4399 35.4483 76.654 35.432C77.6659 35.4101 78.6756 35.432 79.6875 35.432C81.593 35.4057 81.3324 35.7342 81.3784 33.7279C81.3915 33.1344 81.2119 32.8913 80.5899 32.9132C79.5517 32.9504 78.5135 32.9416 77.4753 32.9132C76.6452 32.8935 76.1458 32.4028 76.1349 31.5771C76.1115 29.8249 76.1115 28.0727 76.1349 26.3205C76.1349 25.4444 76.6364 24.9625 77.5147 24.9384C78.3054 24.9143 79.0983 24.9384 79.8912 24.9384C81.547 24.9253 81.3104 25.1246 81.3915 23.4425C81.4331 22.5664 81.1024 22.4065 80.2964 22.4109C75.5172 22.4459 70.7359 22.4306 65.9567 22.4262C64.7608 22.4262 64.3162 21.9881 64.314 20.8032C64.3053 18.372 64.3053 15.9408 64.314 13.5096C64.314 12.2568 64.7521 11.8275 65.9786 11.8253C68.6069 11.8253 71.2243 11.8253 73.846 11.8144C74.1242 11.8144 74.617 11.9721 74.6411 11.6611C74.6696 11.2515 74.3454 10.8507 73.9183 10.6645C73.7336 10.6145 73.5409 10.6011 73.351 10.6251C68.4887 10.6251 63.6263 10.6382 58.7639 10.6097C58.0192 10.6097 57.8506 10.8638 57.8527 11.5603C57.89 16.0372 57.8791 20.5163 57.8791 24.9976V24.9932ZM2.79176 23.6549C2.79176 26.0029 2.80709 28.3509 2.79176 30.6988C2.79176 31.3077 2.98887 31.5267 3.59557 31.5004C4.44096 31.449 5.28871 31.449 6.1341 31.5004C6.83937 31.553 7.13943 31.2442 7.38912 30.6243C9.7765 24.7303 12.1945 18.8495 14.6016 12.9643C15.8216 9.98331 17.046 7.00455 18.2484 4.01922C18.6711 2.97447 18.5003 2.73793 17.4227 2.73793C14.8842 2.73793 12.3435 2.75764 9.80496 2.72259C9.16321 2.71164 8.83031 2.91315 8.56529 3.50452C6.75613 7.53898 4.9163 11.5581 3.07648 15.5794C2.88418 16.002 2.78912 16.4623 2.79831 16.9264C2.79612 19.1802 2.79176 21.4187 2.79176 23.6593V23.6549ZM73.6095 19.6862C75.5194 19.6862 77.4293 19.6862 79.3392 19.6862C79.5407 19.6862 79.8342 19.7957 79.9153 19.5372C79.9569 19.4036 79.8036 19.189 79.6962 19.0357C78.8201 17.7215 77.944 16.4074 77.0679 15.0822C76.9788 14.9152 76.8444 14.7767 76.6801 14.6826C76.5159 14.5885 76.3284 14.5425 76.1392 14.55C73.3554 14.5653 70.5716 14.5697 67.79 14.55C67.203 14.55 67.0321 14.769 67.0453 15.3254C67.0737 16.4709 67.0891 17.6186 67.0453 18.7619C67.0146 19.465 67.2205 19.7278 67.9608 19.7081C69.8423 19.6555 71.7259 19.6906 73.6095 19.6906V19.6862ZM11.3907 31.4895C12.0215 31.6954 12.3522 31.2836 12.6282 30.6003C15.0171 24.7114 17.4263 18.8283 19.8561 12.9511C20.7869 10.6798 21.72 8.40851 22.6377 6.13064C22.7275 5.91161 22.9969 5.63345 22.6377 5.41443C22.0047 5.02456 20.7103 5.50204 20.4146 6.22263L10.5146 30.3878C10.0634 31.4961 10.0634 31.4961 11.3907 31.4939V31.4895ZM15.8632 34.258C12.2624 34.3741 9.46548 36.9849 9.38225 40.7324C9.30778 44.2062 12.2559 47.1893 15.7932 47.1849C19.3304 47.1805 22.2128 44.6355 22.2917 40.8485C22.3661 37.2849 19.7159 34.4201 15.8632 34.2624V34.258ZM68.3507 47.2112C72.1267 47.0141 74.7704 44.2806 74.7572 40.7565C74.7419 36.9213 71.831 34.2317 68.2346 34.2865C64.5112 34.3456 61.8412 37.1798 61.8653 40.7434C61.8872 44.4953 64.7346 47.0798 68.3507 47.2156V47.2112ZM39.9495 38.161H27.8287C27.0095 38.161 26.1903 38.1786 25.3711 38.161C24.9024 38.1479 24.8389 38.3363 24.9024 38.7568C25.012 39.5037 25.5595 39.3635 26.026 39.3635C35.3916 39.3635 44.7564 39.3635 54.1205 39.3635C54.2585 39.3635 54.3943 39.3635 54.5301 39.3635C55.0733 39.4051 55.1697 39.0897 55.139 38.6407C55.0974 38.0274 54.6352 38.172 54.2848 38.1698C49.5056 38.164 44.7272 38.1625 39.9495 38.1654V38.161ZM9.18731 34.2383C7.10656 34.2383 5.17914 34.2383 3.24952 34.2383C2.89031 34.2383 2.81146 34.4814 2.81146 34.7902C2.81146 36.1285 2.81146 37.4689 2.81146 38.8072C2.81146 39.1773 2.96696 39.3613 3.35026 39.3591C4.30521 39.3591 5.26235 39.3591 6.21731 39.3591C6.34194 39.3745 6.46776 39.3415 6.56881 39.267C6.66986 39.1924 6.73847 39.0819 6.76051 38.9583C7.07153 37.1995 7.91696 35.697 9.18731 34.2383ZM65.6961 5.375C65.396 5.375 65.0981 5.375 64.7981 5.375C62.9035 5.40566 63.1707 5.07931 63.1138 7.07464C63.094 7.74924 63.3634 7.92008 63.9899 7.8938C64.8309 7.85437 65.6764 7.8938 66.5174 7.88066C68.504 7.84123 68.2456 8.28805 68.2696 6.01893C68.2696 5.5086 68.0506 5.36186 67.5753 5.36186C66.9445 5.39252 66.3181 5.37719 65.6961 5.375ZM80.1146 30.1841C81.3762 30.1841 81.3762 30.1841 81.3762 28.9729C81.3762 27.6719 81.3761 27.6719 80.1255 27.6719C78.8749 27.6719 78.8661 27.6719 78.8661 28.8809C78.8639 30.1841 78.864 30.1841 80.1124 30.1841H80.1146ZM79.2757 38.1698C78.8377 38.1698 78.3996 38.1501 77.9616 38.1698C77.7119 38.1851 77.2892 37.999 77.3286 38.5224C77.3593 38.932 77.4053 39.3613 77.9857 39.3569C78.9362 39.3569 79.8868 39.3569 80.833 39.3569C81.2273 39.3569 81.3411 39.1379 81.3477 38.7853C81.3543 38.4326 81.2469 38.1523 80.8045 38.1632C80.3161 38.1786 79.7992 38.1698 79.2757 38.1698Z" fill="#0AE02D"/>
<path d="M36.892 21.0573C36.892 23.2475 36.892 25.4378 36.892 27.6149C36.892 29.9234 35.2078 31.6034 32.9233 31.6056C30.6389 31.6078 28.9195 29.941 28.9151 27.6631C28.9064 23.265 28.9064 18.8663 28.9151 14.4668C28.9151 12.1823 30.6257 10.5243 32.9233 10.5243C35.2209 10.5243 36.8833 12.2064 36.892 14.515C36.8986 16.6855 36.892 18.8714 36.892 21.0573ZM34.1564 21.0748V15.1808C34.1771 14.8269 34.1333 14.4721 34.0272 14.1338C33.9531 13.8971 33.8062 13.6897 33.6073 13.5413C33.4085 13.3929 33.1679 13.311 32.9198 13.3074C32.6718 13.3037 32.4289 13.3785 32.2258 13.521C32.0227 13.6635 31.8697 13.8665 31.7887 14.101C31.6793 14.41 31.631 14.7373 31.6464 15.0647C31.6464 19.0495 31.6464 23.0336 31.6464 27.017C31.6426 27.2886 31.6698 27.5597 31.7274 27.8252C31.7691 28.1001 31.9085 28.3507 32.1202 28.5309C32.3319 28.7112 32.6015 28.809 32.8795 28.8064C33.1574 28.8198 33.4306 28.7306 33.647 28.5557C33.8635 28.3809 34.0081 28.1326 34.0535 27.858C34.12 27.5664 34.1516 27.2679 34.1476 26.9688C34.1564 25.0041 34.1564 23.0395 34.1564 21.0748Z" fill="#0AE02D"/>
<path d="M50.0072 21.1077C50.0072 23.2979 50.0072 25.4772 50.0072 27.6631C49.9963 29.9476 48.2922 31.6056 45.9903 31.6056C43.7496 31.6056 42.0368 29.9235 42.0324 27.6894C42.0222 23.2636 42.0222 18.8378 42.0324 14.412C42.0324 12.1845 43.7584 10.5134 46.0078 10.5112C48.2572 10.509 49.9919 12.1714 50.0072 14.3857C50.0226 16.6001 50.0072 18.867 50.0072 21.1077ZM44.7615 21.0617C44.7615 23.0256 44.7615 24.9903 44.7615 26.9557C44.7615 28.1537 45.2193 28.824 46.0187 28.8196C46.8182 28.8152 47.2672 28.1625 47.2694 26.9491C47.2694 23.0198 47.2694 19.0904 47.2694 15.1611C47.2876 14.8338 47.2506 14.5058 47.1599 14.1908C46.9715 13.6323 46.5772 13.3147 46.0121 13.3147C45.447 13.3147 45.0528 13.6432 44.8666 14.2018C44.7784 14.5172 44.7429 14.845 44.7615 15.172C44.7615 17.1389 44.7615 19.1021 44.7615 21.0617Z" fill="#0AE02D"/>
<path d="M15.8281 46.035C12.8121 46.035 10.5408 43.7243 10.5496 40.6667C10.5496 37.6857 12.8494 35.4276 15.8676 35.4298C18.8857 35.4319 21.1614 37.7383 21.1526 40.7915C21.1439 43.7484 18.8244 46.035 15.8281 46.035ZM15.8413 43.2337C17.243 43.2205 18.4192 42.0334 18.3776 40.6754C18.336 39.3175 17.1226 38.1698 15.8172 38.2048C15.1573 38.233 14.5327 38.5108 14.0699 38.9821C13.6071 39.4534 13.3407 40.083 13.3247 40.7433C13.341 41.4032 13.6122 42.0311 14.0814 42.4954C14.5506 42.9596 15.1813 43.2242 15.8413 43.2337Z" fill="#0AE02D"/>
<path d="M68.3857 35.4254C71.3491 35.4254 73.6204 37.7515 73.616 40.7587C73.6116 43.7659 71.2988 46.0394 68.239 46.0307C65.2493 46.0307 62.9976 43.6871 63.013 40.6098C63.0261 37.6573 65.3434 35.4254 68.3857 35.4254ZM68.2543 43.2315C68.9287 43.238 69.5785 42.9784 70.0627 42.5089C70.547 42.0394 70.8266 41.398 70.841 40.7237C70.8271 40.0659 70.5572 39.4395 70.0889 38.9776C69.6205 38.5156 68.9905 38.2544 68.3326 38.2496C67.6747 38.2447 67.0409 38.4966 66.5658 38.9516C66.0906 39.4066 65.8116 40.029 65.788 40.6864C65.7909 41.3474 66.0492 41.9817 66.5088 42.4568C66.9684 42.9319 67.5937 43.211 68.2543 43.2359V43.2315Z" fill="#0AE02D"/>
</svg>
