<svg width="25" height="25" viewBox="0 0 25 25" fill="none" xmlns="http://www.w3.org/2000/svg">
<path d="M22.6094 6.95251C23.0781 8.59314 23.0781 12.1088 23.0781 12.1088C23.0781 12.1088 23.0781 15.5853 22.6094 17.265C22.375 18.2025 21.6328 18.9056 20.7344 19.14C19.0547 19.5697 12.4141 19.5697 12.4141 19.5697C12.4141 19.5697 5.73438 19.5697 4.05469 19.14C3.15625 18.9056 2.41406 18.2025 2.17969 17.265C1.71094 15.5853 1.71094 12.1088 1.71094 12.1088C1.71094 12.1088 1.71094 8.59314 2.17969 6.95251C2.41406 6.01501 3.15625 5.27283 4.05469 5.03845C5.73438 4.5697 12.4141 4.5697 12.4141 4.5697C12.4141 4.5697 19.0547 4.5697 20.7344 5.03845C21.6328 5.27283 22.375 6.01501 22.6094 6.95251ZM10.2266 15.2728L15.7734 12.1088L10.2266 8.9447V15.2728Z" fill="black"/>
</svg>
